{
.appVersion = "1348";
copyright = "Copyright 2017 Google Inc. All Rights Reserved.";
customParameters = (
{
name = licenseURL;
value = "http://scripts.sil.org/OFL";
},
{
name = vendorID;
value = GOOG;
},
{
name = unicodeRanges;
value = (
0,
1,
25,
31,
33,
45
);
},
{
name = codePageRanges;
value = (
"1252"
);
},
{
name = glyphOrder;
value = (
.notdef,
NULL,
CR,
space,
"koKai-lao",
"khoKhai-lao",
"khoKhuay-lao",
"ngoNgu-lao",
"coCok-lao",
"soSang-lao",
"nyoNyung-lao",
"doDek-lao",
"toTa-lao",
"thoThong-lao",
"thoThung-lao",
"noNok-lao",
"boBae-lao",
"poPa-lao",
"phoPhueng-lao",
"foFon-lao",
"phoPhu-lao",
"foFai-lao",
"moMa-lao",
"yoYa-lao",
"roRot-lao",
"loLing-lao",
"woWi-lao",
"soSeua-lao",
"hoHaan-lao",
"oO-lao",
"hoHeuan-lao",
"khmuGo-lao",
"khmuNyo-lao",
"aVowel-lao",
"aaVowel-lao",
"amVowel-lao",
"nyoVowel-lao",
"eVowel-lao",
"aeVowel-lao",
"oVowel-lao",
"ayMaiMuanVowel-lao",
"aiMaiMayVowel-lao",
"amVowel-lao.narrow",
"hoNo-lao",
"hoMo-lao",
"zero-lao",
"one-lao",
"two-lao",
"three-lao",
"four-lao",
"five-lao",
"six-lao",
"seven-lao",
"eight-lao",
"nine-lao",
"koLa-lao",
"ellipsis-lao",
kip,
"maiKanVowel-lao",
"iVowel-lao",
"iiVowel-lao",
"euVowel-lao",
"euuVowel-lao",
"maiKonVowel-lao",
"uVowel-lao",
"uuVowel-lao",
"loVowel-lao",
"maiEk-lao",
"maiTho-lao",
"maiTi-lao",
"maiCatawa-lao",
"karan-lao",
"niggahita-lao",
"niggahita_maiEk-lao",
"niggahita_maiTho-lao",
"niggahita_maiTi-lao",
"niggahita_maiCatawa-lao",
"maiEk-lao.small",
"maiTho-lao.small",
"maiTi-lao.small",
"maiCatawa-lao.small",
"karan-lao.small",
"maiKanVowel-lao.narrow",
"iVowel-lao.narrow",
"iiVowel-lao.narrow",
"euVowel-lao.narrow",
"euuVowel-lao.narrow",
"maiKonVowel-lao.narrow",
"maiEk-lao.narrow",
"maiTho-lao.narrow",
"maiTi-lao.narrow",
"maiCatawa-lao.narrow",
"karan-lao.narrow",
"niggahita-lao.narrow",
"niggahita_maiEk-lao.narrow",
"niggahita_maiTho-lao.narrow",
"niggahita_maiTi-lao.narrow",
"niggahita_maiCatawa-lao.narrow",
"niggahita_maiEk-lao.right",
"niggahita_maiTho-lao.right",

glyphs = (
{
glyphname = .notdef;
lastChange = "2017-06-05 18:40:43 +0000";
layers = (
{
layerId = "64BC062E-13E4-450B-B24E-D8A474022433";
paths = (
{
closed = 1;
nodes = (
"451 0 LINE",
"451 714 LINE",
"51 714 LINE",
"51 0 LINE"
);
},
{
closed = 1;
nodes = (
"99 666 LINE",
"403 666 LINE",
"403 48 LINE",
"99 48 LINE"
);
}
);
width = 503;
},
{
layerId = "6449CA81-A7C3-4005-93E5-765657812F1B";
paths = (
{
closed = 1;
nodes = (
"451 0 LINE",
"451 714 LINE",
"51 714 LINE",
"51 0 LINE"
);
},
{
closed = 1;
nodes = (
"99 666 LINE",
"403 666 LINE",
"403 48 LINE",
"99 48 LINE"
);
}
);
width = 503;
},
{
layerId = "E5D3352E-10FF-4C03-AD9F-F95B1FD01257";
paths = (
{
closed = 1;
nodes = (
"451 0 LINE",
"451 714 LINE",
"51 714 LINE",
"51 0 LINE"
);
},
{
closed = 1;
nodes = (
"99 666 LINE",
"403 666 LINE",
"403 48 LINE",
"99 48 LINE"
);
}
);
width = 503;
},
{
layerId = "009F2F33-BFE3-455D-BDCF-6F386AA465CF";
paths = (
{
closed = 1;
nodes = (
"451 0 LINE",
"451 714 LINE",
"51 714 LINE",
"51 0 LINE"
);
},
{
closed = 1;
nodes = (
"99 666 LINE",
"403 666 LINE",
"403 48 LINE",
"99 48 LINE"
);
}
);
width = 503;
},
{
layerId = "AA55D700-EA4F-438C-81A6-FEFC4FC5520F";
paths = (
{
closed = 1;
nodes = (
"451 0 LINE",
"451 714 LINE",
"51 714 LINE",
"51 0 LINE"
);
},
{
closed = 1;
nodes = (
"99 666 LINE",
"403 666 LINE",
"403 48 LINE",
"99 48 LINE"
);
}
);
width = 503;
},
{
layerId = "71F2606D-B934-4F95-8EC7-C80FA20C45E9";
paths = (
{
closed = 1;
nodes = (
"451 0 LINE",
"451 714 LINE",
"51 714 LINE",
"51 0 LINE"
);
},
{
closed = 1;
nodes = (
"99 666 LINE",
"403 666 LINE",
"403 48 LINE",
"99 48 LINE"
);
}
);
width = 503;
}
);
note = .notdef;
},
{
glyphname = "koKai-lao";
lastChange = "2017-06-05 18:40:43 +0000";
layers = (
{
anchors = (
{
name = bottom;
position = "{546, 0}";
},
{
name = top;
position = "{536, 536}";
},
{
name = top2;
position = "{373, 536}";
}
);
layerId = "64BC062E-13E4-450B-B24E-D8A474022433";
paths = (
{
closed = 1;
nodes = (
"159 -10 OFFCURVE",
"187 19 OFFCURVE",
"187 89 CURVE SMOOTH",
"187 359 LINE SMOOTH",
"187 425 OFFCURVE",
"259 531 OFFCURVE",
"389 531 CURVE SMOOTH",
"500 531 OFFCURVE",
"520 454 OFFCURVE",
"520 366 CURVE SMOOTH",
"520 0 LINE",
"546 0 LINE",
"546 365 LINE SMOOTH",
"546 492 OFFCURVE",
"499 556 OFFCURVE",
"388 556 CURVE SMOOTH",
"274 556 OFFCURVE",
"214 489 OFFCURVE",
"183 427 CURVE",
"182 427 LINE",
"172 480 OFFCURVE",
"158 519 OFFCURVE",
"133 556 CURVE",
"113 543 LINE",
"139 505 OFFCURVE",
"161 449 OFFCURVE",
"161 391 CURVE SMOOTH",
"161 85 LINE SMOOTH",
"161 30 OFFCURVE",
"143 15 OFFCURVE",
"108 15 CURVE SMOOTH",
"93 15 OFFCURVE",
"83 18 OFFCURVE",
"70 22 CURVE",
"65 -2 LINE",
"78 -7 OFFCURVE",
"94 -10 OFFCURVE",
"110 -10 CURVE SMOOTH"
);
}
);
width = 631;
},
{
anchors = (
{
name = bottom;
position = "{532, 0}";
},
{
name = top;
position = "{522, 536}";
},
{
name = top2;
position = "{338, 536}";
}
);
layerId = "6449CA81-A7C3-4005-93E5-765657812F1B";
paths = (
{
closed = 1;
nodes = (
"157 -6 OFFCURVE",
"195 37 OFFCURVE",
"195 110 CURVE SMOOTH",
"195 357 LINE SMOOTH",
"195 459 OFFCURVE",
"265 485 OFFCURVE",
"326 485 CURVE SMOOTH",
"411 485 OFFCURVE",
"444 434 OFFCURVE",
"444 347 CURVE SMOOTH",
"444 0 LINE",
"532 0 LINE",
"532 353 LINE SMOOTH",
"532 489 OFFCURVE",
"464 558 OFFCURVE",
"343 558 CURVE SMOOTH",
"278 558 OFFCURVE",
"218 538 OFFCURVE",
"172 477 CURVE",
"169 477 LINE",
"157 508 OFFCURVE",
"134 542 OFFCURVE",
"116 558 CURVE",
"52 509 LINE",
"80 482 OFFCURVE",
"107 439 OFFCURVE",
"107 366 CURVE SMOOTH",
"107 106 LINE SMOOTH",
"107 75 OFFCURVE",
"90 64 OFFCURVE",
"67 64 CURVE SMOOTH",
"57 64 OFFCURVE",
"45 66 OFFCURVE",
"33 70 CURVE",
"20 8 LINE",
"44 -1 OFFCURVE",
"70 -6 OFFCURVE",
"92 -6 CURVE SMOOTH"
);
}
);
width = 614;
},
{
anchors = (
{
name = bottom;
position = "{601, 0}";
},
{
name = top;
position = "{591, 536}";
},
{
name = top2;
position = "{358, 536}";
}
);
layerId = "E5D3352E-10FF-4C03-AD9F-F95B1FD01257";
paths = (
{
closed = 1;
nodes = (
"249 -10 OFFCURVE",
"305 43 OFFCURVE",
"305 139 CURVE SMOOTH",
"305 351 LINE SMOOTH",
"305 399 OFFCURVE",
"327 419 OFFCURVE",
"360 419 CURVE SMOOTH",
"395 419 OFFCURVE",
"409 395 OFFCURVE",
"409 349 CURVE SMOOTH",
"409 0 LINE",
"601 0 LINE",
"601 371 LINE SMOOTH",
"601 479 OFFCURVE",
"547 563 OFFCURVE",
"415 563 CURVE SMOOTH",
"336 563 OFFCURVE",
"279 533 OFFCURVE",
"241 488 CURVE",
"238 488 LINE",
"230 511 OFFCURVE",
"192 548 OFFCURVE",
"163 563 CURVE",
"44 459 LINE",
"97 414 OFFCURVE",
"113 379 OFFCURVE",
"113 309 CURVE SMOOTH",
"113 160 LINE SMOOTH",
"113 142 OFFCURVE",
"106 134 OFFCURVE",
"87 134 CURVE SMOOTH",
"74 134 OFFCURVE",
"62 138 OFFCURVE",
"52 142 CURVE",
"25 20 LINE",
"63 0 OFFCURVE",
"120 -10 OFFCURVE",
"159 -10 CURVE SMOOTH"
);
}
);
width = 646;
},
{
anchors = (
{
name = bottom;
position = "{380, 0}";
},
{
name = top;
position = "{373, 536}";
},
{
name = top2;
position = "{256, 536}";
}
);
layerId = "009F2F33-BFE3-455D-BDCF-6F386AA465CF";
paths = (
{
closed = 1;
nodes = (
"111 -10 OFFCURVE",
"132 19 OFFCURVE",
"132 89 CURVE SMOOTH",
"132 378 LINE SMOOTH",
"132 444 OFFCURVE",
"178 531 OFFCURVE",
"259 531 CURVE SMOOTH",
"334 531 OFFCURVE",
"353 455 OFFCURVE",
"353 366 CURVE SMOOTH",
"353 0 LINE",
"380 0 LINE",
"380 365 LINE SMOOTH",
"380 494 OFFCURVE",
"340 556 OFFCURVE",
"259 556 CURVE SMOOTH",
"191 556 OFFCURVE",
"151 511 OFFCURVE",
"126 446 CURVE",
"125 446 LINE",
"120 499 OFFCURVE",
"109 527 OFFCURVE",
"91 556 CURVE",
"70 543 LINE",
"89 505 OFFCURVE",
"105 468 OFFCURVE",
"105 410 CURVE SMOOTH",
"105 85 LINE SMOOTH",
"105 30 OFFCURVE",
"92 15 OFFCURVE",
"70 15 CURVE SMOOTH",
"60 15 OFFCURVE",
"53 18 OFFCURVE",
"44 22 CURVE",
"39 -2 LINE",
"50 -7 OFFCURVE",
"62 -10 OFFCURVE",
"74 -10 CURVE SMOOTH"
);
}
);
width = 439;
},
{
anchors = (
{
name = bottom;
position = "{395, 0}";
},
{
name = top;
position = "{388, 536}";
},
{
name = top2;
position = "{247, 536}";
}
);
layerId = "AA55D700-EA4F-438C-81A6-FEFC4FC5520F";
paths = (
{
closed = 1;
nodes = (
"139 -7 OFFCURVE",
"169 36 OFFCURVE",
"169 107 CURVE SMOOTH",
"169 357 LINE SMOOTH",
"169 455 OFFCURVE",
"204 491 OFFCURVE",
"246 491 CURVE SMOOTH",
"294 491 OFFCURVE",
"309 442 OFFCURVE",
"309 354 CURVE SMOOTH",
"309 0 LINE",
"395 0 LINE",
"395 360 LINE SMOOTH",
"395 496 OFFCURVE",
"355 558 OFFCURVE",
"264 558 CURVE SMOOTH",
"217 558 OFFCURVE",
"176 541 OFFCURVE",
"146 479 CURVE",
"144 479 LINE",
"136 513 OFFCURVE",
"119 539 OFFCURVE",
"104 558 CURVE",
"41 513 LINE",
"68 485 OFFCURVE",
"83 440 OFFCURVE",
"83 369 CURVE SMOOTH",
"83 103 LINE SMOOTH",
"83 68 OFFCURVE",
"74 58 OFFCURVE",
"57 58 CURVE SMOOTH",
"49 58 OFFCURVE",
"41 60 OFFCURVE",
"33 64 CURVE",
"21 7 LINE",
"41 -2 OFFCURVE",
"68 -7 OFFCURVE",
"86 -7 CURVE SMOOTH"
);
}
);
width = 441;
},
{
anchors = (
{
name = bottom;
position = "{501, 0}";
},
{
name = top;
position = "{493, 536}";
},
{
name = top2;
position = "{303, 536}";
}
);
layerId = "71F2606D-B934-4F95-8EC7-C80FA20C45E9";
paths = (
{
closed = 1;
nodes = (
"221 -9 OFFCURVE",
"267 41 OFFCURVE",
"267 131 CURVE SMOOTH",
"267 354 LINE SMOOTH",
"267 416 OFFCURVE",
"281 439 OFFCURVE",
"303 439 CURVE SMOOTH",
"329 439 OFFCURVE",
"339 409 OFFCURVE",
"339 349 CURVE SMOOTH",
"339 0 LINE",
"501 0 LINE",
"501 367 LINE SMOOTH",
"501 483 OFFCURVE",
"459 563 OFFCURVE",
"352 563 CURVE SMOOTH",
"288 563 OFFCURVE",
"243 535 OFFCURVE",
"213 486 CURVE",
"211 486 LINE",
"206 514 OFFCURVE",
"184 543 OFFCURVE",
"153 563 CURVE",
"49 474 LINE",
"94 435 OFFCURVE",
"105 397 OFFCURVE",
"105 326 CURVE SMOOTH",
"105 144 LINE SMOOTH",
"105 122 OFFCURVE",
"101 114 OFFCURVE",
"85 114 CURVE SMOOTH",
"75 114 OFFCURVE",
"66 117 OFFCURVE",
"58 121 CURVE",
"35 17 LINE",
"67 0 OFFCURVE",
"115 -9 OFFCURVE",
"147 -9 CURVE SMOOTH"
);
}
);
width = 549;
}
);
note = uni0E81;
unicode = 0E81;
},
{
glyphname = "khoKhai-lao";
lastChange = "2017-06-05 18:40:43 +0000";
layers = (
{
anchors = (
{
name = bottom;
position = "{484, 0}";
},
{
name = top;
position = "{471, 536}";
},
{
name = top2;
position = "{291, 536}";
}
);
layerId = "64BC062E-13E4-450B-B24E-D8A474022433";
paths = (
{
closed = 1;
nodes = (
"274 -10 OFFCURVE",
"319 69 OFFCURVE",
"398 69 CURVE SMOOTH",
"439 69 OFFCURVE",
"459 48 OFFCURVE",
"459 7 CURVE SMOOTH",
"459 0 LINE",
"485 0 LINE",
"485 8 LINE SMOOTH",
"485 71 OFFCURVE",
"442 92 OFFCURVE",
"398 92 CURVE SMOOTH",
"313 92 OFFCURVE",
"263 15 OFFCURVE",
"174 15 CURVE SMOOTH",
"122 15 OFFCURVE",
"93 42 OFFCURVE",
"93 97 CURVE SMOOTH",
"93 178 OFFCURVE",
"155 199 OFFCURVE",
"272 234 CURVE SMOOTH",
"390 269 OFFCURVE",
"478 297 OFFCURVE",
"478 401 CURVE SMOOTH",
"478 487 OFFCURVE",
"418 556 OFFCURVE",
"271 556 CURVE SMOOTH",
"120 556 OFFCURVE",
"65 483 OFFCURVE",
"65 410 CURVE SMOOTH",
"65 393 OFFCURVE",
"68 368 OFFCURVE",
"75 355 CURVE",
"100 365 LINE",
"95 377 OFFCURVE",
"93 396 OFFCURVE",
"93 410 CURVE SMOOTH",
"93 493 OFFCURVE",
"168 531 OFFCURVE",
"272 531 CURVE SMOOTH",
"378 531 OFFCURVE",
"450 491 OFFCURVE",
"450 401 CURVE SMOOTH",
"450 317 OFFCURVE",
"388 297 OFFCURVE",
"265 258 CURVE SMOOTH",
"138 218 OFFCURVE",
"65 194 OFFCURVE",
"65 99 CURVE SMOOTH",
"65 20 OFFCURVE",
"116 -10 OFFCURVE",
"176 -10 CURVE SMOOTH"
);
}
);
width = 544;
},
{
anchors = (
{
name = bottom;
position = "{542, 0}";
},
{
name = top;
position = "{532, 536}";
},
{
name = top2;
position = "{320, 536}";
}
);
layerId = "6449CA81-A7C3-4005-93E5-765657812F1B";
paths = (
{
closed = 1;
nodes = (
"302 -10 OFFCURVE",
"369 59 OFFCURVE",
"421 59 CURVE SMOOTH",
"442 59 OFFCURVE",
"455 48 OFFCURVE",
"455 22 CURVE SMOOTH",
"455 0 LINE",
"542 0 LINE",
"542 24 LINE SMOOTH",
"542 105 OFFCURVE",
"492 132 OFFCURVE",
"440 132 CURVE SMOOTH",
"354 132 OFFCURVE",
"273 60 OFFCURVE",
"209 60 CURVE SMOOTH",
"173 60 OFFCURVE",
"153 83 OFFCURVE",
"153 111 CURVE SMOOTH",
"153 168 OFFCURVE",
"236 189 OFFCURVE",
"315 213 CURVE SMOOTH",
"422 245 OFFCURVE",
"541 281 OFFCURVE",
"541 392 CURVE SMOOTH",
"541 480 OFFCURVE",
"467 558 OFFCURVE",
"306 558 CURVE SMOOTH",
"142 558 OFFCURVE",
"73 477 OFFCURVE",
"73 393 CURVE SMOOTH",
"73 362 OFFCURVE",
"82 331 OFFCURVE",
"104 312 CURVE",
"174 347 LINE",
"164 359 OFFCURVE",
"157 371 OFFCURVE",
"157 392 CURVE SMOOTH",
"157 456 OFFCURVE",
"225 485 OFFCURVE",
"307 485 CURVE SMOOTH",
"388 485 OFFCURVE",
"456 457 OFFCURVE",
"456 393 CURVE SMOOTH",
"456 329 OFFCURVE",
"386 311 OFFCURVE",
"292 284 CURVE SMOOTH",
"186 253 OFFCURVE",
"68 219 OFFCURVE",
"68 109 CURVE SMOOTH",
"68 27 OFFCURVE",
"134 -10 OFFCURVE",
"205 -10 CURVE SMOOTH"
);
}
);
width = 615;
},
{
anchors = (
{
name = bottom;
position = "{555, 0}";
},
{
name = top;
position = "{545, 536}";
},
{
name = top2;
position = "{316, 536}";
}
);
layerId = "E5D3352E-10FF-4C03-AD9F-F95B1FD01257";
paths = (
{
closed = 1;
nodes = (
"277 -10 OFFCURVE",
"336 35 OFFCURVE",
"377 35 CURVE SMOOTH",
"393 35 OFFCURVE",
"398 28 OFFCURVE",
"398 14 CURVE SMOOTH",
"398 0 LINE",
"555 0 LINE",
"555 57 LINE SMOOTH",
"555 139 OFFCURVE",
"528 191 OFFCURVE",
"440 191 CURVE SMOOTH",
"347 191 OFFCURVE",
"264 134 OFFCURVE",
"226 134 CURVE SMOOTH",
"219 134 OFFCURVE",
"213 136 OFFCURVE",
"213 142 CURVE SMOOTH",
"213 160 OFFCURVE",
"278 184 OFFCURVE",
"348 214 CURVE SMOOTH",
"494 276 OFFCURVE",
"555 312 OFFCURVE",
"555 401 CURVE SMOOTH",
"555 494 OFFCURVE",
"488 563 OFFCURVE",
"303 563 CURVE SMOOTH",
"124 563 OFFCURVE",
"35 498 OFFCURVE",
"35 403 CURVE SMOOTH",
"35 349 OFFCURVE",
"64 304 OFFCURVE",
"97 285 CURVE",
"235 355 LINE",
"226 365 OFFCURVE",
"221 375 OFFCURVE",
"221 387 CURVE SMOOTH",
"221 415 OFFCURVE",
"247 431 OFFCURVE",
"299 431 CURVE SMOOTH",
"350 431 OFFCURVE",
"367 416 OFFCURVE",
"367 394 CURVE SMOOTH",
"367 365 OFFCURVE",
"339 360 OFFCURVE",
"220 306 CURVE SMOOTH",
"94 249 OFFCURVE",
"25 209 OFFCURVE",
"25 117 CURVE SMOOTH",
"25 24 OFFCURVE",
"95 -10 OFFCURVE",
"180 -10 CURVE SMOOTH"
);
}
);
width = 595;
},
{
anchors = (
{
name = bottom;
position = "{347, 0}";
},
{
name = top;
position = "{338, 536}";
},
{
name = top2;
position = "{208, 536}";
}
);
layerId = "009F2F33-BFE3-455D-BDCF-6F386AA465CF";
paths = (
{
closed = 1;
nodes = (
"210 -10 OFFCURVE",
"236 69 OFFCURVE",
"285 69 CURVE SMOOTH",
"311 69 OFFCURVE",
"325 47 OFFCURVE",
"325 7 CURVE SMOOTH",
"325 0 LINE",
"352 0 LINE",
"352 8 LINE SMOOTH",
"352 62 OFFCURVE",
"329 92 OFFCURVE",
"288 92 CURVE SMOOTH",
"223 92 OFFCURVE",
"195 14 OFFCURVE",
"136 14 CURVE SMOOTH",
"96 14 OFFCURVE",
"71 50 OFFCURVE",
"71 107 CURVE SMOOTH",
"71 187 OFFCURVE",
"119 208 OFFCURVE",
"197 244 CURVE SMOOTH",
"279 282 OFFCURVE",
"343 316 OFFCURVE",
"343 412 CURVE SMOOTH",
"343 491 OFFCURVE",
"299 556 OFFCURVE",
"196 556 CURVE SMOOTH",
"86 556 OFFCURVE",
"47 481 OFFCURVE",
"47 411 CURVE SMOOTH",
"47 392 OFFCURVE",
"50 368 OFFCURVE",
"57 355 CURVE",
"80 365 LINE",
"76 377 OFFCURVE",
"74 395 OFFCURVE",
"74 411 CURVE SMOOTH",
"74 492 OFFCURVE",
"125 531 OFFCURVE",
"196 531 CURVE SMOOTH",
"265 531 OFFCURVE",
"316 495 OFFCURVE",
"316 411 CURVE SMOOTH",
"316 337 OFFCURVE",
"276 310 OFFCURVE",
"189 268 CURVE SMOOTH",
"113 231 OFFCURVE",
"42 206 OFFCURVE",
"42 107 CURVE SMOOTH",
"42 31 OFFCURVE",
"84 -10 OFFCURVE",
"137 -10 CURVE SMOOTH"
);
}
);
width = 391;
},
{
anchors = (
{
name = bottom;
position = "{376, 0}";
},
{
name = top;
position = "{369, 536}";
},
{
name = top2;
position = "{219, 536}";
}
);
layerId = "AA55D700-EA4F-438C-81A6-FEFC4FC5520F";
paths = (
{
closed = 1;
nodes = (
"202 -10 OFFCURVE",
"241 60 OFFCURVE",
"278 60 CURVE SMOOTH",
"294 60 OFFCURVE",
"301 48 OFFCURVE",
"301 20 CURVE SMOOTH",
"301 0 LINE",
"376 0 LINE",
"376 22 LINE SMOOTH",
"376 98 OFFCURVE",
"350 132 OFFCURVE",
"304 132 CURVE SMOOTH",
"239 132 OFFCURVE",
"187 62 OFFCURVE",
"149 62 CURVE SMOOTH",
"128 62 OFFCURVE",
"118 83 OFFCURVE",
"118 112 CURVE SMOOTH",
"118 174 OFFCURVE",
"164 189 OFFCURVE",
"226 215 CURVE SMOOTH",
"310 250 OFFCURVE",
"375 287 OFFCURVE",
"375 391 CURVE SMOOTH",
"375 481 OFFCURVE",
"327 558 OFFCURVE",
"211 558 CURVE SMOOTH",
"91 558 OFFCURVE",
"38 477 OFFCURVE",
"38 399 CURVE SMOOTH",
"38 364 OFFCURVE",
"49 338 OFFCURVE",
"67 317 CURVE",
"131 349 LINE",
"125 361 OFFCURVE",
"122 374 OFFCURVE",
"122 394 CURVE SMOOTH",
"122 461 OFFCURVE",
"157 491 OFFCURVE",
"207 491 CURVE SMOOTH",
"258 491 OFFCURVE",
"291 460 OFFCURVE",
"291 398 CURVE SMOOTH",
"291 337 OFFCURVE",
"260 313 OFFCURVE",
"179 280 CURVE SMOOTH",
"102 249 OFFCURVE",
"34 220 OFFCURVE",
"34 113 CURVE SMOOTH",
"34 25 OFFCURVE",
"80 -10 OFFCURVE",
"131 -10 CURVE SMOOTH"
);
}
);
width = 415;
},
{
anchors = (
{
name = bottom;
position = "{461, 0}";
},
{
name = top;
position = "{453, 536}";
},
{
name = top2;
position = "{268, 536}";
}
);
layerId = "71F2606D-B934-4F95-8EC7-C80FA20C45E9";
paths = (
{
closed = 1;
nodes = (
"238 -10 OFFCURVE",
"281 42 OFFCURVE",
"314 42 CURVE SMOOTH",
"326 42 OFFCURVE",
"329 34 OFFCURVE",
"329 16 CURVE SMOOTH",
"329 0 LINE",
"461 0 LINE",
"461 47 LINE SMOOTH",
"461 127 OFFCURVE",
"441 174 OFFCURVE",
"369 174 CURVE SMOOTH",
"287 174 OFFCURVE",
"256 113 OFFCURVE",
"214 113 CURVE SMOOTH",
"200 113 OFFCURVE",
"191 120 OFFCURVE",
"191 133 CURVE SMOOTH",
"191 162 OFFCURVE",
"234 183 OFFCURVE",
"296 213 CURVE SMOOTH",
"412 269 OFFCURVE",
"461 302 OFFCURVE",
"461 395 CURVE SMOOTH",
"461 492 OFFCURVE",
"408 563 OFFCURVE",
"260 563 CURVE SMOOTH",
"114 563 OFFCURVE",
"40 493 OFFCURVE",
"40 404 CURVE SMOOTH",
"40 354 OFFCURVE",
"63 315 OFFCURVE",
"93 294 CURVE",
"208 354 LINE",
"201 365 OFFCURVE",
"197 375 OFFCURVE",
"197 391 CURVE SMOOTH",
"197 428 OFFCURVE",
"217 448 OFFCURVE",
"251 448 CURVE SMOOTH",
"282 448 OFFCURVE",
"302 431 OFFCURVE",
"302 395 CURVE SMOOTH",
"302 351 OFFCURVE",
"271 343 OFFCURVE",
"185 300 CURVE SMOOTH",
"81 248 OFFCURVE",
"32 211 OFFCURVE",
"32 120 CURVE SMOOTH",
"32 24 OFFCURVE",
"87 -10 OFFCURVE",
"155 -10 CURVE SMOOTH"
);
}
);
width = 505;
}
);
note = uni0E82;
unicode = 0E82;
},
{
glyphname = "khoKhuay-lao";
lastChange = "2017-06-05 18:40:43 +0000";
layers = (
{
anchors = (
{
name = bottom;
position = "{484, 0}";
},
{
name = top;
position = "{474, 536}";
},
{
name = top2;
position = "{293, 536}";
}
);
layerId = "64BC062E-13E4-450B-B24E-D8A474022433";
paths = (
{
closed = 1;
nodes = (
"233 -10 OFFCURVE",
"264 -5 OFFCURVE",
"284 2 CURVE",
"279 27 LINE",
"265 22 OFFCURVE",
"236 15 OFFCURVE",
"207 15 CURVE SMOOTH",
"141 15 OFFCURVE",
"92 52 OFFCURVE",
"92 128 CURVE SMOOTH",
"92 223 OFFCURVE",
"168 253 OFFCURVE",
"228 253 CURVE SMOOTH",
"267 253 LINE",
"267 275 LINE",
"228 275 LINE SMOOTH",
"145 275 OFFCURVE",
"95 322 OFFCURVE",
"95 398 CURVE SMOOTH",
"95 499 OFFCURVE",
"183 531 OFFCURVE",
"274 531 CURVE SMOOTH",
"372 531 OFFCURVE",
"458 494 OFFCURVE",
"458 377 CURVE SMOOTH",
"458 0 LINE",
"484 0 LINE",
"484 371 LINE SMOOTH",
"484 501 OFFCURVE",
"398 556 OFFCURVE",
"273 556 CURVE SMOOTH",
"150 556 OFFCURVE",
"68 502 OFFCURVE",
"68 397 CURVE SMOOTH",
"68 312 OFFCURVE",
"122 281 OFFCURVE",
"156 267 CURVE",
"156 263 LINE",
"124 251 OFFCURVE",
"65 219 OFFCURVE",
"65 129 CURVE SMOOTH",
"65 39 OFFCURVE",
"123 -10 OFFCURVE",
"206 -10 CURVE SMOOTH"
);
}
);
width = 569;
},
{
anchors = (
{
name = bottom;
position = "{532, 0}";
},
{
name = top;
position = "{522, 536}";
},
{
name = top2;
position = "{316, 536}";
}
);
layerId = "6449CA81-A7C3-4005-93E5-765657812F1B";
paths = (
{
closed = 1;
nodes = (
"265 -10 OFFCURVE",
"302 -3 OFFCURVE",
"321 5 CURVE",
"306 74 LINE",
"291 69 OFFCURVE",
"268 63 OFFCURVE",
"244 63 CURVE SMOOTH",
"187 63 OFFCURVE",
"156 97 OFFCURVE",
"156 150 CURVE SMOOTH",
"156 216 OFFCURVE",
"203 240 OFFCURVE",
"275 240 CURVE SMOOTH",
"295 240 LINE",
"295 305 LINE",
"275 305 LINE SMOOTH",
"205 305 OFFCURVE",
"156 335 OFFCURVE",
"156 394 CURVE SMOOTH",
"156 453 OFFCURVE",
"205 485 OFFCURVE",
"299 485 CURVE SMOOTH",
"405 485 OFFCURVE",
"444 444 OFFCURVE",
"444 369 CURVE SMOOTH",
"444 0 LINE",
"532 0 LINE",
"532 361 LINE SMOOTH",
"532 500 OFFCURVE",
"454 558 OFFCURVE",
"305 558 CURVE SMOOTH",
"151 558 OFFCURVE",
"68 496 OFFCURVE",
"68 397 CURVE SMOOTH",
"68 332 OFFCURVE",
"104 292 OFFCURVE",
"162 273 CURVE",
"162 270 LINE",
"98 253 OFFCURVE",
"68 204 OFFCURVE",
"68 142 CURVE SMOOTH",
"68 66 OFFCURVE",
"113 -10 OFFCURVE",
"230 -10 CURVE SMOOTH"
);
}
);
width = 614;
},
{
anchors = (
{
name = bottom;
position = "{560, 0}";
},
{
name = top;
position = "{550, 536}";
},
{
name = top2;
position = "{308, 536}";
}
);
layerId = "E5D3352E-10FF-4C03-AD9F-F95B1FD01257";
paths = (
{
closed = 1;
nodes = (
"254 -10 OFFCURVE",
"297 -3 OFFCURVE",
"332 9 CURVE",
"301 141 LINE",
"288 137 OFFCURVE",
"270 134 OFFCURVE",
"258 134 CURVE SMOOTH",
"231 134 OFFCURVE",
"218 148 OFFCURVE",
"218 173 CURVE SMOOTH",
"218 202 OFFCURVE",
"236 217 OFFCURVE",
"266 217 CURVE SMOOTH",
"318 217 LINE",
"318 328 LINE",
"266 328 LINE SMOOTH",
"232 328 OFFCURVE",
"218 349 OFFCURVE",
"218 371 CURVE SMOOTH",
"218 405 OFFCURVE",
"254 419 OFFCURVE",
"290 419 CURVE SMOOTH",
"337 419 OFFCURVE",
"368 394 OFFCURVE",
"368 358 CURVE SMOOTH",
"368 0 LINE",
"560 0 LINE",
"560 347 LINE SMOOTH",
"560 500 OFFCURVE",
"465 563 OFFCURVE",
"296 563 CURVE SMOOTH",
"122 563 OFFCURVE",
"30 496 OFFCURVE",
"30 397 CURVE SMOOTH",
"30 337 OFFCURVE",
"63 295 OFFCURVE",
"117 275 CURVE",
"117 273 LINE",
"54 246 OFFCURVE",
"30 194 OFFCURVE",
"30 141 CURVE SMOOTH",
"30 64 OFFCURVE",
"81 -10 OFFCURVE",
"213 -10 CURVE SMOOTH"
);
}
);
width = 605;
},
{
anchors = (
{
name = bottom;
position = "{346, 0}";
},
{
name = top;
position = "{339, 536}";
},
{
name = top2;
position = "{208, 536}";
}
);
layerId = "009F2F33-BFE3-455D-BDCF-6F386AA465CF";
paths = (
{
closed = 1;
nodes = (
"168 -10 OFFCURVE",
"190 -5 OFFCURVE",
"204 2 CURVE",
"199 27 LINE",
"189 22 OFFCURVE",
"169 15 OFFCURVE",
"150 15 CURVE SMOOTH",
"105 15 OFFCURVE",
"73 52 OFFCURVE",
"73 128 CURVE SMOOTH",
"73 223 OFFCURVE",
"123 253 OFFCURVE",
"166 253 CURVE SMOOTH",
"191 253 LINE",
"191 275 LINE",
"166 275 LINE SMOOTH",
"110 275 OFFCURVE",
"75 322 OFFCURVE",
"75 400 CURVE SMOOTH",
"75 499 OFFCURVE",
"132 531 OFFCURVE",
"196 531 CURVE SMOOTH",
"266 531 OFFCURVE",
"319 493 OFFCURVE",
"319 377 CURVE SMOOTH",
"319 0 LINE",
"346 0 LINE",
"346 371 LINE SMOOTH",
"346 501 OFFCURVE",
"287 556 OFFCURVE",
"195 556 CURVE SMOOTH",
"106 556 OFFCURVE",
"48 503 OFFCURVE",
"48 396 CURVE SMOOTH",
"48 313 OFFCURVE",
"83 281 OFFCURVE",
"110 267 CURVE",
"110 263 LINE",
"83 251 OFFCURVE",
"46 219 OFFCURVE",
"46 130 CURVE SMOOTH",
"46 39 OFFCURVE",
"85 -10 OFFCURVE",
"148 -10 CURVE SMOOTH"
);
}
);
width = 405;
},
{
anchors = (
{
name = bottom;
position = "{375, 0}";
},
{
name = top;
position = "{368, 536}";
},
{
name = top2;
position = "{216, 536}";
}
);
layerId = "AA55D700-EA4F-438C-81A6-FEFC4FC5520F";
paths = (
{
closed = 1;
nodes = (
"179 -10 OFFCURVE",
"206 -3 OFFCURVE",
"224 5 CURVE",
"210 68 LINE",
"200 63 OFFCURVE",
"185 57 OFFCURVE",
"171 57 CURVE SMOOTH",
"139 57 OFFCURVE",
"121 91 OFFCURVE",
"121 147 CURVE SMOOTH",
"121 217 OFFCURVE",
"148 242 OFFCURVE",
"184 242 CURVE SMOOTH",
"211 242 LINE",
"211 301 LINE",
"184 301 LINE SMOOTH",
"145 301 OFFCURVE",
"121 335 OFFCURVE",
"121 392 CURVE SMOOTH",
"121 461 OFFCURVE",
"156 491 OFFCURVE",
"204 491 CURVE SMOOTH",
"259 491 OFFCURVE",
"290 450 OFFCURVE",
"290 370 CURVE SMOOTH",
"290 0 LINE",
"376 0 LINE",
"376 362 LINE SMOOTH",
"376 500 OFFCURVE",
"315 558 OFFCURVE",
"207 558 CURVE SMOOTH",
"97 558 OFFCURVE",
"36 497 OFFCURVE",
"36 397 CURVE SMOOTH",
"36 330 OFFCURVE",
"63 291 OFFCURVE",
"99 272 CURVE",
"99 269 LINE",
"59 253 OFFCURVE",
"36 205 OFFCURVE",
"36 141 CURVE SMOOTH",
"36 62 OFFCURVE",
"71 -10 OFFCURVE",
"153 -10 CURVE SMOOTH"
);
}
);
width = 422;
},
{
anchors = (
{
name = bottom;
position = "{465, 0}";
},
{
name = top;
position = "{457, 536}";
},
{
name = top2;
position = "{261, 536}";
}
);
layerId = "71F2606D-B934-4F95-8EC7-C80FA20C45E9";
paths = (
{
closed = 1;
nodes = (
"217 -10 OFFCURVE",
"252 -3 OFFCURVE",
"282 8 CURVE",
"255 122 LINE",
"244 117 OFFCURVE",
"233 114 OFFCURVE",
"225 114 CURVE SMOOTH",
"206 114 OFFCURVE",
"194 134 OFFCURVE",
"194 168 CURVE SMOOTH",
"194 204 OFFCURVE",
"207 224 OFFCURVE",
"230 224 CURVE SMOOTH",
"271 224 LINE",
"271 321 LINE",
"227 321 LINE SMOOTH",
"203 321 OFFCURVE",
"194 348 OFFCURVE",
"194 375 CURVE SMOOTH",
"194 415 OFFCURVE",
"213 439 OFFCURVE",
"246 439 CURVE SMOOTH",
"282 439 OFFCURVE",
"303 412 OFFCURVE",
"303 367 CURVE SMOOTH",
"303 0 LINE",
"465 0 LINE",
"465 352 LINE SMOOTH",
"465 501 OFFCURVE",
"388 563 OFFCURVE",
"251 563 CURVE SMOOTH",
"109 563 OFFCURVE",
"36 497 OFFCURVE",
"36 397 CURVE SMOOTH",
"36 340 OFFCURVE",
"60 295 OFFCURVE",
"105 274 CURVE",
"105 272 LINE",
"55 248 OFFCURVE",
"36 196 OFFCURVE",
"36 143 CURVE SMOOTH",
"36 64 OFFCURVE",
"77 -10 OFFCURVE",
"184 -10 CURVE SMOOTH"
);
}
);
width = 513;
}
);
note = uni0E84;
unicode = 0E84;
},
{
glyphname = "ngoNgu-lao";
lastChange = "2017-06-05 18:40:43 +0000";
layers = (
{
anchors = (
{
name = bottom;
position = "{283, -147}";
},
{
name = top;
position = "{293, 536}";
},
{
name = top2;
position = "{172, 536}";
}
);
layerId = "64BC062E-13E4-450B-B24E-D8A474022433";
paths = (
{
closed = 1;
nodes = (
"236 -147 OFFCURVE",
"293 -99 OFFCURVE",
"293 8 CURVE SMOOTH",
"293 455 LINE SMOOTH",
"293 518 OFFCURVE",
"247 556 OFFCURVE",
"173 556 CURVE SMOOTH",
"135 556 OFFCURVE",
"93 546 OFFCURVE",
"56 525 CURVE",
"66 502 LINE",
"98 522 OFFCURVE",
"136 531 OFFCURVE",
"170 531 CURVE SMOOTH",
"231 531 OFFCURVE",
"267 503 OFFCURVE",
"267 456 CURVE SMOOTH",
"267 15 LINE SMOOTH",
"267 -76 OFFCURVE",
"235 -122 OFFCURVE",
"139 -122 CURVE SMOOTH",
"104 -122 OFFCURVE",
"60 -116 OFFCURVE",
"25 -102 CURVE",
"25 -128 LINE",
"53 -139 OFFCURVE",
"104 -147 OFFCURVE",
"142 -147 CURVE SMOOTH"
);
}
);
width = 378;
},
{
anchors = (
{
name = bottom;
position = "{277, -174}";
},
{
name = top;
position = "{287, 536}";
},
{
name = top2;
position = "{157, 536}";
}
);
layerId = "6449CA81-A7C3-4005-93E5-765657812F1B";
paths = (
{
closed = 1;
nodes = (
"223 -174 OFFCURVE",
"287 -121 OFFCURVE",
"287 -7 CURVE SMOOTH",
"287 449 LINE SMOOTH",
"287 518 OFFCURVE",
"233 558 OFFCURVE",
"147 558 CURVE SMOOTH",
"106 558 OFFCURVE",
"64 549 OFFCURVE",
"28 533 CURVE",
"47 469 LINE",
"69 479 OFFCURVE",
"97 485 OFFCURVE",
"123 485 CURVE SMOOTH",
"171 485 OFFCURVE",
"199 463 OFFCURVE",
"199 425 CURVE SMOOTH",
"199 0 LINE SMOOTH",
"199 -66 OFFCURVE",
"171 -101 OFFCURVE",
"99 -101 CURVE SMOOTH",
"53 -101 OFFCURVE",
"11 -87 OFFCURVE",
"-28 -66 CURVE",
"-28 -144 LINE",
"0 -157 OFFCURVE",
"51 -174 OFFCURVE",
"113 -174 CURVE SMOOTH"
);
}
);
width = 369;
},
{
anchors = (
{
name = bottom;
position = "{359, -191}";
},
{
name = top;
position = "{369, 536}";
},
{
name = top2;
position = "{198, 536}";
}
);
layerId = "E5D3352E-10FF-4C03-AD9F-F95B1FD01257";
paths = (
{
closed = 1;
nodes = (
"284 -191 OFFCURVE",
"369 -122 OFFCURVE",
"369 -6 CURVE SMOOTH",
"369 411 LINE SMOOTH",
"369 514 OFFCURVE",
"279 563 OFFCURVE",
"176 563 CURVE SMOOTH",
"123 563 OFFCURVE",
"65 550 OFFCURVE",
"16 521 CURVE",
"45 405 LINE",
"62 412 OFFCURVE",
"85 419 OFFCURVE",
"108 419 CURVE SMOOTH",
"144 419 OFFCURVE",
"177 403 OFFCURVE",
"177 369 CURVE SMOOTH",
"177 7 LINE SMOOTH",
"177 -28 OFFCURVE",
"148 -48 OFFCURVE",
"104 -48 CURVE SMOOTH",
"73 -48 OFFCURVE",
"31 -38 OFFCURVE",
"-15 -20 CURVE",
"-15 -156 LINE",
"34 -178 OFFCURVE",
"95 -191 OFFCURVE",
"152 -191 CURVE SMOOTH"
);
}
);
width = 414;
},
{
anchors = (
{
name = bottom;
position = "{197, -147}";
},
{
name = top;
position = "{204, 536}";
},
{
name = top2;
position = "{118, 536}";
}
);
layerId = "009F2F33-BFE3-455D-BDCF-6F386AA465CF";
paths = (
{
closed = 1;
nodes = (
"163 -147 OFFCURVE",
"204 -104 OFFCURVE",
"204 4 CURVE SMOOTH",
"204 455 LINE SMOOTH",
"204 518 OFFCURVE",
"170 556 OFFCURVE",
"117 556 CURVE SMOOTH",
"90 556 OFFCURVE",
"61 546 OFFCURVE",
"35 525 CURVE",
"43 502 LINE",
"64 522 OFFCURVE",
"90 531 OFFCURVE",
"112 531 CURVE SMOOTH",
"153 531 OFFCURVE",
"177 503 OFFCURVE",
"177 456 CURVE SMOOTH",
"177 11 LINE SMOOTH",
"177 -81 OFFCURVE",
"155 -122 OFFCURVE",
"91 -122 CURVE SMOOTH",
"66 -122 OFFCURVE",
"35 -116 OFFCURVE",
"10 -102 CURVE",
"10 -128 LINE",
"30 -139 OFFCURVE",
"65 -147 OFFCURVE",
"94 -147 CURVE SMOOTH"
);
}
);
width = 263;
},
{
anchors = (
{
name = bottom;
position = "{220, -171}";
},
{
name = top;
position = "{227, 536}";
},
{
name = top2;
position = "{124, 536}";
}
);
layerId = "AA55D700-EA4F-438C-81A6-FEFC4FC5520F";
paths = (
{
closed = 1;
nodes = (
"175 -171 OFFCURVE",
"227 -118 OFFCURVE",
"227 -5 CURVE SMOOTH",
"227 450 LINE SMOOTH",
"227 518 OFFCURVE",
"179 558 OFFCURVE",
"114 558 CURVE SMOOTH",
"83 558 OFFCURVE",
"49 549 OFFCURVE",
"19 532 CURVE",
"35 473 LINE",
"50 484 OFFCURVE",
"69 489 OFFCURVE",
"87 489 CURVE SMOOTH",
"125 489 OFFCURVE",
"141 468 OFFCURVE",
"141 429 CURVE SMOOTH",
"141 2 LINE SMOOTH",
"141 -73 OFFCURVE",
"122 -104 OFFCURVE",
"78 -104 CURVE SMOOTH",
"49 -104 OFFCURVE",
"20 -91 OFFCURVE",
"-9 -71 CURVE",
"-9 -142 LINE",
"17 -155 OFFCURVE",
"55 -171 OFFCURVE",
"98 -171 CURVE SMOOTH"
);
}
);
width = 273;
},
{
anchors = (
{
name = bottom;
position = "{309, -186}";
},
{
name = top;
position = "{317, 536}";
},
{
name = top2;
position = "{177, 536}";
}
);
layerId = "71F2606D-B934-4F95-8EC7-C80FA20C45E9";
paths = (
{
closed = 1;
nodes = (
"247 -186 OFFCURVE",
"317 -122 OFFCURVE",
"317 -6 CURVE SMOOTH",
"317 423 LINE SMOOTH",
"317 516 OFFCURVE",
"242 563 OFFCURVE",
"158 563 CURVE SMOOTH",
"115 563 OFFCURVE",
"67 551 OFFCURVE",
"27 525 CURVE",
"51 424 LINE",
"64 432 OFFCURVE",
"82 439 OFFCURVE",
"100 439 CURVE SMOOTH",
"128 439 OFFCURVE",
"155 421 OFFCURVE",
"155 386 CURVE SMOOTH",
"155 5 LINE SMOOTH",
"155 -39 OFFCURVE",
"131 -63 OFFCURVE",
"99 -63 CURVE SMOOTH",
"75 -63 OFFCURVE",
"41 -52 OFFCURVE",
"4 -33 CURVE",
"4 -153 LINE",
"45 -172 OFFCURVE",
"95 -186 OFFCURVE",
"140 -186 CURVE SMOOTH"
);
}
);
width = 365;
}
);
note = uni0E87;
unicode = 0E87;
},
{
glyphname = "coCok-lao";
lastChange = "2017-06-05 18:40:43 +0000";
layers = (
{
anchors = (
{
name = bottom;
position = "{450, 0}";
},
{
name = top;
position = "{450, 536}";
},
{
name = top2;
position = "{272, 536}";
}
);
layerId = "64BC062E-13E4-450B-B24E-D8A474022433";
paths = (
{
closed = 1;
nodes = (
"259 0 LINE SMOOTH",
"425 0 OFFCURVE",
"480 91 OFFCURVE",
"480 267 CURVE SMOOTH",
"480 465 OFFCURVE",
"411 556 OFFCURVE",
"238 556 CURVE SMOOTH",
"168 556 OFFCURVE",
"105 541 OFFCURVE",
"65 523 CURVE",
"65 497 LINE",
"114 518 OFFCURVE",
"171 531 OFFCURVE",
"237 531 CURVE SMOOTH",
"397 531 OFFCURVE",
"453 453 OFFCURVE",
"453 272 CURVE SMOOTH",
"453 91 OFFCURVE",
"397 22 OFFCURVE",
"249 22 CURVE",
"216 229 LINE SMOOTH",
"208 280 OFFCURVE",
"182 304 OFFCURVE",
"139 304 CURVE SMOOTH",
"119 304 OFFCURVE",
"100 299 OFFCURVE",
"89 294 CURVE",
"93 272 LINE",
"103 276 OFFCURVE",
"120 279 OFFCURVE",
"136 279 CURVE SMOOTH",
"174 279 OFFCURVE",
"185 261 OFFCURVE",
"192 219 CURVE SMOOTH",
"227 0 LINE"
);
}
);
width = 545;
},
{
anchors = (
{
name = bottom;
position = "{471, 0}";
},
{
name = top;
position = "{471, 536}";
},
{
name = top2;
position = "{257, 536}";
}
);
layerId = "6449CA81-A7C3-4005-93E5-765657812F1B";
paths = (
{
closed = 1;
nodes = (
"254 0 LINE SMOOTH",
"429 0 OFFCURVE",
"491 103 OFFCURVE",
"491 273 CURVE SMOOTH",
"491 458 OFFCURVE",
"418 558 OFFCURVE",
"238 558 CURVE SMOOTH",
"155 558 OFFCURVE",
"85 537 OFFCURVE",
"47 517 CURVE",
"47 439 LINE",
"102 471 OFFCURVE",
"164 485 OFFCURVE",
"226 485 CURVE SMOOTH",
"352 485 OFFCURVE",
"403 427 OFFCURVE",
"403 275 CURVE SMOOTH",
"403 131 OFFCURVE",
"357 73 OFFCURVE",
"269 73 CURVE",
"246 220 LINE SMOOTH",
"233 304 OFFCURVE",
"195 325 OFFCURVE",
"141 325 CURVE SMOOTH",
"118 325 OFFCURVE",
"92 321 OFFCURVE",
"68 311 CURVE",
"82 247 LINE",
"92 250 OFFCURVE",
"106 252 OFFCURVE",
"118 252 CURVE SMOOTH",
"145 252 OFFCURVE",
"160 242 OFFCURVE",
"165 210 CURVE SMOOTH",
"198 0 LINE"
);
}
);
width = 563;
},
{
anchors = (
{
name = bottom;
position = "{522, 0}";
},
{
name = top;
position = "{522, 536}";
},
{
name = top2;
position = "{278, 536}";
}
);
layerId = "E5D3352E-10FF-4C03-AD9F-F95B1FD01257";
paths = (
{
closed = 1;
nodes = (
"263 0 LINE SMOOTH",
"444 0 OFFCURVE",
"538 94 OFFCURVE",
"538 280 CURVE SMOOTH",
"538 467 OFFCURVE",
"443 563 OFFCURVE",
"243 563 CURVE SMOOTH",
"167 563 OFFCURVE",
"90 549 OFFCURVE",
"25 521 CURVE",
"25 383 LINE",
"87 409 OFFCURVE",
"160 419 OFFCURVE",
"206 419 CURVE SMOOTH",
"304 419 OFFCURVE",
"346 374 OFFCURVE",
"346 279 CURVE SMOOTH",
"346 229 OFFCURVE",
"334 167 OFFCURVE",
"311 134 CURVE",
"299 210 LINE SMOOTH",
"286 293 OFFCURVE",
"239 337 OFFCURVE",
"162 337 CURVE SMOOTH",
"124 337 OFFCURVE",
"77 326 OFFCURVE",
"39 302 CURVE",
"65 188 LINE",
"77 193 OFFCURVE",
"91 195 OFFCURVE",
"100 195 CURVE SMOOTH",
"119 195 OFFCURVE",
"132 186 OFFCURVE",
"137 159 CURVE SMOOTH",
"168 0 LINE"
);
}
);
width = 577;
},
{
anchors = (
{
name = bottom;
position = "{318, 0}";
},
{
name = top;
position = "{318, 536}";
},
{
name = top2;
position = "{188, 536}";
}
);
layerId = "009F2F33-BFE3-455D-BDCF-6F386AA465CF";
paths = (
{
closed = 1;
nodes = (
"181 0 LINE SMOOTH",
"298 0 OFFCURVE",
"338 90 OFFCURVE",
"338 268 CURVE SMOOTH",
"338 465 OFFCURVE",
"289 556 OFFCURVE",
"166 556 CURVE SMOOTH",
"116 556 OFFCURVE",
"71 541 OFFCURVE",
"43 523 CURVE",
"43 497 LINE",
"78 518 OFFCURVE",
"119 531 OFFCURVE",
"164 531 CURVE SMOOTH",
"272 531 OFFCURVE",
"310 453 OFFCURVE",
"310 272 CURVE SMOOTH",
"310 91 OFFCURVE",
"272 22 OFFCURVE",
"177 22 CURVE",
"155 237 LINE SMOOTH",
"150 285 OFFCURVE",
"134 304 OFFCURVE",
"100 304 CURVE SMOOTH",
"86 304 OFFCURVE",
"74 301 OFFCURVE",
"59 294 CURVE",
"64 272 LINE",
"74 277 OFFCURVE",
"83 279 OFFCURVE",
"92 279 CURVE SMOOTH",
"114 279 OFFCURVE",
"127 267 OFFCURVE",
"131 227 CURVE SMOOTH",
"155 0 LINE"
);
}
);
width = 384;
},
{
anchors = (
{
name = bottom;
position = "{342, 0}";
},
{
name = top;
position = "{342, 536}";
},
{
name = top2;
position = "{188, 536}";
}
);
layerId = "AA55D700-EA4F-438C-81A6-FEFC4FC5520F";
paths = (
{
closed = 1;
nodes = (
"181 0 LINE SMOOTH",
"305 0 OFFCURVE",
"356 102 OFFCURVE",
"356 274 CURVE SMOOTH",
"356 460 OFFCURVE",
"297 558 OFFCURVE",
"170 558 CURVE SMOOTH",
"112 558 OFFCURVE",
"63 538 OFFCURVE",
"28 518 CURVE",
"28 446 LINE",
"68 477 OFFCURVE",
"113 491 OFFCURVE",
"154 491 CURVE SMOOTH",
"239 491 OFFCURVE",
"270 430 OFFCURVE",
"270 269 CURVE SMOOTH",
"270 127 OFFCURVE",
"246 67 OFFCURVE",
"199 67 CURVE",
"184 221 LINE SMOOTH",
"176 301 OFFCURVE",
"148 322 OFFCURVE",
"103 322 CURVE SMOOTH",
"84 322 OFFCURVE",
"60 318 OFFCURVE",
"41 309 CURVE",
"53 250 LINE",
"61 253 OFFCURVE",
"71 255 OFFCURVE",
"79 255 CURVE SMOOTH",
"97 255 OFFCURVE",
"106 244 OFFCURVE",
"110 211 CURVE SMOOTH",
"133 0 LINE"
);
}
);
width = 395;
},
{
anchors = (
{
name = bottom;
position = "{436, 0}";
},
{
name = top;
position = "{436, 536}";
},
{
name = top2;
position = "{239, 536}";
}
);
layerId = "71F2606D-B934-4F95-8EC7-C80FA20C45E9";
paths = (
{
closed = 1;
nodes = (
"226 0 LINE SMOOTH",
"371 0 OFFCURVE",
"449 97 OFFCURVE",
"449 278 CURVE SMOOTH",
"449 465 OFFCURVE",
"371 563 OFFCURVE",
"210 563 CURVE SMOOTH",
"149 563 OFFCURVE",
"87 547 OFFCURVE",
"33 521 CURVE",
"33 400 LINE",
"83 428 OFFCURVE",
"141 439 OFFCURVE",
"181 439 CURVE SMOOTH",
"254 439 OFFCURVE",
"287 390 OFFCURVE",
"287 278 CURVE SMOOTH",
"287 201 OFFCURVE",
"280 140 OFFCURVE",
"267 117 CURVE",
"258 213 LINE SMOOTH",
"250 297 OFFCURVE",
"210 334 OFFCURVE",
"146 334 CURVE SMOOTH",
"114 334 OFFCURVE",
"75 325 OFFCURVE",
"44 305 CURVE",
"65 205 LINE",
"75 209 OFFCURVE",
"86 211 OFFCURVE",
"93 211 CURVE SMOOTH",
"108 211 OFFCURVE",
"118 202 OFFCURVE",
"122 174 CURVE SMOOTH",
"147 0 LINE"
);
}
);
width = 489;
}
);
note = uni0E88;
unicode = 0E88;
},
{
glyphname = "soSang-lao";
lastChange = "2017-06-05 18:40:43 +0000";
layers = (
{
anchors = (
{
name = bottom;
position = "{375, 0}";
},
{
name = top;
position = "{471, 536}";
},
{
name = top2;
position = "{291, 536}";
}
);
layerId = "64BC062E-13E4-450B-B24E-D8A474022433";
paths = (
{
closed = 1;
nodes = (
"479 -147 LINE",
"479 22 LINE SMOOTH",
"479 72 OFFCURVE",
"452 92 OFFCURVE",
"411 92 CURVE SMOOTH",
"331 92 OFFCURVE",
"262 15 OFFCURVE",
"174 15 CURVE SMOOTH",
"122 15 OFFCURVE",
"93 42 OFFCURVE",
"93 97 CURVE SMOOTH",
"93 179 OFFCURVE",
"158 199 OFFCURVE",
"272 233 CURVE SMOOTH",
"390 268 OFFCURVE",
"478 298 OFFCURVE",
"478 402 CURVE SMOOTH",
"478 487 OFFCURVE",
"418 556 OFFCURVE",
"271 556 CURVE SMOOTH",
"120 556 OFFCURVE",
"65 483 OFFCURVE",
"65 410 CURVE SMOOTH",
"65 393 OFFCURVE",
"68 368 OFFCURVE",
"75 355 CURVE",
"100 365 LINE",
"95 377 OFFCURVE",
"93 396 OFFCURVE",
"93 410 CURVE SMOOTH",
"93 493 OFFCURVE",
"168 531 OFFCURVE",
"272 531 CURVE SMOOTH",
"378 531 OFFCURVE",
"450 491 OFFCURVE",
"450 401 CURVE SMOOTH",
"450 317 OFFCURVE",
"388 296 OFFCURVE",
"265 257 CURVE SMOOTH",
"135 216 OFFCURVE",
"65 193 OFFCURVE",
"65 99 CURVE SMOOTH",
"65 20 OFFCURVE",
"116 -10 OFFCURVE",
"176 -10 CURVE SMOOTH",
"271 -10 OFFCURVE",
"337 67 OFFCURVE",
"411 67 CURVE SMOOTH",
"443 67 OFFCURVE",
"453 53 OFFCURVE",
"453 21 CURVE SMOOTH",
"453 -147 LINE"
);
}
);
width = 544;
},
{
anchors = (
{
name = bottom;
position = "{395, 0}";
},
{
name = top;
position = "{523, 536}";
},
{
name = top2;
position = "{320, 536}";
}
);
layerId = "6449CA81-A7C3-4005-93E5-765657812F1B";
paths = (
{
closed = 1;
nodes = (
"542 -174 LINE",
"542 24 LINE SMOOTH",
"542 105 OFFCURVE",
"492 132 OFFCURVE",
"440 132 CURVE SMOOTH",
"354 132 OFFCURVE",
"273 60 OFFCURVE",
"209 60 CURVE SMOOTH",
"173 60 OFFCURVE",
"153 83 OFFCURVE",
"153 111 CURVE SMOOTH",
"153 168 OFFCURVE",
"236 189 OFFCURVE",
"315 213 CURVE SMOOTH",
"422 245 OFFCURVE",
"541 281 OFFCURVE",
"541 392 CURVE SMOOTH",
"541 480 OFFCURVE",
"467 558 OFFCURVE",
"306 558 CURVE SMOOTH",
"142 558 OFFCURVE",
"73 477 OFFCURVE",
"73 393 CURVE SMOOTH",
"73 362 OFFCURVE",
"82 331 OFFCURVE",
"104 312 CURVE",
"174 347 LINE",
"164 359 OFFCURVE",
"157 371 OFFCURVE",
"157 392 CURVE SMOOTH",
"157 456 OFFCURVE",
"225 485 OFFCURVE",
"307 485 CURVE SMOOTH",
"388 485 OFFCURVE",
"456 457 OFFCURVE",
"456 393 CURVE SMOOTH",
"456 329 OFFCURVE",
"386 311 OFFCURVE",
"292 284 CURVE SMOOTH",
"186 253 OFFCURVE",
"68 219 OFFCURVE",
"68 109 CURVE SMOOTH",
"68 27 OFFCURVE",
"134 -10 OFFCURVE",
"205 -10 CURVE SMOOTH",
"302 -10 OFFCURVE",
"369 59 OFFCURVE",
"421 59 CURVE SMOOTH",
"442 59 OFFCURVE",
"455 48 OFFCURVE",
"455 22 CURVE SMOOTH",
"455 -174 LINE"
);
}
);
width = 615;
},
{
anchors = (
{
name = bottom;
position = "{339, 0}";
},
{
name = top;
position = "{545, 536}";
},
{
name = top2;
position = "{316, 536}";
}
);
layerId = "E5D3352E-10FF-4C03-AD9F-F95B1FD01257";
paths = (
{
closed = 1;
nodes = (
"555 -191 LINE",
"555 57 LINE SMOOTH",
"555 139 OFFCURVE",
"528 191 OFFCURVE",
"440 191 CURVE SMOOTH",
"347 191 OFFCURVE",
"264 134 OFFCURVE",
"226 134 CURVE SMOOTH",
"219 134 OFFCURVE",
"213 136 OFFCURVE",
"213 142 CURVE SMOOTH",
"213 159 OFFCURVE",
"270 180 OFFCURVE",
"348 213 CURVE SMOOTH",
"494 275 OFFCURVE",
"555 312 OFFCURVE",
"555 401 CURVE SMOOTH",
"555 494 OFFCURVE",
"488 563 OFFCURVE",
"303 563 CURVE SMOOTH",
"124 563 OFFCURVE",
"35 498 OFFCURVE",
"35 403 CURVE SMOOTH",
"35 349 OFFCURVE",
"64 304 OFFCURVE",
"97 285 CURVE",
"235 355 LINE",
"226 365 OFFCURVE",
"221 375 OFFCURVE",
"221 387 CURVE SMOOTH",
"221 415 OFFCURVE",
"247 431 OFFCURVE",
"299 431 CURVE SMOOTH",
"349 431 OFFCURVE",
"367 416 OFFCURVE",
"367 395 CURVE SMOOTH",
"367 369 OFFCURVE",
"339 361 OFFCURVE",
"220 307 CURVE SMOOTH",
"95 250 OFFCURVE",
"25 210 OFFCURVE",
"25 117 CURVE SMOOTH",
"25 24 OFFCURVE",
"95 -10 OFFCURVE",
"180 -10 CURVE SMOOTH",
"276 -10 OFFCURVE",
"338 33 OFFCURVE",
"376 33 CURVE SMOOTH",
"391 33 OFFCURVE",
"398 26 OFFCURVE",
"398 12 CURVE SMOOTH",
"398 -191 LINE"
);
}
);
width = 595;
},
{
anchors = (
{
name = bottom;
position = "{275, 0}";
},
{
name = top;
position = "{337, 536}";
},
{
name = top2;
position = "{208, 536}";
}
);
layerId = "009F2F33-BFE3-455D-BDCF-6F386AA465CF";
paths = (
{
closed = 1;
nodes = (
"348 -147 LINE",
"348 8 LINE SMOOTH",
"348 62 OFFCURVE",
"325 92 OFFCURVE",
"284 92 CURVE SMOOTH",
"219 92 OFFCURVE",
"192 15 OFFCURVE",
"135 15 CURVE SMOOTH",
"96 15 OFFCURVE",
"70 51 OFFCURVE",
"70 108 CURVE SMOOTH",
"70 189 OFFCURVE",
"124 210 OFFCURVE",
"197 244 CURVE SMOOTH",
"277 281 OFFCURVE",
"343 315 OFFCURVE",
"343 412 CURVE SMOOTH",
"343 491 OFFCURVE",
"299 556 OFFCURVE",
"196 556 CURVE SMOOTH",
"86 556 OFFCURVE",
"47 481 OFFCURVE",
"47 411 CURVE SMOOTH",
"47 392 OFFCURVE",
"50 368 OFFCURVE",
"57 355 CURVE",
"80 365 LINE",
"76 377 OFFCURVE",
"74 395 OFFCURVE",
"74 411 CURVE SMOOTH",
"74 492 OFFCURVE",
"125 531 OFFCURVE",
"196 531 CURVE SMOOTH",
"265 531 OFFCURVE",
"316 495 OFFCURVE",
"316 411 CURVE SMOOTH",
"316 337 OFFCURVE",
"276 310 OFFCURVE",
"189 268 CURVE SMOOTH",
"113 231 OFFCURVE",
"42 206 OFFCURVE",
"42 107 CURVE SMOOTH",
"42 31 OFFCURVE",
"84 -10 OFFCURVE",
"136 -10 CURVE SMOOTH",
"207 -10 OFFCURVE",
"232 69 OFFCURVE",
"281 69 CURVE SMOOTH",
"307 69 OFFCURVE",
"321 47 OFFCURVE",
"321 7 CURVE SMOOTH",
"321 -147 LINE"
);
}
);
width = 391;
},
{
anchors = (
{
name = bottom;
position = "{257, 0}";
},
{
name = top;
position = "{366, 536}";
},
{
name = top2;
position = "{219, 536}";
}
);
layerId = "AA55D700-EA4F-438C-81A6-FEFC4FC5520F";
paths = (
{
closed = 1;
nodes = (
"376 -171 LINE",
"376 24 LINE SMOOTH",
"376 99 OFFCURVE",
"350 127 OFFCURVE",
"308 127 CURVE SMOOTH",
"240 127 OFFCURVE",
"187 54 OFFCURVE",
"150 54 CURVE SMOOTH",
"128 54 OFFCURVE",
"118 78 OFFCURVE",
"118 108 CURVE SMOOTH",
"118 169 OFFCURVE",
"161 188 OFFCURVE",
"226 215 CURVE SMOOTH",
"316 253 OFFCURVE",
"375 285 OFFCURVE",
"375 389 CURVE SMOOTH",
"375 482 OFFCURVE",
"327 558 OFFCURVE",
"211 558 CURVE SMOOTH",
"91 558 OFFCURVE",
"38 477 OFFCURVE",
"38 399 CURVE SMOOTH",
"38 364 OFFCURVE",
"49 338 OFFCURVE",
"67 317 CURVE",
"131 349 LINE",
"125 361 OFFCURVE",
"122 374 OFFCURVE",
"122 394 CURVE SMOOTH",
"122 461 OFFCURVE",
"157 491 OFFCURVE",
"208 491 CURVE SMOOTH",
"258 491 OFFCURVE",
"291 461 OFFCURVE",
"291 394 CURVE SMOOTH",
"291 326 OFFCURVE",
"257 311 OFFCURVE",
"179 280 CURVE SMOOTH",
"103 250 OFFCURVE",
"34 220 OFFCURVE",
"34 113 CURVE SMOOTH",
"34 25 OFFCURVE",
"80 -10 OFFCURVE",
"131 -10 CURVE SMOOTH",
"202 -10 OFFCURVE",
"244 60 OFFCURVE",
"280 60 CURVE SMOOTH",
"294 60 OFFCURVE",
"301 49 OFFCURVE",
"301 22 CURVE SMOOTH",
"301 -171 LINE"
);
}
);
width = 416;
},
{
anchors = (
{
name = bottom;
position = "{282, 0}";
},
{
name = top;
position = "{453, 536}";
},
{
name = top2;
position = "{268, 536}";
}
);
layerId = "71F2606D-B934-4F95-8EC7-C80FA20C45E9";
paths = (
{
closed = 1;
nodes = (
"461 -186 LINE",
"461 47 LINE SMOOTH",
"461 127 OFFCURVE",
"441 174 OFFCURVE",
"369 174 CURVE SMOOTH",
"287 174 OFFCURVE",
"256 113 OFFCURVE",
"214 113 CURVE SMOOTH",
"200 113 OFFCURVE",
"191 120 OFFCURVE",
"191 133 CURVE SMOOTH",
"191 162 OFFCURVE",
"234 183 OFFCURVE",
"296 213 CURVE SMOOTH",
"412 269 OFFCURVE",
"461 302 OFFCURVE",
"461 395 CURVE SMOOTH",
"461 492 OFFCURVE",
"408 563 OFFCURVE",
"260 563 CURVE SMOOTH",
"114 563 OFFCURVE",
"40 493 OFFCURVE",
"40 404 CURVE SMOOTH",
"40 354 OFFCURVE",
"63 315 OFFCURVE",
"93 293 CURVE",
"208 354 LINE",
"201 365 OFFCURVE",
"197 375 OFFCURVE",
"197 391 CURVE SMOOTH",
"197 428 OFFCURVE",
"217 448 OFFCURVE",
"251 448 CURVE SMOOTH",
"282 448 OFFCURVE",
"302 431 OFFCURVE",
"302 395 CURVE SMOOTH",
"302 351 OFFCURVE",
"271 343 OFFCURVE",
"185 300 CURVE SMOOTH",
"81 248 OFFCURVE",
"32 211 OFFCURVE",
"32 120 CURVE SMOOTH",
"32 24 OFFCURVE",
"87 -10 OFFCURVE",
"155 -10 CURVE SMOOTH",
"238 -10 OFFCURVE",
"281 42 OFFCURVE",
"314 42 CURVE SMOOTH",
"326 42 OFFCURVE",
"329 34 OFFCURVE",
"329 16 CURVE SMOOTH",
"329 -186 LINE"
);
}
);
width = 505;
}
);
note = uni0E8A;
unicode = 0E8A;
},
{
glyphname = "nyoNyung-lao";
lastChange = "2017-06-05 18:40:43 +0000";
layers = (
{
anchors = (
{
name = bottom;
position = "{466, 0}";
},
{
name = top;
position = "{476, 536}";
},
{
name = top2;
position = "{311, 536}";
}
);
layerId = "64BC062E-13E4-450B-B24E-D8A474022433";
paths = (
{
closed = 1;
nodes = (
"390 -10 OFFCURVE",
"476 45 OFFCURVE",
"476 175 CURVE SMOOTH",
"476 548 LINE",
"450 548 LINE",
"450 169 LINE SMOOTH",
"450 52 OFFCURVE",
"364 15 OFFCURVE",
"272 15 CURVE SMOOTH",
"178 15 OFFCURVE",
"95 53 OFFCURVE",
"95 154 CURVE SMOOTH",
"95 234 OFFCURVE",
"146 279 OFFCURVE",
"228 279 CURVE SMOOTH",
"267 279 LINE",
"267 301 LINE",
"228 301 LINE SMOOTH",
"167 301 OFFCURVE",
"92 332 OFFCURVE",
"92 422 CURVE SMOOTH",
"92 495 OFFCURVE",
"141 531 OFFCURVE",
"207 531 CURVE SMOOTH",
"236 531 OFFCURVE",
"260 524 OFFCURVE",
"279 520 CURVE",
"284 544 LINE",
"264 551 OFFCURVE",
"233 556 OFFCURVE",
"206 556 CURVE SMOOTH",
"123 556 OFFCURVE",
"65 508 OFFCURVE",
"65 422 CURVE SMOOTH",
"65 338 OFFCURVE",
"120 305 OFFCURVE",
"156 291 CURVE",
"156 287 LINE",
"122 273 OFFCURVE",
"68 243 OFFCURVE",
"68 155 CURVE SMOOTH",
"68 50 OFFCURVE",
"145 -10 OFFCURVE",
"270 -10 CURVE SMOOTH"
);
}
);
width = 561;
},
{
anchors = (
{
name = bottom;
position = "{522, 0}";
},
{
name = top;
position = "{532, 536}";
},
{
name = top2;
position = "{326, 536}";
}
);
layerId = "6449CA81-A7C3-4005-93E5-765657812F1B";
paths = (
{
closed = 1;
nodes = (
"452 -10 OFFCURVE",
"532 50 OFFCURVE",
"532 189 CURVE SMOOTH",
"532 548 LINE",
"444 548 LINE",
"444 179 LINE SMOOTH",
"444 97 OFFCURVE",
"401 63 OFFCURVE",
"303 63 CURVE SMOOTH",
"199 63 OFFCURVE",
"156 102 OFFCURVE",
"156 169 CURVE SMOOTH",
"156 234 OFFCURVE",
"197 263 OFFCURVE",
"275 263 CURVE SMOOTH",
"324 263 LINE",
"324 328 LINE",
"275 328 LINE SMOOTH",
"217 328 OFFCURVE",
"156 344 OFFCURVE",
"156 411 CURVE SMOOTH",
"156 458 OFFCURVE",
"185 485 OFFCURVE",
"240 485 CURVE SMOOTH",
"266 485 OFFCURVE",
"291 479 OFFCURVE",
"306 474 CURVE",
"321 542 LINE",
"301 551 OFFCURVE",
"265 558 OFFCURVE",
"228 558 CURVE SMOOTH",
"113 558 OFFCURVE",
"68 490 OFFCURVE",
"68 420 CURVE SMOOTH",
"68 344 OFFCURVE",
"121 308 OFFCURVE",
"162 296 CURVE",
"162 292 LINE",
"116 285 OFFCURVE",
"68 248 OFFCURVE",
"68 163 CURVE SMOOTH",
"68 54 OFFCURVE",
"147 -10 OFFCURVE",
"302 -10 CURVE SMOOTH"
);
}
);
width = 614;
},
{
anchors = (
{
name = bottom;
position = "{545, 0}";
},
{
name = top;
position = "{555, 536}";
},
{
name = top2;
position = "{323, 536}";
}
);
layerId = "E5D3352E-10FF-4C03-AD9F-F95B1FD01257";
paths = (
{
closed = 1;
nodes = (
"460 -10 OFFCURVE",
"555 53 OFFCURVE",
"555 206 CURVE SMOOTH",
"555 553 LINE",
"363 553 LINE",
"363 195 LINE SMOOTH",
"363 159 OFFCURVE",
"332 134 OFFCURVE",
"285 134 CURVE SMOOTH",
"249 134 OFFCURVE",
"213 148 OFFCURVE",
"213 182 CURVE SMOOTH",
"213 204 OFFCURVE",
"227 225 OFFCURVE",
"261 225 CURVE SMOOTH",
"313 225 LINE",
"313 336 LINE",
"261 336 LINE SMOOTH",
"231 336 OFFCURVE",
"213 351 OFFCURVE",
"213 380 CURVE SMOOTH",
"213 405 OFFCURVE",
"226 419 OFFCURVE",
"253 419 CURVE SMOOTH",
"265 419 OFFCURVE",
"283 416 OFFCURVE",
"296 412 CURVE",
"327 544 LINE",
"292 556 OFFCURVE",
"249 563 OFFCURVE",
"208 563 CURVE SMOOTH",
"76 563 OFFCURVE",
"25 489 OFFCURVE",
"25 412 CURVE SMOOTH",
"25 359 OFFCURVE",
"49 307 OFFCURVE",
"112 280 CURVE",
"112 278 LINE",
"58 258 OFFCURVE",
"25 216 OFFCURVE",
"25 156 CURVE SMOOTH",
"25 57 OFFCURVE",
"117 -10 OFFCURVE",
"291 -10 CURVE SMOOTH"
);
}
);
width = 600;
},
{
anchors = (
{
name = bottom;
position = "{334, 0}";
},
{
name = top;
position = "{341, 536}";
},
{
name = top2;
position = "{220, 536}";
}
);
layerId = "009F2F33-BFE3-455D-BDCF-6F386AA465CF";
paths = (
{
closed = 1;
nodes = (
"282 -10 OFFCURVE",
"341 45 OFFCURVE",
"341 175 CURVE SMOOTH",
"341 548 LINE",
"314 548 LINE",
"314 169 LINE SMOOTH",
"314 52 OFFCURVE",
"260 15 OFFCURVE",
"195 15 CURVE SMOOTH",
"128 15 OFFCURVE",
"75 53 OFFCURVE",
"75 154 CURVE SMOOTH",
"75 234 OFFCURVE",
"109 279 OFFCURVE",
"166 279 CURVE SMOOTH",
"195 279 LINE",
"195 301 LINE",
"166 301 LINE SMOOTH",
"124 301 OFFCURVE",
"73 332 OFFCURVE",
"73 423 CURVE SMOOTH",
"73 495 OFFCURVE",
"105 531 OFFCURVE",
"149 531 CURVE SMOOTH",
"170 531 OFFCURVE",
"189 523 OFFCURVE",
"199 520 CURVE",
"204 544 LINE",
"190 551 OFFCURVE",
"168 556 OFFCURVE",
"147 556 CURVE SMOOTH",
"85 556 OFFCURVE",
"46 508 OFFCURVE",
"46 422 CURVE SMOOTH",
"46 338 OFFCURVE",
"84 305 OFFCURVE",
"110 291 CURVE",
"110 287 LINE",
"85 273 OFFCURVE",
"48 243 OFFCURVE",
"48 155 CURVE SMOOTH",
"48 50 OFFCURVE",
"102 -10 OFFCURVE",
"194 -10 CURVE SMOOTH"
);
}
);
width = 400;
},
{
anchors = (
{
name = bottom;
position = "{365, 0}";
},
{
name = top;
position = "{372, 536}";
},
{
name = top2;
position = "{225, 536}";
}
);
layerId = "AA55D700-EA4F-438C-81A6-FEFC4FC5520F";
paths = (
{
closed = 1;
nodes = (
"311 -10 OFFCURVE",
"373 49 OFFCURVE",
"373 187 CURVE SMOOTH",
"373 548 LINE",
"287 548 LINE",
"287 178 LINE SMOOTH",
"287 90 OFFCURVE",
"254 57 OFFCURVE",
"204 57 CURVE SMOOTH",
"152 57 OFFCURVE",
"119 94 OFFCURVE",
"119 170 CURVE SMOOTH",
"119 232 OFFCURVE",
"141 265 OFFCURVE",
"182 265 CURVE SMOOTH",
"216 265 LINE",
"216 325 LINE",
"182 325 LINE SMOOTH",
"150 325 OFFCURVE",
"119 343 OFFCURVE",
"119 412 CURVE SMOOTH",
"119 463 OFFCURVE",
"136 491 OFFCURVE",
"168 491 CURVE SMOOTH",
"182 491 OFFCURVE",
"198 485 OFFCURVE",
"208 480 CURVE",
"222 542 LINE",
"203 551 OFFCURVE",
"177 558 OFFCURVE",
"150 558 CURVE SMOOTH",
"69 558 OFFCURVE",
"34 494 OFFCURVE",
"34 416 CURVE SMOOTH",
"34 349 OFFCURVE",
"60 308 OFFCURVE",
"97 295 CURVE",
"97 291 LINE",
"65 285 OFFCURVE",
"34 246 OFFCURVE",
"34 165 CURVE SMOOTH",
"34 53 OFFCURVE",
"93 -10 OFFCURVE",
"204 -10 CURVE SMOOTH"
);
}
);
width = 419;
},
{
anchors = (
{
name = bottom;
position = "{453, 0}";
},
{
name = top;
position = "{461, 536}";
},
{
name = top2;
position = "{274, 536}";
}
);
layerId = "71F2606D-B934-4F95-8EC7-C80FA20C45E9";
paths = (
{
closed = 1;
nodes = (
"384 -10 OFFCURVE",
"461 53 OFFCURVE",
"461 202 CURVE SMOOTH",
"461 553 LINE",
"299 553 LINE",
"299 187 LINE SMOOTH",
"299 142 OFFCURVE",
"278 114 OFFCURVE",
"242 114 CURVE SMOOTH",
"209 114 OFFCURVE",
"190 138 OFFCURVE",
"190 181 CURVE SMOOTH",
"190 210 OFFCURVE",
"199 237 OFFCURVE",
"223 237 CURVE SMOOTH",
"267 237 LINE",
"267 334 LINE",
"226 334 LINE SMOOTH",
"203 334 OFFCURVE",
"190 354 OFFCURVE",
"190 385 CURVE SMOOTH",
"190 423 OFFCURVE",
"209 439 OFFCURVE",
"230 439 CURVE SMOOTH",
"237 439 OFFCURVE",
"247 437 OFFCURVE",
"254 433 CURVE",
"278 545 LINE",
"248 556 OFFCURVE",
"213 563 OFFCURVE",
"180 563 CURVE SMOOTH",
"73 563 OFFCURVE",
"32 489 OFFCURVE",
"32 410 CURVE SMOOTH",
"32 357 OFFCURVE",
"51 310 OFFCURVE",
"101 286 CURVE",
"101 284 LINE",
"56 263 OFFCURVE",
"32 214 OFFCURVE",
"32 157 CURVE SMOOTH",
"32 57 OFFCURVE",
"105 -10 OFFCURVE",
"247 -10 CURVE SMOOTH"
);
}
);
width = 509;
}
);
note = uni0E8D;
unicode = 0E8D;
},
{
glyphname = "doDek-lao";
lastChange = "2017-06-05 18:40:43 +0000";
layers = (
{
anchors = (
{
name = bottom;
position = "{507, 0}";
},
{
name = top;
position = "{497, 536}";
},
{
name = top2;
position = "{317, 536}";
}
);
layerId = "64BC062E-13E4-450B-B24E-D8A474022433";
paths = (
{
closed = 1;
nodes = (
"282 -10 OFFCURVE",
"301 -7 OFFCURVE",
"316 -1 CURVE",
"310 22 LINE",
"300 18 OFFCURVE",
"282 15 OFFCURVE",
"260 15 CURVE SMOOTH",
"128 15 OFFCURVE",
"93 127 OFFCURVE",
"93 257 CURVE SMOOTH",
"93 433 OFFCURVE",
"158 531 OFFCURVE",
"306 531 CURVE SMOOTH",
"421 531 OFFCURVE",
"481 472 OFFCURVE",
"481 379 CURVE SMOOTH",
"481 0 LINE",
"507 0 LINE",
"507 382 LINE SMOOTH",
"507 498 OFFCURVE",
"424 556 OFFCURVE",
"305 556 CURVE SMOOTH",
"151 556 OFFCURVE",
"65 460 OFFCURVE",
"65 256 CURVE SMOOTH",
"65 93 OFFCURVE",
"120 -10 OFFCURVE",
"258 -10 CURVE SMOOTH"
);
}
);
width = 592;
},
{
anchors = (
{
name = bottom;
position = "{554, 0}";
},
{
name = top;
position = "{544, 536}";
},
{
name = top2;
position = "{332, 536}";
}
);
layerId = "6449CA81-A7C3-4005-93E5-765657812F1B";
paths = (
{
closed = 1;
nodes = (
"297 -10 OFFCURVE",
"324 -6 OFFCURVE",
"345 2 CURVE",
"334 68 LINE",
"318 63 OFFCURVE",
"301 60 OFFCURVE",
"282 60 CURVE SMOOTH",
"190 60 OFFCURVE",
"148 128 OFFCURVE",
"148 263 CURVE SMOOTH",
"148 411 OFFCURVE",
"198 485 OFFCURVE",
"319 485 CURVE SMOOTH",
"419 485 OFFCURVE",
"466 434 OFFCURVE",
"466 347 CURVE SMOOTH",
"466 0 LINE",
"554 0 LINE",
"554 349 LINE SMOOTH",
"554 485 OFFCURVE",
"462 558 OFFCURVE",
"319 558 CURVE SMOOTH",
"161 558 OFFCURVE",
"60 468 OFFCURVE",
"60 262 CURVE SMOOTH",
"60 100 OFFCURVE",
"122 -10 OFFCURVE",
"269 -10 CURVE SMOOTH"
);
}
);
width = 636;
},
{
anchors = (
{
name = bottom;
position = "{573, 0}";
},
{
name = top;
position = "{563, 536}";
},
{
name = top2;
position = "{313, 536}";
}
);
layerId = "E5D3352E-10FF-4C03-AD9F-F95B1FD01257";
paths = (
{
closed = 1;
nodes = (
"280 -10 OFFCURVE",
"314 -4 OFFCURVE",
"347 9 CURVE",
"324 141 LINE",
"310 136 OFFCURVE",
"292 134 OFFCURVE",
"282 134 CURVE SMOOTH",
"240 134 OFFCURVE",
"217 173 OFFCURVE",
"217 269 CURVE SMOOTH",
"217 399 OFFCURVE",
"259 419 OFFCURVE",
"305 419 CURVE SMOOTH",
"359 419 OFFCURVE",
"381 391 OFFCURVE",
"381 342 CURVE SMOOTH",
"381 0 LINE",
"573 0 LINE",
"573 335 LINE SMOOTH",
"573 484 OFFCURVE",
"480 563 OFFCURVE",
"309 563 CURVE SMOOTH",
"145 563 OFFCURVE",
"25 489 OFFCURVE",
"25 262 CURVE SMOOTH",
"25 108 OFFCURVE",
"80 -10 OFFCURVE",
"243 -10 CURVE SMOOTH"
);
}
);
width = 618;
},
{
anchors = (
{
name = bottom;
position = "{362, 0}";
},
{
name = top;
position = "{355, 536}";
},
{
name = top2;
position = "{224, 536}";
}
);
layerId = "009F2F33-BFE3-455D-BDCF-6F386AA465CF";
paths = (
{
closed = 1;
nodes = (
"200 -10 OFFCURVE",
"214 -7 OFFCURVE",
"225 -1 CURVE",
"221 22 LINE",
"213 18 OFFCURVE",
"200 15 OFFCURVE",
"185 15 CURVE SMOOTH",
"96 15 OFFCURVE",
"72 129 OFFCURVE",
"72 266 CURVE SMOOTH",
"72 455 OFFCURVE",
"121 531 OFFCURVE",
"213 531 CURVE SMOOTH",
"295 531 OFFCURVE",
"335 475 OFFCURVE",
"335 379 CURVE SMOOTH",
"335 0 LINE",
"362 0 LINE",
"362 382 LINE SMOOTH",
"362 491 OFFCURVE",
"311 556 OFFCURVE",
"214 556 CURVE SMOOTH",
"103 556 OFFCURVE",
"45 467 OFFCURVE",
"45 262 CURVE SMOOTH",
"45 91 OFFCURVE",
"84 -10 OFFCURVE",
"183 -10 CURVE SMOOTH"
);
}
);
width = 421;
},
{
anchors = (
{
name = bottom;
position = "{389, 0}";
},
{
name = top;
position = "{382, 536}";
},
{
name = top2;
position = "{226, 536}";
}
);
layerId = "AA55D700-EA4F-438C-81A6-FEFC4FC5520F";
paths = (
{
closed = 1;
nodes = (
"202 -10 OFFCURVE",
"222 -6 OFFCURVE",
"240 2 CURVE",
"229 62 LINE",
"219 57 OFFCURVE",
"207 54 OFFCURVE",
"196 54 CURVE SMOOTH",
"142 54 OFFCURVE",
"119 127 OFFCURVE",
"119 261 CURVE SMOOTH",
"119 418 OFFCURVE",
"151 491 OFFCURVE",
"219 491 CURVE SMOOTH",
"276 491 OFFCURVE",
"303 440 OFFCURVE",
"303 351 CURVE SMOOTH",
"303 0 LINE",
"389 0 LINE",
"389 353 LINE SMOOTH",
"389 487 OFFCURVE",
"325 558 OFFCURVE",
"221 558 CURVE SMOOTH",
"106 558 OFFCURVE",
"33 472 OFFCURVE",
"33 258 CURVE SMOOTH",
"33 100 OFFCURVE",
"73 -10 OFFCURVE",
"181 -10 CURVE SMOOTH"
);
}
);
width = 435;
},
{
anchors = (
{
name = bottom;
position = "{475, 0}";
},
{
name = top;
position = "{467, 536}";
},
{
name = top2;
position = "{264, 536}";
}
);
layerId = "71F2606D-B934-4F95-8EC7-C80FA20C45E9";
paths = (
{
closed = 1;
nodes = (
"236 -10 OFFCURVE",
"265 -5 OFFCURVE",
"293 7 CURVE",
"273 120 LINE",
"262 115 OFFCURVE",
"248 113 OFFCURVE",
"242 113 CURVE SMOOTH",
"211 113 OFFCURVE",
"194 160 OFFCURVE",
"194 263 CURVE SMOOTH",
"194 402 OFFCURVE",
"225 439 OFFCURVE",
"261 439 CURVE SMOOTH",
"296 439 OFFCURVE",
"313 403 OFFCURVE",
"313 343 CURVE SMOOTH",
"313 0 LINE",
"475 0 LINE",
"475 339 LINE SMOOTH",
"475 484 OFFCURVE",
"399 563 OFFCURVE",
"264 563 CURVE SMOOTH",
"129 563 OFFCURVE",
"32 485 OFFCURVE",
"32 258 CURVE SMOOTH",
"32 107 OFFCURVE",
"75 -10 OFFCURVE",
"208 -10 CURVE SMOOTH"
);
}
);
width = 523;
}
);
note = uni0E94;
unicode = 0E94;
},
{
glyphname = "toTa-lao";
lastChange = "2017-06-05 18:40:43 +0000";
layers = (
{
anchors = (
{
name = bottom;
position = "{521, 0}";
},
{
name = top;
position = "{511, 536}";
},
{
name = top2;
position = "{311, 536}";
}
);
layerId = "64BC062E-13E4-450B-B24E-D8A474022433";
paths = (
{
closed = 1;
nodes = (
"289 -10 OFFCURVE",
"313 -5 OFFCURVE",
"326 1 CURVE",
"322 23 LINE",
"307 19 OFFCURVE",
"289 15 OFFCURVE",
"262 15 CURVE SMOOTH",
"130 15 OFFCURVE",
"91 107 OFFCURVE",
"91 282 CURVE SMOOTH",
"91 461 OFFCURVE",
"132 533 OFFCURVE",
"208 533 CURVE SMOOTH",
"253 533 OFFCURVE",
"285 508 OFFCURVE",
"293 460 CURVE",
"315 460 LINE",
"326 504 OFFCURVE",
"347 533 OFFCURVE",
"404 533 CURVE SMOOTH",
"464 533 OFFCURVE",
"495 501 OFFCURVE",
"495 429 CURVE SMOOTH",
"495 0 LINE",
"521 0 LINE",
"521 427 LINE SMOOTH",
"521 511 OFFCURVE",
"483 556 OFFCURVE",
"409 556 CURVE SMOOTH",
"348 556 OFFCURVE",
"318 526 OFFCURVE",
"305 492 CURVE",
"303 492 LINE",
"292 528 OFFCURVE",
"261 556 OFFCURVE",
"206 556 CURVE SMOOTH",
"124 556 OFFCURVE",
"65 492 OFFCURVE",
"65 282 CURVE SMOOTH",
"65 96 OFFCURVE",
"111 -10 OFFCURVE",
"257 -10 CURVE SMOOTH"
);
}
);
width = 606;
},
{
anchors = (
{
name = bottom;
position = "{564, 0}";
},
{
name = top;
position = "{554, 536}";
},
{
name = top2;
position = "{339, 536}";
}
);
layerId = "6449CA81-A7C3-4005-93E5-765657812F1B";
paths = (
{
closed = 1;
nodes = (
"297 -10 OFFCURVE",
"324 -6 OFFCURVE",
"345 2 CURVE",
"334 68 LINE",
"318 63 OFFCURVE",
"301 60 OFFCURVE",
"282 60 CURVE SMOOTH",
"188 60 OFFCURVE",
"148 133 OFFCURVE",
"148 275 CURVE SMOOTH",
"148 421 OFFCURVE",
"190 485 OFFCURVE",
"240 485 CURVE SMOOTH",
"275 485 OFFCURVE",
"292 453 OFFCURVE",
"297 407 CURVE",
"355 407 LINE",
"360 450 OFFCURVE",
"379 485 OFFCURVE",
"418 485 CURVE SMOOTH",
"459 485 OFFCURVE",
"476 446 OFFCURVE",
"476 383 CURVE SMOOTH",
"476 0 LINE",
"564 0 LINE",
"564 390 LINE SMOOTH",
"564 494 OFFCURVE",
"520 558 OFFCURVE",
"435 558 CURVE SMOOTH",
"378 558 OFFCURVE",
"343 530 OFFCURVE",
"328 491 CURVE",
"324 491 LINE",
"310 528 OFFCURVE",
"283 558 OFFCURVE",
"227 558 CURVE SMOOTH",
"134 558 OFFCURVE",
"60 476 OFFCURVE",
"60 279 CURVE SMOOTH",
"60 99 OFFCURVE",
"122 -10 OFFCURVE",
"269 -10 CURVE SMOOTH"
);
}
);
width = 646;
},
{
anchors = (
{
name = bottom;
position = "{592, 0}";
},
{
name = top;
position = "{582, 536}";
},
{
name = top2;
position = "{324, 536}";
}
);
layerId = "E5D3352E-10FF-4C03-AD9F-F95B1FD01257";
paths = (
{
closed = 1;
nodes = (
"281 -10 OFFCURVE",
"314 -4 OFFCURVE",
"347 9 CURVE",
"324 141 LINE",
"310 136 OFFCURVE",
"293 134 OFFCURVE",
"281 134 CURVE SMOOTH",
"235 134 OFFCURVE",
"217 165 OFFCURVE",
"217 286 CURVE SMOOTH",
"217 381 OFFCURVE",
"228 419 OFFCURVE",
"256 419 CURVE SMOOTH",
"271 419 OFFCURVE",
"282 407 OFFCURVE",
"284 381 CURVE",
"349 381 LINE",
"352 407 OFFCURVE",
"361 419 OFFCURVE",
"377 419 CURVE SMOOTH",
"393 419 OFFCURVE",
"400 408 OFFCURVE",
"400 380 CURVE SMOOTH",
"400 0 LINE",
"592 0 LINE",
"592 382 LINE SMOOTH",
"592 494 OFFCURVE",
"553 563 OFFCURVE",
"447 563 CURVE SMOOTH",
"395 563 OFFCURVE",
"345 546 OFFCURVE",
"318 510 CURVE",
"316 510 LINE",
"298 546 OFFCURVE",
"252 563 OFFCURVE",
"207 563 CURVE SMOOTH",
"100 563 OFFCURVE",
"25 467 OFFCURVE",
"25 267 CURVE SMOOTH",
"25 98 OFFCURVE",
"79 -10 OFFCURVE",
"243 -10 CURVE SMOOTH"
);
}
);
width = 637;
},
{
anchors = (
{
name = bottom;
position = "{371, 0}";
},
{
name = top;
position = "{364, 536}";
},
{
name = top2;
position = "{222, 536}";
}
);
layerId = "009F2F33-BFE3-455D-BDCF-6F386AA465CF";
paths = (
{
closed = 1;
nodes = (
"204 -10 OFFCURVE",
"221 -5 OFFCURVE",
"231 1 CURVE",
"227 23 LINE",
"217 19 OFFCURVE",
"204 15 OFFCURVE",
"186 15 CURVE SMOOTH",
"99 15 OFFCURVE",
"72 107 OFFCURVE",
"72 281 CURVE SMOOTH",
"72 462 OFFCURVE",
"101 533 OFFCURVE",
"150 533 CURVE SMOOTH",
"180 533 OFFCURVE",
"200 507 OFFCURVE",
"205 459 CURVE",
"227 459 LINE",
"234 503 OFFCURVE",
"248 533 OFFCURVE",
"285 533 CURVE SMOOTH",
"324 533 OFFCURVE",
"344 501 OFFCURVE",
"344 429 CURVE SMOOTH",
"344 0 LINE",
"371 0 LINE",
"371 427 LINE SMOOTH",
"371 511 OFFCURVE",
"343 556 OFFCURVE",
"290 556 CURVE SMOOTH",
"248 556 OFFCURVE",
"226 526 OFFCURVE",
"217 492 CURVE",
"215 492 LINE",
"207 528 OFFCURVE",
"186 556 OFFCURVE",
"147 556 CURVE SMOOTH",
"88 556 OFFCURVE",
"45 492 OFFCURVE",
"45 282 CURVE SMOOTH",
"45 96 OFFCURVE",
"79 -10 OFFCURVE",
"182 -10 CURVE SMOOTH"
);
}
);
width = 430;
},
{
anchors = (
{
name = bottom;
position = "{399, 0}";
},
{
name = top;
position = "{392, 536}";
},
{
name = top2;
position = "{230, 536}";
}
);
layerId = "AA55D700-EA4F-438C-81A6-FEFC4FC5520F";
paths = (
{
closed = 1;
nodes = (
"202 -10 OFFCURVE",
"223 -6 OFFCURVE",
"241 2 CURVE",
"230 62 LINE",
"220 58 OFFCURVE",
"208 54 OFFCURVE",
"196 54 CURVE SMOOTH",
"140 54 OFFCURVE",
"119 129 OFFCURVE",
"119 278 CURVE SMOOTH",
"119 424 OFFCURVE",
"139 491 OFFCURVE",
"170 491 CURVE SMOOTH",
"190 491 OFFCURVE",
"202 460 OFFCURVE",
"205 414 CURVE",
"243 414 LINE",
"246 457 OFFCURVE",
"257 491 OFFCURVE",
"279 491 CURVE SMOOTH",
"303 491 OFFCURVE",
"313 453 OFFCURVE",
"313 389 CURVE SMOOTH",
"313 0 LINE",
"399 0 LINE",
"399 395 LINE SMOOTH",
"399 496 OFFCURVE",
"370 558 OFFCURVE",
"308 558 CURVE SMOOTH",
"266 558 OFFCURVE",
"239 530 OFFCURVE",
"225 491 CURVE",
"223 491 LINE",
"212 528 OFFCURVE",
"188 558 OFFCURVE",
"148 558 CURVE SMOOTH",
"83 558 OFFCURVE",
"33 477 OFFCURVE",
"33 276 CURVE SMOOTH",
"33 99 OFFCURVE",
"72 -10 OFFCURVE",
"181 -10 CURVE SMOOTH"
);
}
);
width = 445;
},
{
anchors = (
{
name = bottom;
position = "{491, 0}";
},
{
name = top;
position = "{483, 536}";
},
{
name = top2;
position = "{273, 536}";
}
);
layerId = "71F2606D-B934-4F95-8EC7-C80FA20C45E9";
paths = (
{
closed = 1;
nodes = (
"238 -10 OFFCURVE",
"265 -5 OFFCURVE",
"293 7 CURVE",
"273 120 LINE",
"262 115 OFFCURVE",
"249 113 OFFCURVE",
"240 113 CURVE SMOOTH",
"207 113 OFFCURVE",
"194 156 OFFCURVE",
"194 283 CURVE SMOOTH",
"194 394 OFFCURVE",
"200 439 OFFCURVE",
"221 439 CURVE SMOOTH",
"231 439 OFFCURVE",
"240 421 OFFCURVE",
"241 390 CURVE",
"294 390 LINE",
"296 420 OFFCURVE",
"302 439 OFFCURVE",
"313 439 CURVE SMOOTH",
"324 439 OFFCURVE",
"329 420 OFFCURVE",
"329 382 CURVE SMOOTH",
"329 0 LINE",
"491 0 LINE",
"491 385 LINE SMOOTH",
"491 495 OFFCURVE",
"460 563 OFFCURVE",
"373 563 CURVE SMOOTH",
"332 563 OFFCURVE",
"291 542 OFFCURVE",
"268 506 CURVE",
"267 506 LINE",
"252 542 OFFCURVE",
"214 563 OFFCURVE",
"179 563 CURVE SMOOTH",
"92 563 OFFCURVE",
"32 471 OFFCURVE",
"32 270 CURVE SMOOTH",
"32 98 OFFCURVE",
"75 -10 OFFCURVE",
"207 -10 CURVE SMOOTH"
);
}
);
width = 539;
}
);
note = uni0E95;
unicode = 0E95;
},
{
glyphname = "thoThong-lao";
lastChange = "2017-06-05 18:40:43 +0000";
layers = (
{
anchors = (
{
name = bottom;
position = "{422, 0}";
},
{
name = top;
position = "{492, 536}";
},
{
name = top2;
position = "{324, 536}";
}
);
layerId = "64BC062E-13E4-450B-B24E-D8A474022433";
paths = (
{
closed = 1;
nodes = (
"502 -147 LINE",
"502 365 LINE SMOOTH",
"502 498 OFFCURVE",
"440 556 OFFCURVE",
"339 556 CURVE SMOOTH",
"233 556 OFFCURVE",
"167 492 OFFCURVE",
"135 427 CURVE",
"134 427 LINE",
"124 480 OFFCURVE",
"110 519 OFFCURVE",
"85 556 CURVE",
"65 543 LINE",
"91 505 OFFCURVE",
"113 449 OFFCURVE",
"113 391 CURVE SMOOTH",
"113 89 LINE SMOOTH",
"113 19 OFFCURVE",
"141 -10 OFFCURVE",
"190 -10 CURVE SMOOTH",
"206 -10 OFFCURVE",
"222 -7 OFFCURVE",
"235 -2 CURVE",
"230 22 LINE",
"217 18 OFFCURVE",
"207 15 OFFCURVE",
"192 15 CURVE SMOOTH",
"157 15 OFFCURVE",
"139 30 OFFCURVE",
"139 85 CURVE SMOOTH",
"139 359 LINE SMOOTH",
"139 425 OFFCURVE",
"213 531 OFFCURVE",
"342 531 CURVE SMOOTH",
"450 531 OFFCURVE",
"476 456 OFFCURVE",
"476 366 CURVE SMOOTH",
"476 -147 LINE"
);
}
);
width = 587;
},
{
anchors = (
{
name = bottom;
position = "{390, 0}";
},
{
name = top;
position = "{527, 536}";
},
{
name = top2;
position = "{335, 536}";
}
);
layerId = "6449CA81-A7C3-4005-93E5-765657812F1B";
paths = (
{
closed = 1;
nodes = (
"537 -174 LINE",
"537 353 LINE SMOOTH",
"537 489 OFFCURVE",
"461 558 OFFCURVE",
"341 558 CURVE SMOOTH",
"281 558 OFFCURVE",
"220 541 OFFCURVE",
"172 477 CURVE",
"169 477 LINE",
"157 508 OFFCURVE",
"134 542 OFFCURVE",
"116 558 CURVE",
"52 509 LINE",
"80 482 OFFCURVE",
"107 439 OFFCURVE",
"107 366 CURVE SMOOTH",
"107 106 LINE SMOOTH",
"107 32 OFFCURVE",
"146 -10 OFFCURVE",
"212 -10 CURVE SMOOTH",
"235 -10 OFFCURVE",
"260 -5 OFFCURVE",
"283 4 CURVE",
"270 66 LINE",
"258 62 OFFCURVE",
"246 60 OFFCURVE",
"235 60 CURVE SMOOTH",
"207 60 OFFCURVE",
"195 73 OFFCURVE",
"195 102 CURVE SMOOTH",
"195 357 LINE SMOOTH",
"195 459 OFFCURVE",
"262 485 OFFCURVE",
"322 485 CURVE SMOOTH",
"407 485 OFFCURVE",
"449 434 OFFCURVE",
"449 347 CURVE SMOOTH",
"449 -174 LINE"
);
}
);
width = 619;
},
{
anchors = (
{
name = bottom;
position = "{342, 0}";
},
{
name = top;
position = "{570, 536}";
},
{
name = top2;
position = "{338, 536}";
}
);
layerId = "E5D3352E-10FF-4C03-AD9F-F95B1FD01257";
paths = (
{
closed = 1;
nodes = (
"580 -191 LINE",
"580 371 LINE SMOOTH",
"580 478 OFFCURVE",
"517 563 OFFCURVE",
"385 563 CURVE SMOOTH",
"306 563 OFFCURVE",
"240 533 OFFCURVE",
"202 488 CURVE",
"199 488 LINE",
"191 511 OFFCURVE",
"153 548 OFFCURVE",
"124 563 CURVE",
"5 459 LINE",
"58 414 OFFCURVE",
"74 379 OFFCURVE",
"74 309 CURVE SMOOTH",
"74 139 LINE SMOOTH",
"74 43 OFFCURVE",
"125 -10 OFFCURVE",
"216 -10 CURVE SMOOTH",
"259 -10 OFFCURVE",
"317 2 OFFCURVE",
"355 19 CURVE",
"328 141 LINE",
"318 137 OFFCURVE",
"307 134 OFFCURVE",
"296 134 CURVE SMOOTH",
"274 134 OFFCURVE",
"266 145 OFFCURVE",
"266 164 CURVE SMOOTH",
"266 351 LINE SMOOTH",
"266 399 OFFCURVE",
"297 419 OFFCURVE",
"330 419 CURVE SMOOTH",
"365 419 OFFCURVE",
"388 397 OFFCURVE",
"388 351 CURVE SMOOTH",
"388 -191 LINE"
);
}
);
width = 625;
},
{
anchors = (
{
name = bottom;
position = "{291, 0}";
},
{
name = top;
position = "{350, 536}";
},
{
name = top2;
position = "{229, 536}";
}
);
layerId = "009F2F33-BFE3-455D-BDCF-6F386AA465CF";
paths = (
{
closed = 1;
nodes = (
"357 -147 LINE",
"357 365 LINE SMOOTH",
"357 494 OFFCURVE",
"316 556 OFFCURVE",
"235 556 CURVE SMOOTH",
"167 556 OFFCURVE",
"125 511 OFFCURVE",
"100 446 CURVE",
"99 446 LINE",
"94 499 OFFCURVE",
"83 527 OFFCURVE",
"65 556 CURVE",
"44 543 LINE",
"63 505 OFFCURVE",
"78 468 OFFCURVE",
"78 410 CURVE SMOOTH",
"78 89 LINE SMOOTH",
"78 19 OFFCURVE",
"100 -10 OFFCURVE",
"137 -10 CURVE SMOOTH",
"149 -10 OFFCURVE",
"161 -7 OFFCURVE",
"171 -2 CURVE",
"167 22 LINE",
"158 18 OFFCURVE",
"151 15 OFFCURVE",
"141 15 CURVE SMOOTH",
"117 15 OFFCURVE",
"105 30 OFFCURVE",
"105 85 CURVE SMOOTH",
"105 378 LINE SMOOTH",
"105 444 OFFCURVE",
"154 531 OFFCURVE",
"235 531 CURVE SMOOTH",
"310 531 OFFCURVE",
"330 455 OFFCURVE",
"330 366 CURVE SMOOTH",
"330 -147 LINE"
);
}
);
width = 416;
},
{
anchors = (
{
name = bottom;
position = "{263, 0}";
},
{
name = top;
position = "{378, 536}";
},
{
name = top2;
position = "{234, 536}";
}
);
layerId = "AA55D700-EA4F-438C-81A6-FEFC4FC5520F";
paths = (
{
closed = 1;
nodes = (
"391 -171 LINE",
"391 360 LINE SMOOTH",
"391 495 OFFCURVE",
"351 558 OFFCURVE",
"255 558 CURVE SMOOTH",
"200 558 OFFCURVE",
"157 537 OFFCURVE",
"129 479 CURVE",
"127 479 LINE",
"119 513 OFFCURVE",
"102 539 OFFCURVE",
"87 558 CURVE",
"24 513 LINE",
"51 485 OFFCURVE",
"66 440 OFFCURVE",
"66 369 CURVE SMOOTH",
"66 104 LINE SMOOTH",
"66 30 OFFCURVE",
"95 -10 OFFCURVE",
"149 -10 CURVE SMOOTH",
"168 -10 OFFCURVE",
"195 -5 OFFCURVE",
"215 3 CURVE",
"202 61 LINE",
"194 57 OFFCURVE",
"187 54 OFFCURVE",
"178 54 CURVE SMOOTH",
"160 54 OFFCURVE",
"152 68 OFFCURVE",
"152 100 CURVE SMOOTH",
"152 357 LINE SMOOTH",
"152 453 OFFCURVE",
"190 491 OFFCURVE",
"236 491 CURVE SMOOTH",
"290 491 OFFCURVE",
"305 439 OFFCURVE",
"305 354 CURVE SMOOTH",
"305 -171 LINE"
);
}
);
width = 439;
},
{
anchors = (
{
name = bottom;
position = "{285, 0}";
},
{
name = top;
position = "{481, 536}";
},
{
name = top2;
position = "{285, 536}";
}
);
layerId = "71F2606D-B934-4F95-8EC7-C80FA20C45E9";
paths = (
{
closed = 1;
nodes = (
"488 -186 LINE",
"488 367 LINE SMOOTH",
"488 482 OFFCURVE",
"439 563 OFFCURVE",
"329 563 CURVE SMOOTH",
"265 563 OFFCURVE",
"208 536 OFFCURVE",
"179 486 CURVE",
"176 486 LINE",
"169 514 OFFCURVE",
"153 542 OFFCURVE",
"132 563 CURVE",
"15 474 LINE",
"59 435 OFFCURVE",
"71 397 OFFCURVE",
"71 326 CURVE SMOOTH",
"71 129 LINE SMOOTH",
"71 40 OFFCURVE",
"113 -10 OFFCURVE",
"188 -10 CURVE SMOOTH",
"224 -10 OFFCURVE",
"273 0 OFFCURVE",
"305 15 CURVE",
"282 119 LINE",
"274 115 OFFCURVE",
"265 113 OFFCURVE",
"257 113 CURVE SMOOTH",
"239 113 OFFCURVE",
"233 124 OFFCURVE",
"233 146 CURVE SMOOTH",
"233 354 LINE SMOOTH",
"233 417 OFFCURVE",
"258 439 OFFCURVE",
"282 439 CURVE SMOOTH",
"309 439 OFFCURVE",
"326 409 OFFCURVE",
"326 351 CURVE SMOOTH",
"326 -186 LINE"
);
}
);
width = 536;
}
);
note = uni0E96;
unicode = 0E96;
},
{
glyphname = "thoThung-lao";
lastChange = "2017-06-05 18:40:43 +0000";
layers = (
{
anchors = (
{
name = bottom;
position = "{589, 0}";
},
{
name = top;
position = "{579, 536}";
},
{
name = top2;
position = "{377, 536}";
}
);
layerId = "64BC062E-13E4-450B-B24E-D8A474022433";
paths = (
{
closed = 1;
nodes = (
"310 -10 OFFCURVE",
"350 53 OFFCURVE",
"350 142 CURVE SMOOTH",
"350 402 LINE SMOOTH",
"350 489 OFFCURVE",
"384 534 OFFCURVE",
"457 534 CURVE SMOOTH",
"530 534 OFFCURVE",
"563 489 OFFCURVE",
"563 403 CURVE SMOOTH",
"563 0 LINE",
"589 0 LINE",
"589 404 LINE SMOOTH",
"589 493 OFFCURVE",
"550 556 OFFCURVE",
"457 556 CURVE SMOOTH",
"364 556 OFFCURVE",
"324 493 OFFCURVE",
"324 404 CURVE SMOOTH",
"324 143 LINE SMOOTH",
"324 57 OFFCURVE",
"290 12 OFFCURVE",
"217 12 CURVE SMOOTH",
"144 12 OFFCURVE",
"111 57 OFFCURVE",
"111 143 CURVE SMOOTH",
"111 548 LINE",
"85 548 LINE",
"85 142 LINE SMOOTH",
"85 53 OFFCURVE",
"124 -10 OFFCURVE",
"217 -10 CURVE SMOOTH"
);
}
);
width = 674;
},
{
anchors = (
{
name = bottom;
position = "{644, 0}";
},
{
name = top;
position = "{634, 536}";
},
{
name = top2;
position = "{374, 536}";
}
);
layerId = "6449CA81-A7C3-4005-93E5-765657812F1B";
paths = (
{
closed = 1;
nodes = (
"360 -10 OFFCURVE",
"404 63 OFFCURVE",
"404 168 CURVE SMOOTH",
"404 383 LINE SMOOTH",
"404 447 OFFCURVE",
"422 485 OFFCURVE",
"480 485 CURVE SMOOTH",
"537 485 OFFCURVE",
"556 447 OFFCURVE",
"556 383 CURVE SMOOTH",
"556 0 LINE",
"644 0 LINE",
"644 380 LINE SMOOTH",
"644 485 OFFCURVE",
"599 558 OFFCURVE",
"480 558 CURVE SMOOTH",
"361 558 OFFCURVE",
"318 485 OFFCURVE",
"318 380 CURVE SMOOTH",
"318 165 LINE SMOOTH",
"318 101 OFFCURVE",
"299 63 OFFCURVE",
"242 63 CURVE SMOOTH",
"184 63 OFFCURVE",
"166 101 OFFCURVE",
"166 165 CURVE SMOOTH",
"166 548 LINE",
"78 548 LINE",
"78 168 LINE SMOOTH",
"78 63 OFFCURVE",
"123 -10 OFFCURVE",
"242 -10 CURVE SMOOTH"
);
}
);
width = 726;
},
{
anchors = (
{
name = bottom;
position = "{678, 0}";
},
{
name = top;
position = "{668, 536}";
},
{
name = top2;
position = "{407, 536}";
}
);
layerId = "E5D3352E-10FF-4C03-AD9F-F95B1FD01257";
paths = (
{
closed = 1;
nodes = (
"397 -10 OFFCURVE",
"444 67 OFFCURVE",
"444 181 CURVE SMOOTH",
"444 390 LINE SMOOTH",
"444 410 OFFCURVE",
"457 419 OFFCURVE",
"469 419 CURVE SMOOTH",
"481 419 OFFCURVE",
"494 410 OFFCURVE",
"494 390 CURVE SMOOTH",
"494 0 LINE",
"678 0 LINE",
"678 372 LINE SMOOTH",
"678 486 OFFCURVE",
"617 563 OFFCURVE",
"471 563 CURVE SMOOTH",
"325 563 OFFCURVE",
"279 486 OFFCURVE",
"279 372 CURVE SMOOTH",
"279 163 LINE SMOOTH",
"279 143 OFFCURVE",
"266 134 OFFCURVE",
"254 134 CURVE SMOOTH",
"242 134 OFFCURVE",
"229 143 OFFCURVE",
"229 163 CURVE SMOOTH",
"229 553 LINE",
"45 553 LINE",
"45 181 LINE SMOOTH",
"45 67 OFFCURVE",
"106 -10 OFFCURVE",
"251 -10 CURVE SMOOTH"
);
}
);
width = 723;
},
{
anchors = (
{
name = bottom;
position = "{420, 0}";
},
{
name = top;
position = "{413, 536}";
},
{
name = top2;
position = "{264, 536}";
}
);
layerId = "009F2F33-BFE3-455D-BDCF-6F386AA465CF";
paths = (
{
closed = 1;
nodes = (
"221 -10 OFFCURVE",
"253 40 OFFCURVE",
"253 142 CURVE SMOOTH",
"253 402 LINE SMOOTH",
"253 490 OFFCURVE",
"276 534 OFFCURVE",
"324 534 CURVE SMOOTH",
"370 534 OFFCURVE",
"393 492 OFFCURVE",
"393 403 CURVE SMOOTH",
"393 0 LINE",
"420 0 LINE",
"420 404 LINE SMOOTH",
"420 507 OFFCURVE",
"388 556 OFFCURVE",
"324 556 CURVE SMOOTH",
"258 556 OFFCURVE",
"226 505 OFFCURVE",
"226 404 CURVE SMOOTH",
"226 143 LINE SMOOTH",
"226 55 OFFCURVE",
"203 12 OFFCURVE",
"156 12 CURVE SMOOTH",
"109 12 OFFCURVE",
"86 55 OFFCURVE",
"86 143 CURVE SMOOTH",
"86 548 LINE",
"59 548 LINE",
"59 142 LINE SMOOTH",
"59 40 OFFCURVE",
"91 -10 OFFCURVE",
"156 -10 CURVE SMOOTH"
);
}
);
width = 479;
},
{
anchors = (
{
name = bottom;
position = "{454, 0}";
},
{
name = top;
position = "{447, 536}";
},
{
name = top2;
position = "{272, 536}";
}
);
layerId = "AA55D700-EA4F-438C-81A6-FEFC4FC5520F";
paths = (
{
closed = 1;
nodes = (
"249 -10 OFFCURVE",
"288 40 OFFCURVE",
"288 152 CURVE SMOOTH",
"288 401 LINE SMOOTH",
"288 465 OFFCURVE",
"301 491 OFFCURVE",
"329 491 CURVE SMOOTH",
"357 491 OFFCURVE",
"371 466 OFFCURVE",
"371 402 CURVE SMOOTH",
"371 0 LINE",
"454 0 LINE",
"454 396 LINE SMOOTH",
"454 506 OFFCURVE",
"413 558 OFFCURVE",
"331 558 CURVE SMOOTH",
"250 558 OFFCURVE",
"211 508 OFFCURVE",
"211 396 CURVE SMOOTH",
"211 146 LINE SMOOTH",
"211 82 OFFCURVE",
"198 57 OFFCURVE",
"170 57 CURVE SMOOTH",
"142 57 OFFCURVE",
"128 82 OFFCURVE",
"128 146 CURVE SMOOTH",
"128 548 LINE",
"45 548 LINE",
"45 152 LINE SMOOTH",
"45 42 OFFCURVE",
"86 -10 OFFCURVE",
"168 -10 CURVE SMOOTH"
);
}
);
width = 500;
},
{
anchors = (
{
name = bottom;
position = "{560, 0}";
},
{
name = top;
position = "{552, 536}";
},
{
name = top2;
position = "{343, 536}";
}
);
layerId = "71F2606D-B934-4F95-8EC7-C80FA20C45E9";
paths = (
{
closed = 1;
nodes = (
"327 -10 OFFCURVE",
"379 45 OFFCURVE",
"379 171 CURVE SMOOTH",
"379 395 LINE SMOOTH",
"379 422 OFFCURVE",
"387 438 OFFCURVE",
"399 438 CURVE SMOOTH",
"412 438 OFFCURVE",
"419 422 OFFCURVE",
"419 395 CURVE SMOOTH",
"419 0 LINE",
"572 0 LINE",
"572 375 LINE SMOOTH",
"572 494 OFFCURVE",
"508 563 OFFCURVE",
"403 563 CURVE SMOOTH",
"301 563 OFFCURVE",
"241 499 OFFCURVE",
"241 380 CURVE SMOOTH",
"241 154 LINE SMOOTH",
"241 129 OFFCURVE",
"233 114 OFFCURVE",
"221 114 CURVE SMOOTH",
"209 114 OFFCURVE",
"201 129 OFFCURVE",
"201 154 CURVE SMOOTH",
"201 553 LINE",
"48 553 LINE",
"48 177 LINE SMOOTH",
"48 50 OFFCURVE",
"107 -10 OFFCURVE",
"219 -10 CURVE SMOOTH"
);
}
);
width = 620;
}
);
note = uni0E97;
unicode = 0E97;
},
{
glyphname = "noNok-lao";
lastChange = "2017-06-05 18:40:43 +0000";
layers = (
{
anchors = (
{
name = bottom;
position = "{499, 0}";
},
{
name = top;
position = "{509, 536}";
},
{
name = top2;
position = "{320, 536}";
}
);
layerId = "64BC062E-13E4-450B-B24E-D8A474022433";
paths = (
{
closed = 1;
nodes = (
"132 27 OFFCURVE",
"147 61 OFFCURVE",
"154 111 CURVE",
"156 111 LINE",
"187 36 OFFCURVE",
"246 -10 OFFCURVE",
"339 -10 CURVE SMOOTH",
"445 -10 OFFCURVE",
"509 50 OFFCURVE",
"509 169 CURVE SMOOTH",
"509 548 LINE",
"483 548 LINE",
"483 170 LINE SMOOTH",
"483 70 OFFCURVE",
"438 12 OFFCURVE",
"342 12 CURVE SMOOTH",
"224 12 OFFCURVE",
"161 98 OFFCURVE",
"161 206 CURVE SMOOTH",
"161 485 LINE SMOOTH",
"161 534 OFFCURVE",
"142 556 OFFCURVE",
"100 556 CURVE SMOOTH",
"78 556 OFFCURVE",
"57 550 OFFCURVE",
"40 542 CURVE",
"45 518 LINE",
"61 525 OFFCURVE",
"78 531 OFFCURVE",
"97 531 CURVE SMOOTH",
"125 531 OFFCURVE",
"135 519 OFFCURVE",
"135 485 CURVE SMOOTH",
"135 155 LINE SMOOTH",
"135 97 OFFCURVE",
"113 41 OFFCURVE",
"87 3 CURVE",
"107 -10 LINE"
);
}
);
width = 594;
},
{
anchors = (
{
name = bottom;
position = "{522, 0}";
},
{
name = top;
position = "{532, 536}";
},
{
name = top2;
position = "{307, 536}";
}
);
layerId = "6449CA81-A7C3-4005-93E5-765657812F1B";
paths = (
{
closed = 1;
nodes = (
"134 5 OFFCURVE",
"157 40 OFFCURVE",
"169 71 CURVE",
"172 71 LINE",
"213 14 OFFCURVE",
"267 -10 OFFCURVE",
"336 -10 CURVE SMOOTH",
"460 -10 OFFCURVE",
"532 67 OFFCURVE",
"532 200 CURVE SMOOTH",
"532 548 LINE",
"444 548 LINE",
"444 201 LINE SMOOTH",
"444 114 OFFCURVE",
"400 63 OFFCURVE",
"320 63 CURVE SMOOTH",
"243 63 OFFCURVE",
"195 111 OFFCURVE",
"195 191 CURVE SMOOTH",
"195 442 LINE SMOOTH",
"195 516 OFFCURVE",
"163 558 OFFCURVE",
"96 558 CURVE SMOOTH",
"72 558 OFFCURVE",
"44 553 OFFCURVE",
"20 544 CURVE",
"33 482 LINE",
"44 485 OFFCURVE",
"56 488 OFFCURVE",
"68 488 CURVE SMOOTH",
"95 488 OFFCURVE",
"107 475 OFFCURVE",
"107 445 CURVE SMOOTH",
"107 182 LINE SMOOTH",
"107 109 OFFCURVE",
"80 65 OFFCURVE",
"52 39 CURVE",
"116 -10 LINE"
);
}
);
width = 614;
},
{
anchors = (
{
name = bottom;
position = "{571, 0}";
},
{
name = top;
position = "{581, 536}";
},
{
name = top2;
position = "{324, 536}";
}
);
layerId = "E5D3352E-10FF-4C03-AD9F-F95B1FD01257";
paths = (
{
closed = 1;
nodes = (
"188 13 OFFCURVE",
"208 38 OFFCURVE",
"218 65 CURVE",
"221 65 LINE",
"259 20 OFFCURVE",
"311 -10 OFFCURVE",
"388 -10 CURVE SMOOTH",
"522 -10 OFFCURVE",
"581 80 OFFCURVE",
"581 189 CURVE SMOOTH",
"581 553 LINE",
"389 553 LINE",
"389 204 LINE SMOOTH",
"389 161 OFFCURVE",
"369 134 OFFCURVE",
"336 134 CURVE SMOOTH",
"304 134 OFFCURVE",
"285 158 OFFCURVE",
"285 202 CURVE SMOOTH",
"285 420 LINE SMOOTH",
"285 517 OFFCURVE",
"242 563 OFFCURVE",
"149 563 CURVE SMOOTH",
"106 563 OFFCURVE",
"43 553 OFFCURVE",
"5 533 CURVE",
"32 411 LINE",
"42 415 OFFCURVE",
"54 419 OFFCURVE",
"67 419 CURVE SMOOTH",
"86 419 OFFCURVE",
"93 411 OFFCURVE",
"93 393 CURVE SMOOTH",
"93 244 LINE SMOOTH",
"93 174 OFFCURVE",
"77 139 OFFCURVE",
"24 94 CURVE",
"163 -10 LINE"
);
}
);
width = 626;
},
{
anchors = (
{
name = bottom;
position = "{352, 0}";
},
{
name = top;
position = "{359, 536}";
},
{
name = top2;
position = "{222, 536}";
}
);
layerId = "009F2F33-BFE3-455D-BDCF-6F386AA465CF";
paths = (
{
closed = 1;
nodes = (
"93 27 OFFCURVE",
"102 51 OFFCURVE",
"109 91 CURVE",
"110 91 LINE",
"131 21 OFFCURVE",
"178 -10 OFFCURVE",
"235 -10 CURVE SMOOTH",
"314 -10 OFFCURVE",
"359 49 OFFCURVE",
"359 169 CURVE SMOOTH",
"359 548 LINE",
"332 548 LINE",
"332 170 LINE SMOOTH",
"332 71 OFFCURVE",
"303 12 OFFCURVE",
"234 12 CURVE SMOOTH",
"161 12 OFFCURVE",
"117 77 OFFCURVE",
"117 186 CURVE SMOOTH",
"117 485 LINE SMOOTH",
"117 533 OFFCURVE",
"102 556 OFFCURVE",
"70 556 CURVE SMOOTH",
"54 556 OFFCURVE",
"38 550 OFFCURVE",
"25 542 CURVE",
"30 518 LINE",
"40 525 OFFCURVE",
"51 531 OFFCURVE",
"64 531 CURVE SMOOTH",
"83 531 OFFCURVE",
"90 519 OFFCURVE",
"90 485 CURVE SMOOTH",
"90 155 LINE SMOOTH",
"90 97 OFFCURVE",
"74 41 OFFCURVE",
"56 3 CURVE",
"76 -10 LINE"
);
}
);
width = 418;
},
{
anchors = (
{
name = bottom;
position = "{378, 0}";
},
{
name = top;
position = "{385, 536}";
},
{
name = top2;
position = "{222, 536}";
}
);
layerId = "AA55D700-EA4F-438C-81A6-FEFC4FC5520F";
paths = (
{
closed = 1;
nodes = (
"110 8 OFFCURVE",
"123 34 OFFCURVE",
"131 67 CURVE",
"133 67 LINE",
"158 9 OFFCURVE",
"200 -10 OFFCURVE",
"247 -10 CURVE SMOOTH",
"341 -10 OFFCURVE",
"385 64 OFFCURVE",
"385 196 CURVE SMOOTH",
"385 548 LINE",
"299 548 LINE",
"299 197 LINE SMOOTH",
"299 108 OFFCURVE",
"276 57 OFFCURVE",
"231 57 CURVE SMOOTH",
"186 57 OFFCURVE",
"160 110 OFFCURVE",
"160 193 CURVE SMOOTH",
"160 447 LINE SMOOTH",
"160 519 OFFCURVE",
"136 558 OFFCURVE",
"82 558 CURVE SMOOTH",
"63 558 OFFCURVE",
"32 553 OFFCURVE",
"12 544 CURVE",
"24 487 LINE",
"32 490 OFFCURVE",
"41 493 OFFCURVE",
"50 493 CURVE SMOOTH",
"68 493 OFFCURVE",
"74 482 OFFCURVE",
"74 450 CURVE SMOOTH",
"74 179 LINE SMOOTH",
"74 108 OFFCURVE",
"59 62 OFFCURVE",
"32 35 CURVE",
"95 -10 LINE"
);
}
);
width = 431;
},
{
anchors = (
{
name = bottom;
position = "{476, 0}";
},
{
name = top;
position = "{484, 536}";
},
{
name = top2;
position = "{276, 536}";
}
);
layerId = "71F2606D-B934-4F95-8EC7-C80FA20C45E9";
paths = (
{
closed = 1;
nodes = (
"170 11 OFFCURVE",
"186 39 OFFCURVE",
"194 67 CURVE",
"196 67 LINE",
"226 18 OFFCURVE",
"268 -10 OFFCURVE",
"330 -10 CURVE SMOOTH",
"438 -10 OFFCURVE",
"484 76 OFFCURVE",
"484 192 CURVE SMOOTH",
"484 552 LINE",
"322 552 LINE",
"322 203 LINE SMOOTH",
"322 145 OFFCURVE",
"311 114 OFFCURVE",
"284 114 CURVE SMOOTH",
"261 114 OFFCURVE",
"250 142 OFFCURVE",
"250 199 CURVE SMOOTH",
"250 426 LINE SMOOTH",
"250 517 OFFCURVE",
"215 562 OFFCURVE",
"139 562 CURVE SMOOTH",
"103 562 OFFCURVE",
"50 553 OFFCURVE",
"18 536 CURVE",
"41 431 LINE",
"49 435 OFFCURVE",
"58 439 OFFCURVE",
"69 439 CURVE SMOOTH",
"83 439 OFFCURVE",
"88 429 OFFCURVE",
"88 408 CURVE SMOOTH",
"88 226 LINE SMOOTH",
"88 155 OFFCURVE",
"77 118 OFFCURVE",
"32 78 CURVE",
"149 -10 LINE"
);
}
);
width = 532;
}
);
note = uni0E99;
unicode = 0E99;
},
{
glyphname = "boBae-lao";
lastChange = "2017-06-05 18:40:43 +0000";
layers = (
{
anchors = (
{
name = bottom;
position = "{483, 0}";
},
{
name = top;
position = "{493, 536}";
},
{
name = top2;
position = "{289, 536}";
}
);
layerId = "64BC062E-13E4-450B-B24E-D8A474022433";
paths = (
{
closed = 1;
nodes = (
"429 -10 OFFCURVE",
"493 67 OFFCURVE",
"493 174 CURVE SMOOTH",
"493 548 LINE",
"467 548 LINE",
"467 174 LINE SMOOTH",
"467 73 OFFCURVE",
"407 15 OFFCURVE",
"289 15 CURVE SMOOTH",
"171 15 OFFCURVE",
"111 73 OFFCURVE",
"111 174 CURVE SMOOTH",
"111 548 LINE",
"85 548 LINE",
"85 174 LINE SMOOTH",
"85 67 OFFCURVE",
"149 -10 OFFCURVE",
"289 -10 CURVE SMOOTH"
);
}
);
width = 578;
},
{
anchors = (
{
name = bottom;
position = "{522, 0}";
},
{
name = top;
position = "{532, 536}";
},
{
name = top2;
position = "{306, 536}";
}
);
layerId = "6449CA81-A7C3-4005-93E5-765657812F1B";
paths = (
{
closed = 1;
nodes = (
"466 -10 OFFCURVE",
"532 72 OFFCURVE",
"532 208 CURVE SMOOTH",
"532 548 LINE",
"444 548 LINE",
"444 201 LINE SMOOTH",
"444 114 OFFCURVE",
"404 63 OFFCURVE",
"305 63 CURVE SMOOTH",
"207 63 OFFCURVE",
"166 114 OFFCURVE",
"166 201 CURVE SMOOTH",
"166 548 LINE",
"78 548 LINE",
"78 208 LINE SMOOTH",
"78 72 OFFCURVE",
"144 -10 OFFCURVE",
"305 -10 CURVE SMOOTH"
);
}
);
width = 614;
},
{
anchors = (
{
name = bottom;
position = "{549, 0}";
},
{
name = top;
position = "{559, 536}";
},
{
name = top2;
position = "{302, 536}";
}
);
layerId = "E5D3352E-10FF-4C03-AD9F-F95B1FD01257";
paths = (
{
closed = 1;
nodes = (
"471 -10 OFFCURVE",
"559 73 OFFCURVE",
"559 233 CURVE SMOOTH",
"559 553 LINE",
"367 553 LINE",
"367 212 LINE SMOOTH",
"367 161 OFFCURVE",
"345 134 OFFCURVE",
"302 134 CURVE SMOOTH",
"259 134 OFFCURVE",
"237 161 OFFCURVE",
"237 212 CURVE SMOOTH",
"237 553 LINE",
"45 553 LINE",
"45 233 LINE SMOOTH",
"45 73 OFFCURVE",
"133 -10 OFFCURVE",
"302 -10 CURVE SMOOTH"
);
}
);
width = 604;
},
{
anchors = (
{
name = bottom;
position = "{344, 0}";
},
{
name = top;
position = "{351, 536}";
},
{
name = top2;
position = "{205, 536}";
}
);
layerId = "009F2F33-BFE3-455D-BDCF-6F386AA465CF";
paths = (
{
closed = 1;
nodes = (
"306 -10 OFFCURVE",
"351 67 OFFCURVE",
"351 174 CURVE SMOOTH",
"351 548 LINE",
"324 548 LINE",
"324 174 LINE SMOOTH",
"324 73 OFFCURVE",
"285 15 OFFCURVE",
"205 15 CURVE SMOOTH",
"125 15 OFFCURVE",
"86 73 OFFCURVE",
"86 174 CURVE SMOOTH",
"86 548 LINE",
"59 548 LINE",
"59 174 LINE SMOOTH",
"59 67 OFFCURVE",
"104 -10 OFFCURVE",
"205 -10 CURVE SMOOTH"
);
}
);
width = 410;
},
{
anchors = (
{
name = bottom;
position = "{369, 0}";
},
{
name = top;
position = "{376, 536}";
},
{
name = top2;
position = "{211, 536}";
}
);
layerId = "AA55D700-EA4F-438C-81A6-FEFC4FC5520F";
paths = (
{
closed = 1;
nodes = (
"322 -10 OFFCURVE",
"377 57 OFFCURVE",
"377 194 CURVE SMOOTH",
"377 548 LINE",
"291 548 LINE",
"291 188 LINE SMOOTH",
"291 100 OFFCURVE",
"264 57 OFFCURVE",
"211 57 CURVE SMOOTH",
"158 57 OFFCURVE",
"131 100 OFFCURVE",
"131 188 CURVE SMOOTH",
"131 548 LINE",
"45 548 LINE",
"45 194 LINE SMOOTH",
"45 57 OFFCURVE",
"100 -10 OFFCURVE",
"211 -10 CURVE SMOOTH"
);
}
);
width = 423;
},
{
anchors = (
{
name = bottom;
position = "{456, 0}";
},
{
name = top;
position = "{464, 536}";
},
{
name = top2;
position = "{256, 536}";
}
);
layerId = "71F2606D-B934-4F95-8EC7-C80FA20C45E9";
paths = (
{
closed = 1;
nodes = (
"392 -10 OFFCURVE",
"464 73 OFFCURVE",
"464 226 CURVE SMOOTH",
"464 552 LINE",
"302 552 LINE",
"302 209 LINE SMOOTH",
"302 147 OFFCURVE",
"286 114 OFFCURVE",
"256 114 CURVE SMOOTH",
"226 114 OFFCURVE",
"210 147 OFFCURVE",
"210 209 CURVE SMOOTH",
"210 552 LINE",
"48 552 LINE",
"48 226 LINE SMOOTH",
"48 73 OFFCURVE",
"120 -10 OFFCURVE",
"256 -10 CURVE SMOOTH"
);
}
);
width = 512;
}
);
note = uni0E9A;
unicode = 0E9A;
},
{
glyphname = "poPa-lao";
lastChange = "2017-06-05 18:40:43 +0000";
layers = (
{
anchors = (
{
name = bottom;
position = "{483, 0}";
},
{
name = top;
position = "{384, 536}";
},
{
name = top2;
position = "{289, 536}";
}
);
layerId = "64BC062E-13E4-450B-B24E-D8A474022433";
paths = (
{
closed = 1;
nodes = (
"429 -10 OFFCURVE",
"493 67 OFFCURVE",
"493 174 CURVE SMOOTH",
"493 745 LINE",
"467 745 LINE",
"467 174 LINE SMOOTH",
"467 73 OFFCURVE",
"407 15 OFFCURVE",
"289 15 CURVE SMOOTH",
"171 15 OFFCURVE",
"111 73 OFFCURVE",
"111 174 CURVE SMOOTH",
"111 548 LINE",
"85 548 LINE",
"85 174 LINE SMOOTH",
"85 67 OFFCURVE",
"149 -10 OFFCURVE",
"289 -10 CURVE SMOOTH"
);
}
);
width = 578;
},
{
anchors = (
{
name = bottom;
position = "{522, 0}";
},
{
name = top;
position = "{410, 536}";
},
{
name = top2;
position = "{290, 536}";
}
);
layerId = "6449CA81-A7C3-4005-93E5-765657812F1B";
paths = (
{
closed = 1;
nodes = (
"466 -10 OFFCURVE",
"532 72 OFFCURVE",
"532 208 CURVE SMOOTH",
"532 714 LINE",
"444 714 LINE",
"444 201 LINE SMOOTH",
"444 114 OFFCURVE",
"404 63 OFFCURVE",
"305 63 CURVE SMOOTH",
"207 63 OFFCURVE",
"166 114 OFFCURVE",
"166 201 CURVE SMOOTH",
"166 548 LINE",
"78 548 LINE",
"78 208 LINE SMOOTH",
"78 72 OFFCURVE",
"144 -10 OFFCURVE",
"305 -10 CURVE SMOOTH"
);
}
);
width = 614;
},
{
anchors = (
{
name = bottom;
position = "{559, 0}";
},
{
name = top;
position = "{355, 536}";
},
{
name = top2;
position = "{235, 536}";
}
);
layerId = "E5D3352E-10FF-4C03-AD9F-F95B1FD01257";
paths = (
{
closed = 1;
nodes = (
"480 -10 OFFCURVE",
"569 73 OFFCURVE",
"569 233 CURVE SMOOTH",
"569 714 LINE",
"377 714 LINE",
"377 212 LINE SMOOTH",
"377 161 OFFCURVE",
"354 134 OFFCURVE",
"309 134 CURVE SMOOTH",
"263 134 OFFCURVE",
"237 161 OFFCURVE",
"237 212 CURVE SMOOTH",
"237 553 LINE",
"45 553 LINE",
"45 233 LINE SMOOTH",
"45 73 OFFCURVE",
"137 -10 OFFCURVE",
"309 -10 CURVE SMOOTH"
);
}
);
width = 619;
},
{
anchors = (
{
name = bottom;
position = "{344, 0}";
},
{
name = top;
position = "{273, 536}";
},
{
name = top2;
position = "{203, 536}";
}
);
layerId = "009F2F33-BFE3-455D-BDCF-6F386AA465CF";
paths = (
{
closed = 1;
nodes = (
"306 -10 OFFCURVE",
"351 67 OFFCURVE",
"351 174 CURVE SMOOTH",
"351 745 LINE",
"324 745 LINE",
"324 174 LINE SMOOTH",
"324 73 OFFCURVE",
"285 15 OFFCURVE",
"205 15 CURVE SMOOTH",
"125 15 OFFCURVE",
"86 73 OFFCURVE",
"86 174 CURVE SMOOTH",
"86 548 LINE",
"59 548 LINE",
"59 174 LINE SMOOTH",
"59 67 OFFCURVE",
"104 -10 OFFCURVE",
"205 -10 CURVE SMOOTH"
);
}
);
width = 410;
},
{
anchors = (
{
name = bottom;
position = "{372, 0}";
},
{
name = top;
position = "{267, 536}";
},
{
name = top2;
position = "{186, 536}";
}
);
layerId = "AA55D700-EA4F-438C-81A6-FEFC4FC5520F";
paths = (
{
closed = 1;
nodes = (
"326 -10 OFFCURVE",
"381 57 OFFCURVE",
"381 194 CURVE SMOOTH",
"381 718 LINE",
"295 718 LINE",
"295 188 LINE SMOOTH",
"295 101 OFFCURVE",
"268 57 OFFCURVE",
"213 57 CURVE SMOOTH",
"160 57 OFFCURVE",
"131 99 OFFCURVE",
"131 188 CURVE SMOOTH",
"131 548 LINE",
"45 548 LINE",
"45 194 LINE SMOOTH",
"45 57 OFFCURVE",
"102 -10 OFFCURVE",
"214 -10 CURVE SMOOTH"
);
}
);
width = 429;
},
{
anchors = (
{
name = bottom;
position = "{465, 0}";
},
{
name = top;
position = "{282, 536}";
},
{
name = top2;
position = "{198, 536}";
}
);
layerId = "71F2606D-B934-4F95-8EC7-C80FA20C45E9";
paths = (
{
closed = 1;
nodes = (
"400 -10 OFFCURVE",
"473 73 OFFCURVE",
"473 226 CURVE SMOOTH",
"473 714 LINE",
"311 714 LINE",
"311 209 LINE SMOOTH",
"311 147 OFFCURVE",
"294 114 OFFCURVE",
"262 114 CURVE SMOOTH",
"230 114 OFFCURVE",
"210 147 OFFCURVE",
"210 209 CURVE SMOOTH",
"210 552 LINE",
"48 552 LINE",
"48 226 LINE SMOOTH",
"48 73 OFFCURVE",
"124 -10 OFFCURVE",
"262 -10 CURVE SMOOTH"
);
}
);
width = 525;
}
);
note = uni0E9B;
unicode = 0E9B;
},
{
glyphname = "phoPhueng-lao";
lastChange = "2017-06-05 18:40:43 +0000";
layers = (
{
anchors = (
{
name = bottom;
position = "{589, 0}";
},
{
name = top;
position = "{602, 536}";
},
{
name = top2;
position = "{349, 536}";
}
);
layerId = "64BC062E-13E4-450B-B24E-D8A474022433";
paths = (
{
closed = 1;
nodes = (
"275 -10 OFFCURVE",
"319 10 OFFCURVE",
"341 70 CURVE",
"343 70 LINE",
"365 10 OFFCURVE",
"409 -10 OFFCURVE",
"464 -10 CURVE SMOOTH",
"561 -10 OFFCURVE",
"599 53 OFFCURVE",
"599 156 CURVE SMOOTH",
"599 329 LINE SMOOTH",
"599 389 OFFCURVE",
"592 431 OFFCURVE",
"547 452 CURVE",
"547 453 LINE",
"591 468 OFFCURVE",
"602 516 OFFCURVE",
"602 572 CURVE SMOOTH",
"602 592 LINE",
"575 592 LINE",
"575 572 LINE SMOOTH",
"575 507 OFFCURVE",
"562 464 OFFCURVE",
"509 464 CURVE SMOOTH",
"485 464 LINE",
"485 442 LINE",
"508 442 LINE SMOOTH",
"559 442 OFFCURVE",
"573 402 OFFCURVE",
"573 327 CURVE SMOOTH",
"573 152 LINE SMOOTH",
"573 65 OFFCURVE",
"544 12 OFFCURVE",
"465 12 CURVE SMOOTH",
"385 12 OFFCURVE",
"354 65 OFFCURVE",
"354 137 CURVE SMOOTH",
"354 307 LINE",
"330 307 LINE",
"330 137 LINE SMOOTH",
"330 65 OFFCURVE",
"299 12 OFFCURVE",
"220 12 CURVE SMOOTH",
"140 12 OFFCURVE",
"111 65 OFFCURVE",
"111 152 CURVE SMOOTH",
"111 456 LINE SMOOTH",
"111 506 OFFCURVE",
"129 534 OFFCURVE",
"176 534 CURVE SMOOTH",
"205 534 OFFCURVE",
"230 524 OFFCURVE",
"247 514 CURVE",
"257 535 LINE",
"238 545 OFFCURVE",
"205 556 OFFCURVE",
"173 556 CURVE SMOOTH",
"118 556 OFFCURVE",
"85 523 OFFCURVE",
"85 455 CURVE SMOOTH",
"85 156 LINE SMOOTH",
"85 53 OFFCURVE",
"123 -10 OFFCURVE",
"220 -10 CURVE SMOOTH"
);
}
);
width = 684;
},
{
anchors = (
{
name = bottom;
position = "{634, 0}";
},
{
name = top;
position = "{644, 536}";
},
{
name = top2;
position = "{368, 536}";
}
);
layerId = "6449CA81-A7C3-4005-93E5-765657812F1B";
paths = (
{
closed = 1;
nodes = (
"292 -10 OFFCURVE",
"331 16 OFFCURVE",
"359 58 CURVE",
"363 58 LINE",
"391 16 OFFCURVE",
"430 -10 OFFCURVE",
"495 -10 CURVE SMOOTH",
"597 -10 OFFCURVE",
"644 54 OFFCURVE",
"644 157 CURVE SMOOTH",
"644 345 LINE SMOOTH",
"644 401 OFFCURVE",
"628 436 OFFCURVE",
"583 457 CURVE",
"583 461 LINE",
"628 487 OFFCURVE",
"644 524 OFFCURVE",
"644 578 CURVE SMOOTH",
"644 587 LINE",
"556 587 LINE",
"556 578 LINE SMOOTH",
"556 526 OFFCURVE",
"542 491 OFFCURVE",
"494 491 CURVE SMOOTH",
"480 491 LINE",
"480 430 LINE",
"493 430 LINE SMOOTH",
"534 430 OFFCURVE",
"556 400 OFFCURVE",
"556 344 CURVE SMOOTH",
"556 146 LINE SMOOTH",
"556 88 OFFCURVE",
"532 63 OFFCURVE",
"482 63 CURVE SMOOTH",
"422 63 OFFCURVE",
"404 98 OFFCURVE",
"404 162 CURVE SMOOTH",
"404 329 LINE",
"318 329 LINE",
"318 162 LINE SMOOTH",
"318 98 OFFCURVE",
"300 63 OFFCURVE",
"240 63 CURVE SMOOTH",
"190 63 OFFCURVE",
"166 88 OFFCURVE",
"166 146 CURVE SMOOTH",
"166 445 LINE SMOOTH",
"166 477 OFFCURVE",
"183 488 OFFCURVE",
"205 488 CURVE SMOOTH",
"216 488 OFFCURVE",
"229 485 OFFCURVE",
"241 482 CURVE",
"254 544 LINE",
"229 553 OFFCURVE",
"204 558 OFFCURVE",
"182 558 CURVE SMOOTH",
"117 558 OFFCURVE",
"78 516 OFFCURVE",
"78 442 CURVE SMOOTH",
"78 157 LINE SMOOTH",
"78 54 OFFCURVE",
"125 -10 OFFCURVE",
"227 -10 CURVE SMOOTH"
);
}
);
width = 726;
},
{
anchors = (
{
name = bottom;
position = "{639, 0}";
},
{
name = top;
position = "{651, 536}";
},
{
name = top2;
position = "{347, 536}";
}
);
layerId = "E5D3352E-10FF-4C03-AD9F-F95B1FD01257";
paths = (
{
closed = 1;
nodes = (
"271 -10 OFFCURVE",
"323 12 OFFCURVE",
"346 44 CURVE",
"348 44 LINE",
"374 11 OFFCURVE",
"428 -10 OFFCURVE",
"489 -10 CURVE SMOOTH",
"604 -10 OFFCURVE",
"651 66 OFFCURVE",
"651 171 CURVE SMOOTH",
"651 339 LINE SMOOTH",
"651 399 OFFCURVE",
"633 435 OFFCURVE",
"584 460 CURVE",
"584 464 LINE",
"635 491 OFFCURVE",
"653 530 OFFCURVE",
"653 586 CURVE SMOOTH",
"653 595 LINE",
"469 595 LINE",
"469 586 LINE SMOOTH",
"469 535 OFFCURVE",
"456 509 OFFCURVE",
"403 509 CURVE SMOOTH",
"389 509 LINE",
"389 404 LINE",
"402 404 LINE SMOOTH",
"451 404 OFFCURVE",
"469 383 OFFCURVE",
"469 330 CURVE SMOOTH",
"469 161 LINE SMOOTH",
"469 143 OFFCURVE",
"460 134 OFFCURVE",
"444 134 CURVE SMOOTH",
"428 134 OFFCURVE",
"419 143 OFFCURVE",
"419 161 CURVE SMOOTH",
"419 329 LINE",
"277 329 LINE",
"277 161 LINE SMOOTH",
"277 143 OFFCURVE",
"268 134 OFFCURVE",
"251 134 CURVE SMOOTH",
"235 134 OFFCURVE",
"227 143 OFFCURVE",
"227 161 CURVE SMOOTH",
"227 382 LINE SMOOTH",
"227 406 OFFCURVE",
"243 419 OFFCURVE",
"265 419 CURVE SMOOTH",
"277 419 OFFCURVE",
"290 415 OFFCURVE",
"300 411 CURVE",
"327 533 LINE",
"289 550 OFFCURVE",
"241 563 OFFCURVE",
"198 563 CURVE SMOOTH",
"102 563 OFFCURVE",
"45 500 OFFCURVE",
"45 401 CURVE SMOOTH",
"45 178 LINE SMOOTH",
"45 64 OFFCURVE",
"103 -10 OFFCURVE",
"212 -10 CURVE SMOOTH"
);
}
);
width = 700;
},
{
anchors = (
{
name = bottom;
position = "{419, 0}";
},
{
name = top;
position = "{428, 536}";
},
{
name = top2;
position = "{247, 536}";
}
);
layerId = "009F2F33-BFE3-455D-BDCF-6F386AA465CF";
paths = (
{
closed = 1;
nodes = (
"190 -10 OFFCURVE",
"224 12 OFFCURVE",
"242 70 CURVE",
"243 70 LINE",
"261 12 OFFCURVE",
"295 -10 OFFCURVE",
"336 -10 CURVE SMOOTH",
"398 -10 OFFCURVE",
"426 42 OFFCURVE",
"426 144 CURVE SMOOTH",
"426 329 LINE SMOOTH",
"426 389 OFFCURVE",
"420 431 OFFCURVE",
"388 452 CURVE",
"388 453 LINE",
"419 468 OFFCURVE",
"428 516 OFFCURVE",
"428 572 CURVE SMOOTH",
"428 592 LINE",
"400 592 LINE",
"400 572 LINE SMOOTH",
"400 507 OFFCURVE",
"391 464 OFFCURVE",
"355 464 CURVE SMOOTH",
"339 464 LINE",
"339 442 LINE",
"354 442 LINE SMOOTH",
"388 442 OFFCURVE",
"399 402 OFFCURVE",
"399 327 CURVE SMOOTH",
"399 140 LINE SMOOTH",
"399 51 OFFCURVE",
"380 12 OFFCURVE",
"333 12 CURVE SMOOTH",
"279 12 OFFCURVE",
"255 65 OFFCURVE",
"255 137 CURVE SMOOTH",
"255 307 LINE",
"230 307 LINE",
"230 137 LINE SMOOTH",
"230 65 OFFCURVE",
"206 12 OFFCURVE",
"152 12 CURVE SMOOTH",
"105 12 OFFCURVE",
"86 51 OFFCURVE",
"86 140 CURVE SMOOTH",
"86 467 LINE SMOOTH",
"86 513 OFFCURVE",
"97 532 OFFCURVE",
"130 532 CURVE SMOOTH",
"147 532 OFFCURVE",
"160 527 OFFCURVE",
"173 518 CURVE",
"180 540 LINE",
"166 550 OFFCURVE",
"150 556 OFFCURVE",
"128 556 CURVE SMOOTH",
"85 556 OFFCURVE",
"59 533 OFFCURVE",
"59 467 CURVE SMOOTH",
"59 144 LINE SMOOTH",
"59 42 OFFCURVE",
"87 -10 OFFCURVE",
"149 -10 CURVE SMOOTH"
);
}
);
width = 485;
},
{
anchors = (
{
name = bottom;
position = "{439, 0}";
},
{
name = top;
position = "{447, 536}";
},
{
name = top2;
position = "{248, 536}";
}
);
layerId = "AA55D700-EA4F-438C-81A6-FEFC4FC5520F";
paths = (
{
closed = 1;
nodes = (
"196 -10 OFFCURVE",
"227 15 OFFCURVE",
"245 60 CURVE",
"247 60 LINE",
"265 15 OFFCURVE",
"296 -10 OFFCURVE",
"341 -10 CURVE SMOOTH",
"414 -10 OFFCURVE",
"447 54 OFFCURVE",
"447 157 CURVE SMOOTH",
"447 343 LINE SMOOTH",
"447 400 OFFCURVE",
"436 435 OFFCURVE",
"404 456 CURVE",
"404 460 LINE",
"437 485 OFFCURVE",
"448 523 OFFCURVE",
"448 577 CURVE SMOOTH",
"448 588 LINE",
"364 588 LINE",
"364 577 LINE SMOOTH",
"364 524 OFFCURVE",
"355 488 OFFCURVE",
"319 488 CURVE SMOOTH",
"308 488 LINE",
"308 432 LINE",
"319 432 LINE SMOOTH",
"351 432 OFFCURVE",
"364 400 OFFCURVE",
"364 342 CURVE SMOOTH",
"364 147 LINE SMOOTH",
"364 85 OFFCURVE",
"351 57 OFFCURVE",
"323 57 CURVE SMOOTH",
"292 57 OFFCURVE",
"281 94 OFFCURVE",
"281 159 CURVE SMOOTH",
"281 326 LINE",
"211 326 LINE",
"211 159 LINE SMOOTH",
"211 93 OFFCURVE",
"200 57 OFFCURVE",
"168 57 CURVE SMOOTH",
"140 57 OFFCURVE",
"128 86 OFFCURVE",
"128 147 CURVE SMOOTH",
"128 446 LINE SMOOTH",
"128 481 OFFCURVE",
"139 494 OFFCURVE",
"158 494 CURVE SMOOTH",
"168 494 OFFCURVE",
"179 490 OFFCURVE",
"187 486 CURVE",
"200 543 LINE",
"180 552 OFFCURVE",
"153 558 OFFCURVE",
"132 558 CURVE SMOOTH",
"76 558 OFFCURVE",
"45 516 OFFCURVE",
"45 444 CURVE SMOOTH",
"45 157 LINE SMOOTH",
"45 54 OFFCURVE",
"81 -10 OFFCURVE",
"152 -10 CURVE SMOOTH"
);
}
);
width = 495;
},
{
anchors = (
{
name = bottom;
position = "{526, 0}";
},
{
name = top;
position = "{541, 536}";
},
{
name = top2;
position = "{298, 536}";
}
);
layerId = "71F2606D-B934-4F95-8EC7-C80FA20C45E9";
paths = (
{
closed = 1;
nodes = (
"233 -10 OFFCURVE",
"280 13 OFFCURVE",
"298 48 CURVE",
"302 48 LINE",
"320 13 OFFCURVE",
"367 -10 OFFCURVE",
"416 -10 CURVE SMOOTH",
"502 -10 OFFCURVE",
"552 60 OFFCURVE",
"552 172 CURVE SMOOTH",
"552 341 LINE SMOOTH",
"552 400 OFFCURVE",
"537 435 OFFCURVE",
"498 459 CURVE",
"498 463 LINE",
"539 490 OFFCURVE",
"554 528 OFFCURVE",
"554 584 CURVE SMOOTH",
"554 593 LINE",
"399 593 LINE",
"399 584 LINE SMOOTH",
"399 532 OFFCURVE",
"389 504 OFFCURVE",
"346 504 CURVE SMOOTH",
"335 504 LINE",
"335 412 LINE",
"345 412 LINE SMOOTH",
"385 412 OFFCURVE",
"399 388 OFFCURVE",
"399 334 CURVE SMOOTH",
"399 149 LINE SMOOTH",
"399 126 OFFCURVE",
"392 114 OFFCURVE",
"379 114 CURVE SMOOTH",
"367 114 OFFCURVE",
"359 125 OFFCURVE",
"359 149 CURVE SMOOTH",
"359 329 LINE",
"241 329 LINE",
"241 149 LINE SMOOTH",
"241 125 OFFCURVE",
"233 114 OFFCURVE",
"221 114 CURVE SMOOTH",
"208 114 OFFCURVE",
"201 126 OFFCURVE",
"201 149 CURVE SMOOTH",
"201 400 LINE SMOOTH",
"201 426 OFFCURVE",
"214 439 OFFCURVE",
"232 439 CURVE SMOOTH",
"241 439 OFFCURVE",
"252 435 OFFCURVE",
"259 431 CURVE",
"282 536 LINE",
"251 551 OFFCURVE",
"210 562 OFFCURVE",
"175 562 CURVE SMOOTH",
"95 562 OFFCURVE",
"48 505 OFFCURVE",
"48 413 CURVE SMOOTH",
"48 172 LINE SMOOTH",
"48 60 OFFCURVE",
"98 -10 OFFCURVE",
"184 -10 CURVE SMOOTH"
);
}
);
width = 604;
}
);
note = uni0E9C;
unicode = 0E9C;
},
{
glyphname = "foFon-lao";
lastChange = "2017-06-05 18:40:43 +0000";
layers = (
{
anchors = (
{
name = bottom;
position = "{589, 0}";
},
{
name = top;
position = "{490, 536}";
},
{
name = top2;
position = "{349, 536}";
}
);
layerId = "64BC062E-13E4-450B-B24E-D8A474022433";
paths = (
{
closed = 1;
nodes = (
"275 -10 OFFCURVE",
"319 10 OFFCURVE",
"341 70 CURVE",
"343 70 LINE",
"365 10 OFFCURVE",
"409 -10 OFFCURVE",
"464 -10 CURVE SMOOTH",
"561 -10 OFFCURVE",
"599 53 OFFCURVE",
"599 156 CURVE SMOOTH",
"599 745 LINE",
"573 745 LINE",
"573 152 LINE SMOOTH",
"573 65 OFFCURVE",
"544 12 OFFCURVE",
"465 12 CURVE SMOOTH",
"385 12 OFFCURVE",
"354 65 OFFCURVE",
"354 137 CURVE SMOOTH",
"354 307 LINE",
"330 307 LINE",
"330 137 LINE SMOOTH",
"330 65 OFFCURVE",
"299 12 OFFCURVE",
"220 12 CURVE SMOOTH",
"140 12 OFFCURVE",
"111 65 OFFCURVE",
"111 152 CURVE SMOOTH",
"111 456 LINE SMOOTH",
"111 506 OFFCURVE",
"129 534 OFFCURVE",
"176 534 CURVE SMOOTH",
"205 534 OFFCURVE",
"230 524 OFFCURVE",
"247 514 CURVE",
"257 535 LINE",
"238 545 OFFCURVE",
"205 556 OFFCURVE",
"173 556 CURVE SMOOTH",
"118 556 OFFCURVE",
"85 523 OFFCURVE",
"85 455 CURVE SMOOTH",
"85 156 LINE SMOOTH",
"85 53 OFFCURVE",
"123 -10 OFFCURVE",
"220 -10 CURVE SMOOTH"
);
}
);
width = 684;
},
{
anchors = (
{
name = bottom;
position = "{634, 0}";
},
{
name = top;
position = "{522, 536}";
},
{
name = top2;
position = "{368, 536}";
}
);
layerId = "6449CA81-A7C3-4005-93E5-765657812F1B";
paths = (
{
closed = 1;
nodes = (
"292 -10 OFFCURVE",
"331 16 OFFCURVE",
"359 58 CURVE",
"363 58 LINE",
"391 16 OFFCURVE",
"430 -10 OFFCURVE",
"495 -10 CURVE SMOOTH",
"597 -10 OFFCURVE",
"644 54 OFFCURVE",
"644 157 CURVE SMOOTH",
"644 714 LINE",
"556 714 LINE",
"556 146 LINE SMOOTH",
"556 88 OFFCURVE",
"532 63 OFFCURVE",
"482 63 CURVE SMOOTH",
"422 63 OFFCURVE",
"404 98 OFFCURVE",
"404 162 CURVE SMOOTH",
"404 329 LINE",
"318 329 LINE",
"318 162 LINE SMOOTH",
"318 98 OFFCURVE",
"300 63 OFFCURVE",
"240 63 CURVE SMOOTH",
"190 63 OFFCURVE",
"166 88 OFFCURVE",
"166 146 CURVE SMOOTH",
"166 445 LINE SMOOTH",
"166 477 OFFCURVE",
"183 488 OFFCURVE",
"205 488 CURVE SMOOTH",
"216 488 OFFCURVE",
"229 485 OFFCURVE",
"241 482 CURVE",
"254 544 LINE",
"229 553 OFFCURVE",
"204 558 OFFCURVE",
"182 558 CURVE SMOOTH",
"117 558 OFFCURVE",
"78 516 OFFCURVE",
"78 442 CURVE SMOOTH",
"78 157 LINE SMOOTH",
"78 54 OFFCURVE",
"125 -10 OFFCURVE",
"227 -10 CURVE SMOOTH"
);
}
);
width = 726;
},
{
anchors = (
{
name = bottom;
position = "{641, 0}";
},
{
name = top;
position = "{437, 536}";
},
{
name = top2;
position = "{324, 536}";
}
);
layerId = "E5D3352E-10FF-4C03-AD9F-F95B1FD01257";
paths = (
{
closed = 1;
nodes = (
"271 -10 OFFCURVE",
"323 12 OFFCURVE",
"346 44 CURVE",
"348 44 LINE",
"374 11 OFFCURVE",
"428 -10 OFFCURVE",
"489 -10 CURVE SMOOTH",
"604 -10 OFFCURVE",
"651 66 OFFCURVE",
"651 171 CURVE SMOOTH",
"651 714 LINE",
"469 714 LINE",
"469 161 LINE SMOOTH",
"469 143 OFFCURVE",
"460 134 OFFCURVE",
"444 134 CURVE SMOOTH",
"428 134 OFFCURVE",
"419 143 OFFCURVE",
"419 161 CURVE SMOOTH",
"419 329 LINE",
"277 329 LINE",
"277 161 LINE SMOOTH",
"277 143 OFFCURVE",
"268 134 OFFCURVE",
"251 134 CURVE SMOOTH",
"235 134 OFFCURVE",
"227 143 OFFCURVE",
"227 161 CURVE SMOOTH",
"227 382 LINE SMOOTH",
"227 406 OFFCURVE",
"243 419 OFFCURVE",
"265 419 CURVE SMOOTH",
"277 419 OFFCURVE",
"290 415 OFFCURVE",
"300 411 CURVE",
"327 533 LINE",
"289 550 OFFCURVE",
"241 563 OFFCURVE",
"198 563 CURVE SMOOTH",
"102 563 OFFCURVE",
"45 500 OFFCURVE",
"45 401 CURVE SMOOTH",
"45 178 LINE SMOOTH",
"45 64 OFFCURVE",
"103 -10 OFFCURVE",
"212 -10 CURVE SMOOTH"
);
}
);
width = 701;
},
{
anchors = (
{
name = bottom;
position = "{419, 0}";
},
{
name = top;
position = "{348, 536}";
},
{
name = top2;
position = "{247, 536}";
}
);
layerId = "009F2F33-BFE3-455D-BDCF-6F386AA465CF";
paths = (
{
closed = 1;
nodes = (
"190 -10 OFFCURVE",
"224 12 OFFCURVE",
"242 70 CURVE",
"243 70 LINE",
"261 12 OFFCURVE",
"295 -10 OFFCURVE",
"336 -10 CURVE SMOOTH",
"398 -10 OFFCURVE",
"426 42 OFFCURVE",
"426 144 CURVE SMOOTH",
"426 745 LINE",
"399 745 LINE",
"399 140 LINE SMOOTH",
"399 51 OFFCURVE",
"380 12 OFFCURVE",
"333 12 CURVE SMOOTH",
"279 12 OFFCURVE",
"255 65 OFFCURVE",
"255 137 CURVE SMOOTH",
"255 307 LINE",
"230 307 LINE",
"230 137 LINE SMOOTH",
"230 65 OFFCURVE",
"206 12 OFFCURVE",
"152 12 CURVE SMOOTH",
"105 12 OFFCURVE",
"86 51 OFFCURVE",
"86 140 CURVE SMOOTH",
"86 467 LINE SMOOTH",
"86 513 OFFCURVE",
"97 532 OFFCURVE",
"130 532 CURVE SMOOTH",
"147 532 OFFCURVE",
"160 527 OFFCURVE",
"173 518 CURVE",
"180 540 LINE",
"166 550 OFFCURVE",
"150 556 OFFCURVE",
"128 556 CURVE SMOOTH",
"85 556 OFFCURVE",
"59 533 OFFCURVE",
"59 467 CURVE SMOOTH",
"59 144 LINE SMOOTH",
"59 42 OFFCURVE",
"87 -10 OFFCURVE",
"149 -10 CURVE SMOOTH"
);
}
);
width = 485;
},
{
anchors = (
{
name = bottom;
position = "{440, 0}";
},
{
name = top;
position = "{333, 536}";
},
{
name = top2;
position = "{241, 536}";
}
);
layerId = "AA55D700-EA4F-438C-81A6-FEFC4FC5520F";
paths = (
{
closed = 1;
nodes = (
"196 -10 OFFCURVE",
"227 15 OFFCURVE",
"245 60 CURVE",
"247 60 LINE",
"265 15 OFFCURVE",
"296 -10 OFFCURVE",
"341 -10 CURVE SMOOTH",
"414 -10 OFFCURVE",
"447 54 OFFCURVE",
"447 157 CURVE SMOOTH",
"447 718 LINE",
"364 718 LINE",
"364 147 LINE SMOOTH",
"364 85 OFFCURVE",
"351 57 OFFCURVE",
"323 57 CURVE SMOOTH",
"292 57 OFFCURVE",
"281 94 OFFCURVE",
"281 159 CURVE SMOOTH",
"281 326 LINE",
"211 326 LINE",
"211 159 LINE SMOOTH",
"211 93 OFFCURVE",
"200 57 OFFCURVE",
"168 57 CURVE SMOOTH",
"140 57 OFFCURVE",
"128 86 OFFCURVE",
"128 147 CURVE SMOOTH",
"128 446 LINE SMOOTH",
"128 481 OFFCURVE",
"139 494 OFFCURVE",
"158 494 CURVE SMOOTH",
"168 494 OFFCURVE",
"179 490 OFFCURVE",
"187 486 CURVE",
"200 543 LINE",
"180 552 OFFCURVE",
"153 558 OFFCURVE",
"132 558 CURVE SMOOTH",
"76 558 OFFCURVE",
"45 516 OFFCURVE",
"45 444 CURVE SMOOTH",
"45 157 LINE SMOOTH",
"45 54 OFFCURVE",
"81 -10 OFFCURVE",
"152 -10 CURVE SMOOTH"
);
}
);
width = 495;
},
{
anchors = (
{
name = bottom;
position = "{528, 0}";
},
{
name = top;
position = "{361, 536}";
},
{
name = top2;
position = "{270, 536}";
}
);
layerId = "71F2606D-B934-4F95-8EC7-C80FA20C45E9";
paths = (
{
closed = 1;
nodes = (
"233 -10 OFFCURVE",
"280 13 OFFCURVE",
"298 48 CURVE",
"302 48 LINE",
"320 13 OFFCURVE",
"367 -10 OFFCURVE",
"416 -10 CURVE SMOOTH",
"502 -10 OFFCURVE",
"552 60 OFFCURVE",
"552 172 CURVE SMOOTH",
"552 714 LINE",
"399 714 LINE",
"399 149 LINE SMOOTH",
"399 126 OFFCURVE",
"392 114 OFFCURVE",
"379 114 CURVE SMOOTH",
"367 114 OFFCURVE",
"359 125 OFFCURVE",
"359 149 CURVE SMOOTH",
"359 329 LINE",
"241 329 LINE",
"241 149 LINE SMOOTH",
"241 125 OFFCURVE",
"233 114 OFFCURVE",
"221 114 CURVE SMOOTH",
"208 114 OFFCURVE",
"201 126 OFFCURVE",
"201 149 CURVE SMOOTH",
"201 400 LINE SMOOTH",
"201 426 OFFCURVE",
"214 439 OFFCURVE",
"232 439 CURVE SMOOTH",
"241 439 OFFCURVE",
"252 435 OFFCURVE",
"259 431 CURVE",
"282 536 LINE",
"251 551 OFFCURVE",
"210 562 OFFCURVE",
"175 562 CURVE SMOOTH",
"95 562 OFFCURVE",
"48 505 OFFCURVE",
"48 413 CURVE SMOOTH",
"48 172 LINE SMOOTH",
"48 60 OFFCURVE",
"98 -10 OFFCURVE",
"184 -10 CURVE SMOOTH"
);
}
);
width = 604;
}
);
note = uni0E9D;
unicode = 0E9D;
},
{
glyphname = "phoPhu-lao";
lastChange = "2017-06-05 18:40:43 +0000";
layers = (
{
anchors = (
{
name = bottom;
position = "{599, 0}";
},
{
name = top;
position = "{609, 536}";
},
{
name = top2;
position = "{348, 536}";
}
);
layerId = "64BC062E-13E4-450B-B24E-D8A474022433";
paths = (
{
closed = 1;
nodes = (
"289 -10 OFFCURVE",
"325 30 OFFCURVE",
"346 83 CURVE",
"348 83 LINE",
"369 30 OFFCURVE",
"405 -10 OFFCURVE",
"478 -10 CURVE SMOOTH",
"560 -10 OFFCURVE",
"609 41 OFFCURVE",
"609 147 CURVE SMOOTH",
"609 548 LINE",
"583 548 LINE",
"583 143 LINE SMOOTH",
"583 52 OFFCURVE",
"543 12 OFFCURVE",
"478 12 CURVE SMOOTH",
"399 12 OFFCURVE",
"360 69 OFFCURVE",
"360 149 CURVE SMOOTH",
"360 548 LINE",
"334 548 LINE",
"334 149 LINE SMOOTH",
"334 69 OFFCURVE",
"295 12 OFFCURVE",
"216 12 CURVE SMOOTH",
"151 12 OFFCURVE",
"111 52 OFFCURVE",
"111 143 CURVE SMOOTH",
"111 548 LINE",
"85 548 LINE",
"85 147 LINE SMOOTH",
"85 41 OFFCURVE",
"134 -10 OFFCURVE",
"216 -10 CURVE SMOOTH"
);
}
);
width = 694;
},
{
anchors = (
{
name = bottom;
position = "{640, 0}";
},
{
name = top;
position = "{650, 536}";
},
{
name = top2;
position = "{364, 536}";
}
);
layerId = "6449CA81-A7C3-4005-93E5-765657812F1B";
paths = (
{
closed = 1;
nodes = (
"291 -10 OFFCURVE",
"340 21 OFFCURVE",
"361 62 CURVE",
"367 62 LINE",
"388 21 OFFCURVE",
"437 -10 OFFCURVE",
"504 -10 CURVE SMOOTH",
"594 -10 OFFCURVE",
"650 45 OFFCURVE",
"650 158 CURVE SMOOTH",
"650 548 LINE",
"562 548 LINE",
"562 157 LINE SMOOTH",
"562 91 OFFCURVE",
"536 63 OFFCURVE",
"487 63 CURVE SMOOTH",
"434 63 OFFCURVE",
"407 95 OFFCURVE",
"407 160 CURVE SMOOTH",
"407 548 LINE",
"321 548 LINE",
"321 160 LINE SMOOTH",
"321 95 OFFCURVE",
"294 63 OFFCURVE",
"241 63 CURVE SMOOTH",
"192 63 OFFCURVE",
"166 91 OFFCURVE",
"166 157 CURVE SMOOTH",
"166 548 LINE",
"78 548 LINE",
"78 158 LINE SMOOTH",
"78 45 OFFCURVE",
"134 -10 OFFCURVE",
"224 -10 CURVE SMOOTH"
);
}
);
width = 732;
},
{
anchors = (
{
name = bottom;
position = "{661, 0}";
},
{
name = top;
position = "{671, 536}";
},
{
name = top2;
position = "{358, 536}";
}
);
layerId = "E5D3352E-10FF-4C03-AD9F-F95B1FD01257";
paths = (
{
closed = 1;
nodes = (
"288 -10 OFFCURVE",
"332 23 OFFCURVE",
"355 55 CURVE",
"361 55 LINE",
"384 23 OFFCURVE",
"428 -10 OFFCURVE",
"499 -10 CURVE SMOOTH",
"597 -10 OFFCURVE",
"671 54 OFFCURVE",
"671 182 CURVE SMOOTH",
"671 553 LINE",
"489 553 LINE",
"489 159 LINE SMOOTH",
"489 145 OFFCURVE",
"478 134 OFFCURVE",
"460 134 CURVE SMOOTH",
"441 134 OFFCURVE",
"430 145 OFFCURVE",
"430 159 CURVE SMOOTH",
"430 553 LINE",
"286 553 LINE",
"286 159 LINE SMOOTH",
"286 145 OFFCURVE",
"275 134 OFFCURVE",
"257 134 CURVE SMOOTH",
"239 134 OFFCURVE",
"227 145 OFFCURVE",
"227 159 CURVE SMOOTH",
"227 553 LINE",
"45 553 LINE",
"45 182 LINE SMOOTH",
"45 54 OFFCURVE",
"119 -10 OFFCURVE",
"217 -10 CURVE SMOOTH"
);
}
);
width = 716;
},
{
anchors = (
{
name = bottom;
position = "{425, 0}";
},
{
name = top;
position = "{432, 536}";
},
{
name = top2;
position = "{246, 536}";
}
);
layerId = "009F2F33-BFE3-455D-BDCF-6F386AA465CF";
paths = (
{
closed = 1;
nodes = (
"205 -10 OFFCURVE",
"231 25 OFFCURVE",
"245 77 CURVE",
"247 77 LINE",
"261 25 OFFCURVE",
"287 -10 OFFCURVE",
"342 -10 CURVE SMOOTH",
"402 -10 OFFCURVE",
"432 32 OFFCURVE",
"432 129 CURVE SMOOTH",
"432 548 LINE",
"405 548 LINE",
"405 126 LINE SMOOTH",
"405 47 OFFCURVE",
"383 12 OFFCURVE",
"341 12 CURVE SMOOTH",
"287 12 OFFCURVE",
"259 69 OFFCURVE",
"259 149 CURVE SMOOTH",
"259 548 LINE",
"233 548 LINE",
"233 149 LINE SMOOTH",
"233 69 OFFCURVE",
"205 12 OFFCURVE",
"151 12 CURVE SMOOTH",
"109 12 OFFCURVE",
"87 47 OFFCURVE",
"87 126 CURVE SMOOTH",
"87 548 LINE",
"60 548 LINE",
"60 129 LINE SMOOTH",
"60 32 OFFCURVE",
"90 -10 OFFCURVE",
"150 -10 CURVE SMOOTH"
);
}
);
width = 491;
},
{
anchors = (
{
name = bottom;
position = "{449, 0}";
},
{
name = top;
position = "{456, 536}";
},
{
name = top2;
position = "{251, 536}";
}
);
layerId = "AA55D700-EA4F-438C-81A6-FEFC4FC5520F";
paths = (
{
closed = 1;
nodes = (
"202 -10 OFFCURVE",
"233 22 OFFCURVE",
"249 65 CURVE",
"253 65 LINE",
"269 22 OFFCURVE",
"300 -10 OFFCURVE",
"349 -10 CURVE SMOOTH",
"413 -10 OFFCURVE",
"457 45 OFFCURVE",
"457 157 CURVE SMOOTH",
"457 548 LINE",
"374 548 LINE",
"374 155 LINE SMOOTH",
"374 86 OFFCURVE",
"359 57 OFFCURVE",
"332 57 CURVE SMOOTH",
"302 57 OFFCURVE",
"287 92 OFFCURVE",
"287 159 CURVE SMOOTH",
"287 548 LINE",
"215 548 LINE",
"215 159 LINE SMOOTH",
"215 92 OFFCURVE",
"200 57 OFFCURVE",
"170 57 CURVE SMOOTH",
"143 57 OFFCURVE",
"128 86 OFFCURVE",
"128 155 CURVE SMOOTH",
"128 548 LINE",
"45 548 LINE",
"45 157 LINE SMOOTH",
"45 45 OFFCURVE",
"89 -10 OFFCURVE",
"153 -10 CURVE SMOOTH"
);
}
);
width = 503;
},
{
anchors = (
{
name = bottom;
position = "{545, 0}";
},
{
name = top;
position = "{584, 536}";
},
{
name = top2;
position = "{315, 536}";
}
);
layerId = "71F2606D-B934-4F95-8EC7-C80FA20C45E9";
paths = (
{
closed = 1;
nodes = (
"249 -10 OFFCURVE",
"295 19 OFFCURVE",
"314 57 CURVE",
"318 57 LINE",
"337 19 OFFCURVE",
"383 -10 OFFCURVE",
"441 -10 CURVE SMOOTH",
"525 -10 OFFCURVE",
"584 51 OFFCURVE",
"584 175 CURVE SMOOTH",
"584 552 LINE",
"431 552 LINE",
"431 155 LINE SMOOTH",
"431 129 OFFCURVE",
"422 114 OFFCURVE",
"406 114 CURVE SMOOTH",
"390 114 OFFCURVE",
"381 129 OFFCURVE",
"381 155 CURVE SMOOTH",
"381 552 LINE",
"251 552 LINE",
"251 155 LINE SMOOTH",
"251 129 OFFCURVE",
"242 114 OFFCURVE",
"226 114 CURVE SMOOTH",
"210 114 OFFCURVE",
"201 129 OFFCURVE",
"201 155 CURVE SMOOTH",
"201 552 LINE",
"48 552 LINE",
"48 175 LINE SMOOTH",
"48 51 OFFCURVE",
"107 -10 OFFCURVE",
"191 -10 CURVE SMOOTH"
);
}
);
width = 632;
}
);
note = uni0E9E;
unicode = 0E9E;
},
{
glyphname = "foFai-lao";
lastChange = "2017-06-05 18:40:43 +0000";
layers = (
{
anchors = (
{
name = bottom;
position = "{599, 0}";
},
{
name = top;
position = "{500, 536}";
},
{
name = top2;
position = "{348, 536}";
}
);
layerId = "64BC062E-13E4-450B-B24E-D8A474022433";
paths = (
{
closed = 1;
nodes = (
"289 -10 OFFCURVE",
"325 30 OFFCURVE",
"346 83 CURVE",
"348 83 LINE",
"369 30 OFFCURVE",
"405 -10 OFFCURVE",
"478 -10 CURVE SMOOTH",
"560 -10 OFFCURVE",
"609 41 OFFCURVE",
"609 147 CURVE SMOOTH",
"609 745 LINE",
"583 745 LINE",
"583 143 LINE SMOOTH",
"583 52 OFFCURVE",
"543 12 OFFCURVE",
"478 12 CURVE SMOOTH",
"399 12 OFFCURVE",
"360 69 OFFCURVE",
"360 149 CURVE SMOOTH",
"360 548 LINE",
"334 548 LINE",
"334 149 LINE SMOOTH",
"334 69 OFFCURVE",
"295 12 OFFCURVE",
"216 12 CURVE SMOOTH",
"151 12 OFFCURVE",
"111 52 OFFCURVE",
"111 143 CURVE SMOOTH",
"111 548 LINE",
"85 548 LINE",
"85 147 LINE SMOOTH",
"85 41 OFFCURVE",
"134 -10 OFFCURVE",
"216 -10 CURVE SMOOTH"
);
}
);
width = 694;
},
{
anchors = (
{
name = bottom;
position = "{640, 0}";
},
{
name = top;
position = "{528, 536}";
},
{
name = top2;
position = "{364, 536}";
}
);
layerId = "6449CA81-A7C3-4005-93E5-765657812F1B";
paths = (
{
closed = 1;
nodes = (
"291 -10 OFFCURVE",
"340 21 OFFCURVE",
"361 62 CURVE",
"367 62 LINE",
"388 21 OFFCURVE",
"437 -10 OFFCURVE",
"504 -10 CURVE SMOOTH",
"594 -10 OFFCURVE",
"650 45 OFFCURVE",
"650 158 CURVE SMOOTH",
"650 714 LINE",
"562 714 LINE",
"562 157 LINE SMOOTH",
"562 91 OFFCURVE",
"536 63 OFFCURVE",
"487 63 CURVE SMOOTH",
"434 63 OFFCURVE",
"407 95 OFFCURVE",
"407 160 CURVE SMOOTH",
"407 548 LINE",
"321 548 LINE",
"321 160 LINE SMOOTH",
"321 95 OFFCURVE",
"294 63 OFFCURVE",
"241 63 CURVE SMOOTH",
"192 63 OFFCURVE",
"166 91 OFFCURVE",
"166 157 CURVE SMOOTH",
"166 548 LINE",
"78 548 LINE",
"78 158 LINE SMOOTH",
"78 45 OFFCURVE",
"134 -10 OFFCURVE",
"224 -10 CURVE SMOOTH"
);
}
);
width = 732;
},
{
anchors = (
{
name = bottom;
position = "{661, 0}";
},
{
name = top;
position = "{457, 536}";
},
{
name = top2;
position = "{328, 536}";
}
);
layerId = "E5D3352E-10FF-4C03-AD9F-F95B1FD01257";
paths = (
{
closed = 1;
nodes = (
"288 -10 OFFCURVE",
"332 23 OFFCURVE",
"355 55 CURVE",
"361 55 LINE",
"384 23 OFFCURVE",
"428 -10 OFFCURVE",
"499 -10 CURVE SMOOTH",
"597 -10 OFFCURVE",
"671 54 OFFCURVE",
"671 182 CURVE SMOOTH",
"671 714 LINE",
"489 714 LINE",
"489 159 LINE SMOOTH",
"489 145 OFFCURVE",
"478 134 OFFCURVE",
"460 134 CURVE SMOOTH",
"441 134 OFFCURVE",
"430 145 OFFCURVE",
"430 159 CURVE SMOOTH",
"430 553 LINE",
"286 553 LINE",
"286 159 LINE SMOOTH",
"286 145 OFFCURVE",
"275 134 OFFCURVE",
"257 134 CURVE SMOOTH",
"239 134 OFFCURVE",
"227 145 OFFCURVE",
"227 159 CURVE SMOOTH",
"227 553 LINE",
"45 553 LINE",
"45 182 LINE SMOOTH",
"45 54 OFFCURVE",
"119 -10 OFFCURVE",
"217 -10 CURVE SMOOTH"
);
}
);
width = 721;
},
{
anchors = (
{
name = bottom;
position = "{425, 0}";
},
{
name = top;
position = "{354, 536}";
},
{
name = top2;
position = "{246, 536}";
}
);
layerId = "009F2F33-BFE3-455D-BDCF-6F386AA465CF";
paths = (
{
closed = 1;
nodes = (
"205 -10 OFFCURVE",
"231 25 OFFCURVE",
"245 77 CURVE",
"247 77 LINE",
"261 25 OFFCURVE",
"287 -10 OFFCURVE",
"342 -10 CURVE SMOOTH",
"402 -10 OFFCURVE",
"432 32 OFFCURVE",
"432 129 CURVE SMOOTH",
"432 745 LINE",
"405 745 LINE",
"405 126 LINE SMOOTH",
"405 47 OFFCURVE",
"383 12 OFFCURVE",
"341 12 CURVE SMOOTH",
"287 12 OFFCURVE",
"259 69 OFFCURVE",
"259 149 CURVE SMOOTH",
"259 548 LINE",
"233 548 LINE",
"233 149 LINE SMOOTH",
"233 69 OFFCURVE",
"205 12 OFFCURVE",
"151 12 CURVE SMOOTH",
"109 12 OFFCURVE",
"87 47 OFFCURVE",
"87 126 CURVE SMOOTH",
"87 548 LINE",
"60 548 LINE",
"60 129 LINE SMOOTH",
"60 32 OFFCURVE",
"90 -10 OFFCURVE",
"150 -10 CURVE SMOOTH"
);
}
);
width = 491;
},
{
anchors = (
{
name = bottom;
position = "{449, 0}";
},
{
name = top;
position = "{343, 536}";
},
{
name = top2;
position = "{241, 536}";
}
);
layerId = "AA55D700-EA4F-438C-81A6-FEFC4FC5520F";
paths = (
{
closed = 1;
nodes = (
"202 -10 OFFCURVE",
"233 22 OFFCURVE",
"249 65 CURVE",
"253 65 LINE",
"269 22 OFFCURVE",
"300 -10 OFFCURVE",
"349 -10 CURVE SMOOTH",
"413 -10 OFFCURVE",
"457 45 OFFCURVE",
"457 157 CURVE SMOOTH",
"457 718 LINE",
"374 718 LINE",
"374 155 LINE SMOOTH",
"374 86 OFFCURVE",
"359 57 OFFCURVE",
"332 57 CURVE SMOOTH",
"302 57 OFFCURVE",
"287 92 OFFCURVE",
"287 159 CURVE SMOOTH",
"287 548 LINE",
"215 548 LINE",
"215 159 LINE SMOOTH",
"215 92 OFFCURVE",
"200 57 OFFCURVE",
"170 57 CURVE SMOOTH",
"143 57 OFFCURVE",
"128 86 OFFCURVE",
"128 155 CURVE SMOOTH",
"128 548 LINE",
"45 548 LINE",
"45 157 LINE SMOOTH",
"45 45 OFFCURVE",
"89 -10 OFFCURVE",
"153 -10 CURVE SMOOTH"
);
}
);
width = 505;
},
{
anchors = (
{
name = bottom;
position = "{577, 0}";
},
{
name = top;
position = "{391, 536}";
},
{
name = top2;
position = "{304, 536}";
}
);
layerId = "71F2606D-B934-4F95-8EC7-C80FA20C45E9";
paths = (
{
closed = 1;
nodes = (
"249 -10 OFFCURVE",
"295 19 OFFCURVE",
"314 57 CURVE",
"318 57 LINE",
"337 19 OFFCURVE",
"383 -10 OFFCURVE",
"441 -10 CURVE SMOOTH",
"525 -10 OFFCURVE",
"584 51 OFFCURVE",
"584 175 CURVE SMOOTH",
"584 714 LINE",
"431 714 LINE",
"431 155 LINE SMOOTH",
"431 129 OFFCURVE",
"422 114 OFFCURVE",
"406 114 CURVE SMOOTH",
"390 114 OFFCURVE",
"381 129 OFFCURVE",
"381 155 CURVE SMOOTH",
"381 552 LINE",
"251 552 LINE",
"251 155 LINE SMOOTH",
"251 129 OFFCURVE",
"242 114 OFFCURVE",
"226 114 CURVE SMOOTH",
"210 114 OFFCURVE",
"201 129 OFFCURVE",
"201 155 CURVE SMOOTH",
"201 552 LINE",
"48 552 LINE",
"48 175 LINE SMOOTH",
"48 51 OFFCURVE",
"107 -10 OFFCURVE",
"191 -10 CURVE SMOOTH"
);
}
);
width = 636;
}
);
note = uni0E9F;
unicode = 0E9F;
},
{
glyphname = "moMa-lao";
lastChange = "2017-06-05 18:40:43 +0000";
layers = (
{
anchors = (
{
name = bottom;
position = "{504, 0}";
},
{
name = top;
position = "{514, 536}";
},
{
name = top2;
position = "{329, 536}";
}
);
layerId = "64BC062E-13E4-450B-B24E-D8A474022433";
paths = (
{
closed = 1;
nodes = (
"138 -10 OFFCURVE",
"160 22 OFFCURVE",
"160 92 CURVE SMOOTH",
"160 127 LINE",
"142 107 LINE",
"161 107 LINE",
"190 36 OFFCURVE",
"262 -10 OFFCURVE",
"345 -10 CURVE SMOOTH",
"439 -10 OFFCURVE",
"514 50 OFFCURVE",
"514 169 CURVE SMOOTH",
"514 548 LINE",
"488 548 LINE",
"488 170 LINE SMOOTH",
"488 70 OFFCURVE",
"433 12 OFFCURVE",
"343 12 CURVE SMOOTH",
"235 12 OFFCURVE",
"160 96 OFFCURVE",
"160 196 CURVE SMOOTH",
"160 548 LINE",
"134 548 LINE",
"134 85 LINE SMOOTH",
"134 30 OFFCURVE",
"116 14 OFFCURVE",
"81 14 CURVE SMOOTH",
"66 14 OFFCURVE",
"56 17 OFFCURVE",
"43 21 CURVE",
"38 -2 LINE",
"51 -7 OFFCURVE",
"67 -10 OFFCURVE",
"83 -10 CURVE SMOOTH"
);
}
);
width = 599;
},
{
anchors = (
{
name = bottom;
position = "{522, 0}";
},
{
name = top;
position = "{532, 536}";
},
{
name = top2;
position = "{316, 536}";
}
);
layerId = "6449CA81-A7C3-4005-93E5-765657812F1B";
paths = (
{
closed = 1;
nodes = (
"151 -11 OFFCURVE",
"184 14 OFFCURVE",
"184 61 CURVE SMOOTH",
"184 81 LINE",
"149 49 LINE",
"186 49 LINE",
"227 6 OFFCURVE",
"275 -10 OFFCURVE",
"335 -10 CURVE SMOOTH",
"461 -10 OFFCURVE",
"532 59 OFFCURVE",
"532 195 CURVE SMOOTH",
"532 548 LINE",
"444 548 LINE",
"444 201 LINE SMOOTH",
"444 114 OFFCURVE",
"405 63 OFFCURVE",
"320 63 CURVE SMOOTH",
"260 63 OFFCURVE",
"195 89 OFFCURVE",
"195 191 CURVE SMOOTH",
"195 548 LINE",
"107 548 LINE",
"107 101 LINE SMOOTH",
"107 70 OFFCURVE",
"90 59 OFFCURVE",
"67 59 CURVE SMOOTH",
"57 59 OFFCURVE",
"45 61 OFFCURVE",
"33 65 CURVE",
"20 3 LINE",
"42 -5 OFFCURVE",
"68 -11 OFFCURVE",
"95 -11 CURVE SMOOTH"
);
}
);
width = 614;
},
{
anchors = (
{
name = bottom;
position = "{581, 0}";
},
{
name = top;
position = "{591, 536}";
},
{
name = top2;
position = "{345, 536}";
}
);
layerId = "E5D3352E-10FF-4C03-AD9F-F95B1FD01257";
paths = (
{
closed = 1;
nodes = (
"200 -10 OFFCURVE",
"245 22 OFFCURVE",
"245 77 CURVE SMOOTH",
"245 96 LINE",
"210 65 LINE",
"246 65 LINE",
"282 16 OFFCURVE",
"327 -10 OFFCURVE",
"399 -10 CURVE SMOOTH",
"532 -10 OFFCURVE",
"591 80 OFFCURVE",
"591 189 CURVE SMOOTH",
"591 553 LINE",
"399 553 LINE",
"399 204 LINE SMOOTH",
"399 156 OFFCURVE",
"382 134 OFFCURVE",
"346 134 CURVE SMOOTH",
"311 134 OFFCURVE",
"295 155 OFFCURVE",
"295 202 CURVE SMOOTH",
"295 553 LINE",
"103 553 LINE",
"103 160 LINE SMOOTH",
"103 142 OFFCURVE",
"96 134 OFFCURVE",
"77 134 CURVE SMOOTH",
"64 134 OFFCURVE",
"52 138 OFFCURVE",
"42 142 CURVE",
"15 20 LINE",
"47 1 OFFCURVE",
"87 -10 OFFCURVE",
"129 -10 CURVE SMOOTH"
);
}
);
width = 636;
},
{
anchors = (
{
name = bottom;
position = "{379, 0}";
},
{
name = top;
position = "{386, 536}";
},
{
name = top2;
position = "{240, 536}";
}
);
layerId = "009F2F33-BFE3-455D-BDCF-6F386AA465CF";
paths = (
{
closed = 1;
nodes = (
"99 -10 OFFCURVE",
"117 21 OFFCURVE",
"117 92 CURVE SMOOTH",
"117 127 LINE",
"102 107 LINE",
"118 107 LINE",
"141 39 OFFCURVE",
"191 -10 OFFCURVE",
"256 -10 CURVE SMOOTH",
"328 -10 OFFCURVE",
"386 50 OFFCURVE",
"386 169 CURVE SMOOTH",
"386 548 LINE",
"359 548 LINE",
"359 170 LINE SMOOTH",
"359 70 OFFCURVE",
"318 12 OFFCURVE",
"252 12 CURVE SMOOTH",
"174 12 OFFCURVE",
"119 96 OFFCURVE",
"119 196 CURVE SMOOTH",
"119 548 LINE",
"92 548 LINE",
"92 85 LINE SMOOTH",
"92 30 OFFCURVE",
"78 14 OFFCURVE",
"53 14 CURVE SMOOTH",
"42 14 OFFCURVE",
"34 17 OFFCURVE",
"25 21 CURVE",
"20 -2 LINE",
"31 -7 OFFCURVE",
"44 -10 OFFCURVE",
"57 -10 CURVE SMOOTH"
);
}
);
width = 445;
},
{
anchors = (
{
name = bottom;
position = "{398, 0}";
},
{
name = top;
position = "{405, 536}";
},
{
name = top2;
position = "{244, 536}";
}
);
layerId = "AA55D700-EA4F-438C-81A6-FEFC4FC5520F";
paths = (
{
closed = 1;
nodes = (
"120 -11 OFFCURVE",
"148 14 OFFCURVE",
"148 61 CURVE SMOOTH",
"148 67 LINE",
"132 49 LINE",
"150 49 LINE",
"179 8 OFFCURVE",
"207 -10 OFFCURVE",
"255 -10 CURVE SMOOTH",
"349 -10 OFFCURVE",
"405 59 OFFCURVE",
"405 195 CURVE SMOOTH",
"405 548 LINE",
"319 548 LINE",
"319 197 LINE SMOOTH",
"319 107 OFFCURVE",
"287 63 OFFCURVE",
"238 63 CURVE SMOOTH",
"201 63 OFFCURVE",
"158 89 OFFCURVE",
"158 191 CURVE SMOOTH",
"158 548 LINE",
"72 548 LINE",
"72 101 LINE SMOOTH",
"72 70 OFFCURVE",
"59 59 OFFCURVE",
"46 59 CURVE SMOOTH",
"40 59 OFFCURVE",
"30 61 OFFCURVE",
"22 65 CURVE",
"9 3 LINE",
"29 -5 OFFCURVE",
"53 -11 OFFCURVE",
"75 -11 CURVE SMOOTH"
);
}
);
width = 451;
},
{
anchors = (
{
name = bottom;
position = "{467, 0}";
},
{
name = top;
position = "{475, 536}";
},
{
name = top2;
position = "{276, 536}";
}
);
layerId = "71F2606D-B934-4F95-8EC7-C80FA20C45E9";
paths = (
{
closed = 1;
nodes = (
"161 -10 OFFCURVE",
"198 20 OFFCURVE",
"198 72 CURVE SMOOTH",
"198 92 LINE",
"170 60 LINE",
"199 60 LINE",
"227 12 OFFCURVE",
"263 -10 OFFCURVE",
"321 -10 CURVE SMOOTH",
"429 -10 OFFCURVE",
"475 74 OFFCURVE",
"475 191 CURVE SMOOTH",
"475 552 LINE",
"313 552 LINE",
"313 203 LINE SMOOTH",
"313 144 OFFCURVE",
"301 114 OFFCURVE",
"276 114 CURVE SMOOTH",
"250 114 OFFCURVE",
"241 136 OFFCURVE",
"241 199 CURVE SMOOTH",
"241 552 LINE",
"79 552 LINE",
"79 143 LINE SMOOTH",
"79 121 OFFCURVE",
"75 112 OFFCURVE",
"60 112 CURVE SMOOTH",
"49 112 OFFCURVE",
"40 116 OFFCURVE",
"32 120 CURVE",
"9 15 LINE",
"35 -1 OFFCURVE",
"69 -10 OFFCURVE",
"103 -10 CURVE SMOOTH"
);
}
);
width = 523;
}
);
note = uni0EA1;
unicode = 0EA1;
},
{
glyphname = "yoYa-lao";
lastChange = "2017-06-05 18:40:43 +0000";
layers = (
{
anchors = (
{
name = bottom;
position = "{472, 0}";
},
{
name = top;
position = "{373, 536}";
},
{
name = top2;
position = "{292, 536}";
}
);
layerId = "64BC062E-13E4-450B-B24E-D8A474022433";
paths = (
{
closed = 1;
nodes = (
"393 -10 OFFCURVE",
"482 45 OFFCURVE",
"482 175 CURVE SMOOTH",
"482 745 LINE",
"456 745 LINE",
"456 169 LINE SMOOTH",
"456 52 OFFCURVE",
"367 12 OFFCURVE",
"275 12 CURVE SMOOTH",
"182 12 OFFCURVE",
"95 52 OFFCURVE",
"95 155 CURVE SMOOTH",
"95 234 OFFCURVE",
"146 279 OFFCURVE",
"228 279 CURVE SMOOTH",
"267 279 LINE",
"267 301 LINE",
"228 301 LINE SMOOTH",
"167 301 OFFCURVE",
"92 332 OFFCURVE",
"92 423 CURVE SMOOTH",
"92 495 OFFCURVE",
"140 534 OFFCURVE",
"209 534 CURVE SMOOTH",
"235 534 OFFCURVE",
"265 528 OFFCURVE",
"279 523 CURVE",
"284 544 LINE",
"264 551 OFFCURVE",
"233 556 OFFCURVE",
"206 556 CURVE SMOOTH",
"123 556 OFFCURVE",
"65 508 OFFCURVE",
"65 422 CURVE SMOOTH",
"65 338 OFFCURVE",
"120 305 OFFCURVE",
"156 291 CURVE",
"156 287 LINE",
"124 274 OFFCURVE",
"68 244 OFFCURVE",
"68 156 CURVE SMOOTH",
"68 50 OFFCURVE",
"148 -10 OFFCURVE",
"273 -10 CURVE SMOOTH"
);
}
);
width = 567;
},
{
anchors = (
{
name = bottom;
position = "{527, 0}";
},
{
name = top;
position = "{415, 536}";
},
{
name = top2;
position = "{297, 536}";
}
);
guideLines = (
{
position = "{493, 714}";
}
);
layerId = "6449CA81-A7C3-4005-93E5-765657812F1B";
paths = (
{
closed = 1;
nodes = (
"454 -10 OFFCURVE",
"537 50 OFFCURVE",
"537 189 CURVE SMOOTH",
"537 714 LINE",
"449 714 LINE",
"449 179 LINE SMOOTH",
"449 97 OFFCURVE",
"403 63 OFFCURVE",
"305 63 CURVE SMOOTH",
"198 63 OFFCURVE",
"156 104 OFFCURVE",
"156 169 CURVE SMOOTH",
"156 234 OFFCURVE",
"197 263 OFFCURVE",
"275 263 CURVE SMOOTH",
"324 263 LINE",
"324 328 LINE",
"275 328 LINE SMOOTH",
"217 328 OFFCURVE",
"156 344 OFFCURVE",
"156 411 CURVE SMOOTH",
"156 458 OFFCURVE",
"185 485 OFFCURVE",
"240 485 CURVE SMOOTH",
"266 485 OFFCURVE",
"291 479 OFFCURVE",
"306 474 CURVE",
"321 542 LINE",
"301 551 OFFCURVE",
"265 558 OFFCURVE",
"228 558 CURVE SMOOTH",
"113 558 OFFCURVE",
"68 490 OFFCURVE",
"68 420 CURVE SMOOTH",
"68 344 OFFCURVE",
"121 308 OFFCURVE",
"162 296 CURVE",
"162 292 LINE",
"119 286 OFFCURVE",
"68 250 OFFCURVE",
"68 163 CURVE SMOOTH",
"68 54 OFFCURVE",
"149 -10 OFFCURVE",
"304 -10 CURVE SMOOTH"
);
}
);
width = 619;
},
{
anchors = (
{
name = bottom;
position = "{545, 0}";
},
{
name = top;
position = "{341, 536}";
},
{
name = top2;
position = "{217, 536}";
}
);
layerId = "E5D3352E-10FF-4C03-AD9F-F95B1FD01257";
paths = (
{
closed = 1;
nodes = (
"460 -10 OFFCURVE",
"555 53 OFFCURVE",
"555 206 CURVE SMOOTH",
"555 714 LINE",
"363 714 LINE",
"363 195 LINE SMOOTH",
"363 159 OFFCURVE",
"332 134 OFFCURVE",
"285 134 CURVE SMOOTH",
"249 134 OFFCURVE",
"213 148 OFFCURVE",
"213 182 CURVE SMOOTH",
"213 204 OFFCURVE",
"227 225 OFFCURVE",
"261 225 CURVE SMOOTH",
"313 225 LINE",
"313 334 LINE",
"261 334 LINE SMOOTH",
"231 334 OFFCURVE",
"213 351 OFFCURVE",
"213 380 CURVE SMOOTH",
"213 405 OFFCURVE",
"226 419 OFFCURVE",
"253 419 CURVE SMOOTH",
"265 419 OFFCURVE",
"283 416 OFFCURVE",
"296 412 CURVE",
"327 544 LINE",
"292 556 OFFCURVE",
"249 563 OFFCURVE",
"208 563 CURVE SMOOTH",
"76 563 OFFCURVE",
"25 489 OFFCURVE",
"25 412 CURVE SMOOTH",
"25 359 OFFCURVE",
"49 307 OFFCURVE",
"112 280 CURVE",
"112 278 LINE",
"58 258 OFFCURVE",
"25 216 OFFCURVE",
"25 156 CURVE SMOOTH",
"25 57 OFFCURVE",
"117 -10 OFFCURVE",
"291 -10 CURVE SMOOTH"
);
}
);
width = 605;
},
{
anchors = (
{
name = bottom;
position = "{338, 0}";
},
{
name = top;
position = "{267, 536}";
},
{
name = top2;
position = "{205, 536}";
}
);
layerId = "009F2F33-BFE3-455D-BDCF-6F386AA465CF";
paths = (
{
closed = 1;
nodes = (
"284 -10 OFFCURVE",
"345 45 OFFCURVE",
"345 175 CURVE SMOOTH",
"345 745 LINE",
"318 745 LINE",
"318 169 LINE SMOOTH",
"318 52 OFFCURVE",
"262 12 OFFCURVE",
"196 12 CURVE SMOOTH",
"130 12 OFFCURVE",
"75 53 OFFCURVE",
"75 154 CURVE SMOOTH",
"75 234 OFFCURVE",
"109 279 OFFCURVE",
"166 279 CURVE SMOOTH",
"195 279 LINE",
"195 301 LINE",
"166 301 LINE SMOOTH",
"124 301 OFFCURVE",
"73 332 OFFCURVE",
"73 423 CURVE SMOOTH",
"73 495 OFFCURVE",
"104 534 OFFCURVE",
"151 534 CURVE SMOOTH",
"169 534 OFFCURVE",
"189 528 OFFCURVE",
"199 523 CURVE",
"204 544 LINE",
"190 551 OFFCURVE",
"168 556 OFFCURVE",
"147 556 CURVE SMOOTH",
"85 556 OFFCURVE",
"46 508 OFFCURVE",
"46 422 CURVE SMOOTH",
"46 338 OFFCURVE",
"84 305 OFFCURVE",
"110 291 CURVE",
"110 287 LINE",
"86 274 OFFCURVE",
"48 244 OFFCURVE",
"48 156 CURVE SMOOTH",
"48 50 OFFCURVE",
"104 -10 OFFCURVE",
"196 -10 CURVE SMOOTH"
);
}
);
width = 404;
},
{
anchors = (
{
name = bottom;
position = "{368, 0}";
},
{
name = top;
position = "{261, 536}";
},
{
name = top2;
position = "{183, 536}";
}
);
layerId = "AA55D700-EA4F-438C-81A6-FEFC4FC5520F";
paths = (
{
closed = 1;
nodes = (
"312 -10 OFFCURVE",
"375 49 OFFCURVE",
"375 187 CURVE SMOOTH",
"375 718 LINE",
"289 718 LINE",
"289 178 LINE SMOOTH",
"289 90 OFFCURVE",
"255 57 OFFCURVE",
"205 57 CURVE SMOOTH",
"152 57 OFFCURVE",
"119 95 OFFCURVE",
"119 170 CURVE SMOOTH",
"119 232 OFFCURVE",
"141 265 OFFCURVE",
"182 265 CURVE SMOOTH",
"216 265 LINE",
"216 325 LINE",
"182 325 LINE SMOOTH",
"150 325 OFFCURVE",
"119 343 OFFCURVE",
"119 412 CURVE SMOOTH",
"119 463 OFFCURVE",
"136 491 OFFCURVE",
"168 491 CURVE SMOOTH",
"182 491 OFFCURVE",
"198 485 OFFCURVE",
"208 480 CURVE",
"222 542 LINE",
"203 551 OFFCURVE",
"177 558 OFFCURVE",
"150 558 CURVE SMOOTH",
"69 558 OFFCURVE",
"34 494 OFFCURVE",
"34 416 CURVE SMOOTH",
"34 349 OFFCURVE",
"60 308 OFFCURVE",
"97 295 CURVE",
"97 291 LINE",
"65 286 OFFCURVE",
"34 246 OFFCURVE",
"34 165 CURVE SMOOTH",
"34 53 OFFCURVE",
"94 -10 OFFCURVE",
"205 -10 CURVE SMOOTH"
);
}
);
width = 423;
},
{
anchors = (
{
name = bottom;
position = "{453, 0}";
},
{
name = top;
position = "{277, 536}";
},
{
name = top2;
position = "{183, 536}";
}
);
layerId = "71F2606D-B934-4F95-8EC7-C80FA20C45E9";
paths = (
{
closed = 1;
nodes = (
"392 -10 OFFCURVE",
"469 52 OFFCURVE",
"469 201 CURVE SMOOTH",
"469 714 LINE",
"307 714 LINE",
"307 190 LINE SMOOTH",
"307 141 OFFCURVE",
"283 114 OFFCURVE",
"246 114 CURVE SMOOTH",
"223 114 OFFCURVE",
"190 135 OFFCURVE",
"190 178 CURVE SMOOTH",
"190 213 OFFCURVE",
"199 236 OFFCURVE",
"223 236 CURVE SMOOTH",
"265 236 LINE",
"265 332 LINE",
"223 332 LINE SMOOTH",
"201 332 OFFCURVE",
"190 349 OFFCURVE",
"190 389 CURVE SMOOTH",
"190 420 OFFCURVE",
"200 438 OFFCURVE",
"219 438 CURVE SMOOTH",
"227 438 OFFCURVE",
"241 434 OFFCURVE",
"251 430 CURVE",
"278 543 LINE",
"248 555 OFFCURVE",
"213 562 OFFCURVE",
"180 562 CURVE SMOOTH",
"73 562 OFFCURVE",
"32 489 OFFCURVE",
"32 414 CURVE SMOOTH",
"32 355 OFFCURVE",
"49 307 OFFCURVE",
"101 285 CURVE",
"101 282 LINE",
"57 266 OFFCURVE",
"32 226 OFFCURVE",
"32 158 CURVE SMOOTH",
"32 56 OFFCURVE",
"110 -10 OFFCURVE",
"251 -10 CURVE SMOOTH"
);
}
);
width = 521;
}
);
note = uni0EA2;
unicode = 0EA2;
},
{
glyphname = "roRot-lao";
lastChange = "2017-06-05 18:40:43 +0000";
layers = (
{
anchors = (
{
name = bottom;
position = "{429, 0}";
},
{
name = top;
position = "{459, 536}";
},
{
name = top2;
position = "{283, 536}";
}
);
layerId = "64BC062E-13E4-450B-B24E-D8A474022433";
paths = (
{
closed = 1;
nodes = (
"419 -10 OFFCURVE",
"479 56 OFFCURVE",
"479 152 CURVE SMOOTH",
"479 279 OFFCURVE",
"374 303 OFFCURVE",
"258 329 CURVE SMOOTH",
"156 352 OFFCURVE",
"93 369 OFFCURVE",
"93 441 CURVE SMOOTH",
"93 507 OFFCURVE",
"144 534 OFFCURVE",
"247 534 CURVE SMOOTH",
"318 534 OFFCURVE",
"388 521 OFFCURVE",
"456 498 CURVE",
"456 522 LINE",
"388 544 OFFCURVE",
"317 556 OFFCURVE",
"246 556 CURVE SMOOTH",
"126 556 OFFCURVE",
"65 521 OFFCURVE",
"65 441 CURVE SMOOTH",
"65 347 OFFCURVE",
"150 328 OFFCURVE",
"247 306 CURVE SMOOTH",
"380 276 OFFCURVE",
"451 255 OFFCURVE",
"451 153 CURVE SMOOTH",
"451 44 OFFCURVE",
"370 12 OFFCURVE",
"275 12 CURVE SMOOTH",
"192 12 OFFCURVE",
"93 36 OFFCURVE",
"93 137 CURVE SMOOTH",
"93 157 OFFCURVE",
"97 172 OFFCURVE",
"102 183 CURVE",
"77 193 LINE",
"69 178 OFFCURVE",
"65 158 OFFCURVE",
"65 137 CURVE SMOOTH",
"65 58 OFFCURVE",
"122 -10 OFFCURVE",
"272 -10 CURVE SMOOTH"
);
}
);
width = 544;
},
{
anchors = (
{
name = bottom;
position = "{508, 0}";
},
{
name = top;
position = "{522, 536}";
},
{
name = top2;
position = "{306, 536}";
}
);
layerId = "6449CA81-A7C3-4005-93E5-765657812F1B";
paths = (
{
closed = 1;
nodes = (
"469 -10 OFFCURVE",
"542 64 OFFCURVE",
"542 161 CURVE SMOOTH",
"542 285 OFFCURVE",
"422 320 OFFCURVE",
"315 345 CURVE SMOOTH",
"216 368 OFFCURVE",
"153 380 OFFCURVE",
"153 430 CURVE SMOOTH",
"153 472 OFFCURVE",
"200 485 OFFCURVE",
"291 485 CURVE SMOOTH",
"370 485 OFFCURVE",
"440 475 OFFCURVE",
"522 445 CURVE",
"522 517 LINE",
"451 546 OFFCURVE",
"366 558 OFFCURVE",
"287 558 CURVE SMOOTH",
"153 558 OFFCURVE",
"68 524 OFFCURVE",
"68 430 CURVE SMOOTH",
"68 319 OFFCURVE",
"183 302 OFFCURVE",
"294 275 CURVE SMOOTH",
"394 251 OFFCURVE",
"457 230 OFFCURVE",
"457 159 CURVE SMOOTH",
"457 87 OFFCURVE",
"391 63 OFFCURVE",
"302 63 CURVE SMOOTH",
"225 63 OFFCURVE",
"153 81 OFFCURVE",
"153 152 CURVE SMOOTH",
"153 173 OFFCURVE",
"159 189 OFFCURVE",
"168 199 CURVE",
"100 232 LINE",
"86 219 OFFCURVE",
"68 194 OFFCURVE",
"68 152 CURVE SMOOTH",
"68 69 OFFCURVE",
"137 -10 OFFCURVE",
"306 -10 CURVE SMOOTH"
);
}
);
width = 615;
},
{
anchors = (
{
name = bottom;
position = "{525, 0}";
},
{
name = top;
position = "{538, 536}";
},
{
name = top2;
position = "{298, 536}";
}
);
layerId = "E5D3352E-10FF-4C03-AD9F-F95B1FD01257";
paths = (
{
closed = 1;
nodes = (
"478 -10 OFFCURVE",
"555 66 OFFCURVE",
"555 180 CURVE SMOOTH",
"555 309 OFFCURVE",
"458 337 OFFCURVE",
"322 365 CURVE SMOOTH",
"239 382 OFFCURVE",
"213 385 OFFCURVE",
"213 399 CURVE SMOOTH",
"213 410 OFFCURVE",
"231 420 OFFCURVE",
"305 420 CURVE SMOOTH",
"398 420 OFFCURVE",
"472 404 OFFCURVE",
"538 384 CURVE",
"538 521 LINE",
"469 547 OFFCURVE",
"370 563 OFFCURVE",
"273 563 CURVE SMOOTH",
"124 563 OFFCURVE",
"25 525 OFFCURVE",
"25 417 CURVE SMOOTH",
"25 314 OFFCURVE",
"114 287 OFFCURVE",
"204 261 CURVE SMOOTH",
"319 228 OFFCURVE",
"367 220 OFFCURVE",
"367 178 CURVE SMOOTH",
"367 151 OFFCURVE",
"346 131 OFFCURVE",
"291 131 CURVE SMOOTH",
"247 131 OFFCURVE",
"214 144 OFFCURVE",
"214 173 CURVE SMOOTH",
"214 187 OFFCURVE",
"222 199 OFFCURVE",
"232 206 CURVE",
"78 263 LINE",
"51 243 OFFCURVE",
"25 210 OFFCURVE",
"25 158 CURVE SMOOTH",
"25 66 OFFCURVE",
"108 -10 OFFCURVE",
"293 -10 CURVE SMOOTH"
);
}
);
width = 580;
},
{
anchors = (
{
name = bottom;
position = "{311, 0}";
},
{
name = top;
position = "{330, 536}";
},
{
name = top2;
position = "{201, 536}";
}
);
layerId = "009F2F33-BFE3-455D-BDCF-6F386AA465CF";
paths = (
{
closed = 1;
nodes = (
"300 -10 OFFCURVE",
"344 56 OFFCURVE",
"344 152 CURVE SMOOTH",
"344 279 OFFCURVE",
"269 303 OFFCURVE",
"189 329 CURVE SMOOTH",
"119 352 OFFCURVE",
"74 369 OFFCURVE",
"74 440 CURVE SMOOTH",
"74 503 OFFCURVE",
"109 534 OFFCURVE",
"182 534 CURVE SMOOTH",
"228 534 OFFCURVE",
"279 521 OFFCURVE",
"328 498 CURVE",
"328 522 LINE",
"280 544 OFFCURVE",
"229 556 OFFCURVE",
"178 556 CURVE SMOOTH",
"94 556 OFFCURVE",
"46 521 OFFCURVE",
"46 441 CURVE SMOOTH",
"46 347 OFFCURVE",
"110 328 OFFCURVE",
"179 306 CURVE SMOOTH",
"266 278 OFFCURVE",
"317 256 OFFCURVE",
"317 152 CURVE SMOOTH",
"317 44 OFFCURVE",
"262 12 OFFCURVE",
"196 12 CURVE SMOOTH",
"139 12 OFFCURVE",
"74 36 OFFCURVE",
"74 136 CURVE SMOOTH",
"74 157 OFFCURVE",
"77 172 OFFCURVE",
"81 183 CURVE",
"57 193 LINE",
"51 178 OFFCURVE",
"46 159 OFFCURVE",
"46 133 CURVE SMOOTH",
"46 59 OFFCURVE",
"88 -10 OFFCURVE",
"195 -10 CURVE SMOOTH"
);
}
);
width = 391;
},
{
anchors = (
{
name = bottom;
position = "{351, 0}";
},
{
name = top;
position = "{362, 536}";
},
{
name = top2;
position = "{209, 536}";
}
);
layerId = "AA55D700-EA4F-438C-81A6-FEFC4FC5520F";
paths = (
{
closed = 1;
nodes = (
"328 -10 OFFCURVE",
"381 62 OFFCURVE",
"381 163 CURVE SMOOTH",
"381 286 OFFCURVE",
"303 314 OFFCURVE",
"216 344 CURVE SMOOTH",
"152 366 OFFCURVE",
"118 380 OFFCURVE",
"118 427 CURVE SMOOTH",
"118 472 OFFCURVE",
"150 491 OFFCURVE",
"210 491 CURVE SMOOTH",
"260 491 OFFCURVE",
"314 478 OFFCURVE",
"362 448 CURVE",
"362 520 LINE",
"313 548 OFFCURVE",
"255 558 OFFCURVE",
"202 558 CURVE SMOOTH",
"100 558 OFFCURVE",
"34 521 OFFCURVE",
"34 426 CURVE SMOOTH",
"34 323 OFFCURVE",
"113 300 OFFCURVE",
"173 280 CURVE SMOOTH",
"252 254 OFFCURVE",
"296 234 OFFCURVE",
"296 155 CURVE SMOOTH",
"296 82 OFFCURVE",
"259 57 OFFCURVE",
"208 57 CURVE SMOOTH",
"164 57 OFFCURVE",
"118 75 OFFCURVE",
"118 148 CURVE SMOOTH",
"118 172 OFFCURVE",
"123 187 OFFCURVE",
"129 197 CURVE",
"60 227 LINE",
"47 214 OFFCURVE",
"34 190 OFFCURVE",
"34 150 CURVE SMOOTH",
"34 68 OFFCURVE",
"88 -10 OFFCURVE",
"210 -10 CURVE SMOOTH"
);
}
);
width = 411;
},
{
anchors = (
{
name = bottom;
position = "{437, 0}";
},
{
name = top;
position = "{447, 536}";
},
{
name = top2;
position = "{253, 536}";
}
);
layerId = "71F2606D-B934-4F95-8EC7-C80FA20C45E9";
paths = (
{
closed = 1;
nodes = (
"399 -10 OFFCURVE",
"461 65 OFFCURVE",
"461 175 CURVE SMOOTH",
"461 303 OFFCURVE",
"385 332 OFFCURVE",
"273 360 CURVE SMOOTH",
"199 379 OFFCURVE",
"191 383 OFFCURVE",
"191 409 CURVE SMOOTH",
"191 428 OFFCURVE",
"207 439 OFFCURVE",
"259 439 CURVE SMOOTH",
"337 439 OFFCURVE",
"396 424 OFFCURVE",
"447 401 CURVE",
"447 520 LINE",
"392 547 OFFCURVE",
"312 562 OFFCURVE",
"232 562 CURVE SMOOTH",
"113 562 OFFCURVE",
"32 525 OFFCURVE",
"32 421 CURVE SMOOTH",
"32 317 OFFCURVE",
"98 291 OFFCURVE",
"171 266 CURVE SMOOTH",
"274 231 OFFCURVE",
"302 220 OFFCURVE",
"302 173 CURVE SMOOTH",
"302 133 OFFCURVE",
"289 111 OFFCURVE",
"249 111 CURVE SMOOTH",
"215 111 OFFCURVE",
"192 126 OFFCURVE",
"192 166 CURVE SMOOTH",
"192 183 OFFCURVE",
"197 195 OFFCURVE",
"206 204 CURVE",
"76 254 LINE",
"53 236 OFFCURVE",
"32 205 OFFCURVE",
"32 156 CURVE SMOOTH",
"32 67 OFFCURVE",
"100 -10 OFFCURVE",
"249 -10 CURVE SMOOTH"
);
}
);
width = 492;
}
);
note = uni0EA3;
unicode = 0EA3;
},
{
glyphname = "loLing-lao";
lastChange = "2017-06-05 18:40:43 +0000";
layers = (
{
anchors = (
{
name = bottom;
position = "{507, 0}";
},
{
name = top;
position = "{507, 536}";
},
{
name = top2;
position = "{313, 536}";
}
);
layerId = "64BC062E-13E4-450B-B24E-D8A474022433";
paths = (
{
closed = 1;
nodes = (
"211 -10 OFFCURVE",
"232 -7 OFFCURVE",
"247 -1 CURVE",
"241 19 LINE",
"231 15 OFFCURVE",
"212 12 OFFCURVE",
"195 12 CURVE SMOOTH",
"131 12 OFFCURVE",
"93 54 OFFCURVE",
"93 142 CURVE SMOOTH",
"93 232 OFFCURVE",
"132 274 OFFCURVE",
"194 274 CURVE SMOOTH",
"248 274 OFFCURVE",
"278 242 OFFCURVE",
"293 193 CURVE SMOOTH",
"331 71 LINE SMOOTH",
"348 16 OFFCURVE",
"376 -10 OFFCURVE",
"432 -10 CURVE SMOOTH",
"492 -10 OFFCURVE",
"517 19 OFFCURVE",
"517 91 CURVE SMOOTH",
"517 367 LINE SMOOTH",
"517 497 OFFCURVE",
"431 556 OFFCURVE",
"292 556 CURVE SMOOTH",
"222 556 OFFCURVE",
"145 541 OFFCURVE",
"99 523 CURVE",
"99 497 LINE",
"160 520 OFFCURVE",
"218 534 OFFCURVE",
"288 534 CURVE SMOOTH",
"427 534 OFFCURVE",
"491 479 OFFCURVE",
"491 364 CURVE SMOOTH",
"491 84 LINE SMOOTH",
"491 37 OFFCURVE",
"478 15 OFFCURVE",
"431 15 CURVE SMOOTH",
"391 15 OFFCURVE",
"371 32 OFFCURVE",
"358 73 CURVE SMOOTH",
"319 197 LINE SMOOTH",
"301 255 OFFCURVE",
"269 296 OFFCURVE",
"196 296 CURVE SMOOTH",
"101 296 OFFCURVE",
"65 225 OFFCURVE",
"65 141 CURVE SMOOTH",
"65 48 OFFCURVE",
"109 -10 OFFCURVE",
"192 -10 CURVE SMOOTH"
);
}
);
width = 602;
},
{
anchors = (
{
name = bottom;
position = "{534, 0}";
},
{
name = top;
position = "{534, 536}";
},
{
name = top2;
position = "{318, 536}";
}
);
layerId = "6449CA81-A7C3-4005-93E5-765657812F1B";
paths = (
{
closed = 1;
nodes = (
"207 -10 OFFCURVE",
"228 -5 OFFCURVE",
"242 0 CURVE",
"229 60 LINE",
"220 57 OFFCURVE",
"208 55 OFFCURVE",
"196 55 CURVE SMOOTH",
"152 55 OFFCURVE",
"132 82 OFFCURVE",
"132 139 CURVE SMOOTH",
"132 206 OFFCURVE",
"160 234 OFFCURVE",
"204 234 CURVE SMOOTH",
"237 234 OFFCURVE",
"259 219 OFFCURVE",
"269 188 CURVE SMOOTH",
"306 73 LINE SMOOTH",
"324 18 OFFCURVE",
"355 -10 OFFCURVE",
"421 -10 CURVE SMOOTH",
"495 -10 OFFCURVE",
"544 26 OFFCURVE",
"544 107 CURVE SMOOTH",
"544 361 LINE SMOOTH",
"544 496 OFFCURVE",
"437 558 OFFCURVE",
"296 558 CURVE SMOOTH",
"213 558 OFFCURVE",
"122 537 OFFCURVE",
"84 517 CURVE",
"84 442 LINE",
"138 470 OFFCURVE",
"222 485 OFFCURVE",
"284 485 CURVE SMOOTH",
"389 485 OFFCURVE",
"456 442 OFFCURVE",
"456 355 CURVE SMOOTH",
"456 90 LINE SMOOTH",
"456 63 OFFCURVE",
"445 50 OFFCURVE",
"422 50 CURVE SMOOTH",
"403 50 OFFCURVE",
"390 59 OFFCURVE",
"382 84 CURVE SMOOTH",
"343 207 LINE SMOOTH",
"324 266 OFFCURVE",
"285 303 OFFCURVE",
"207 303 CURVE SMOOTH",
"98 303 OFFCURVE",
"53 232 OFFCURVE",
"53 136 CURVE SMOOTH",
"53 46 OFFCURVE",
"93 -10 OFFCURVE",
"181 -10 CURVE SMOOTH"
);
}
);
width = 626;
},
{
anchors = (
{
name = bottom;
position = "{600, 0}";
},
{
name = top;
position = "{600, 536}";
},
{
name = top2;
position = "{329, 536}";
}
);
layerId = "E5D3352E-10FF-4C03-AD9F-F95B1FD01257";
paths = (
{
closed = 1;
nodes = (
"208 -10 OFFCURVE",
"242 -3 OFFCURVE",
"265 9 CURVE",
"235 131 LINE",
"224 128 OFFCURVE",
"213 127 OFFCURVE",
"207 127 CURVE SMOOTH",
"188 127 OFFCURVE",
"176 140 OFFCURVE",
"176 162 CURVE SMOOTH",
"176 184 OFFCURVE",
"189 196 OFFCURVE",
"209 196 CURVE SMOOTH",
"233 196 OFFCURVE",
"248 179 OFFCURVE",
"255 151 CURVE SMOOTH",
"266 107 LINE SMOOTH",
"285 31 OFFCURVE",
"338 -10 OFFCURVE",
"428 -10 CURVE SMOOTH",
"534 -10 OFFCURVE",
"610 48 OFFCURVE",
"610 146 CURVE SMOOTH",
"610 343 LINE SMOOTH",
"610 498 OFFCURVE",
"477 564 OFFCURVE",
"303 564 CURVE SMOOTH",
"220 564 OFFCURVE",
"134 549 OFFCURVE",
"56 520 CURVE",
"56 382 LINE",
"118 405 OFFCURVE",
"193 420 OFFCURVE",
"259 420 CURVE SMOOTH",
"351 420 OFFCURVE",
"426 391 OFFCURVE",
"426 313 CURVE SMOOTH",
"426 151 LINE SMOOTH",
"426 140 OFFCURVE",
"421 134 OFFCURVE",
"412 134 CURVE SMOOTH",
"403 134 OFFCURVE",
"397 140 OFFCURVE",
"395 150 CURVE SMOOTH",
"377 227 LINE SMOOTH",
"361 297 OFFCURVE",
"302 341 OFFCURVE",
"209 341 CURVE SMOOTH",
"94 341 OFFCURVE",
"25 275 OFFCURVE",
"25 159 CURVE SMOOTH",
"25 55 OFFCURVE",
"80 -10 OFFCURVE",
"176 -10 CURVE SMOOTH"
);
}
);
width = 655;
},
{
anchors = (
{
name = bottom;
position = "{359, 0}";
},
{
name = top;
position = "{359, 536}";
},
{
name = top2;
position = "{220, 536}";
}
);
layerId = "009F2F33-BFE3-455D-BDCF-6F386AA465CF";
paths = (
{
closed = 1;
nodes = (
"147 -10 OFFCURVE",
"162 -7 OFFCURVE",
"172 -1 CURVE",
"167 19 LINE",
"160 15 OFFCURVE",
"148 12 OFFCURVE",
"137 12 CURVE SMOOTH",
"95 12 OFFCURVE",
"71 54 OFFCURVE",
"71 142 CURVE SMOOTH",
"71 232 OFFCURVE",
"96 274 OFFCURVE",
"137 274 CURVE SMOOTH",
"171 274 OFFCURVE",
"191 245 OFFCURVE",
"202 193 CURVE SMOOTH",
"228 71 LINE SMOOTH",
"240 16 OFFCURVE",
"260 -10 OFFCURVE",
"301 -10 CURVE SMOOTH",
"345 -10 OFFCURVE",
"366 19 OFFCURVE",
"366 91 CURVE SMOOTH",
"366 367 LINE SMOOTH",
"366 497 OFFCURVE",
"303 556 OFFCURVE",
"204 556 CURVE SMOOTH",
"154 556 OFFCURVE",
"98 541 OFFCURVE",
"67 523 CURVE",
"67 497 LINE",
"109 520 OFFCURVE",
"153 534 OFFCURVE",
"200 534 CURVE SMOOTH",
"294 534 OFFCURVE",
"339 479 OFFCURVE",
"339 364 CURVE SMOOTH",
"339 84 LINE SMOOTH",
"339 37 OFFCURVE",
"330 15 OFFCURVE",
"301 15 CURVE SMOOTH",
"276 15 OFFCURVE",
"263 32 OFFCURVE",
"254 73 CURVE SMOOTH",
"227 197 LINE SMOOTH",
"214 255 OFFCURVE",
"191 296 OFFCURVE",
"139 296 CURVE SMOOTH",
"70 296 OFFCURVE",
"44 225 OFFCURVE",
"44 140 CURVE SMOOTH",
"44 48 OFFCURVE",
"74 -10 OFFCURVE",
"133 -10 CURVE SMOOTH"
);
}
);
width = 425;
},
{
anchors = (
{
name = bottom;
position = "{391, 0}";
},
{
name = top;
position = "{391, 536}";
},
{
name = top2;
position = "{225, 536}";
}
);
layerId = "AA55D700-EA4F-438C-81A6-FEFC4FC5520F";
paths = (
{
closed = 1;
nodes = (
"142 -10 OFFCURVE",
"164 -5 OFFCURVE",
"177 0 CURVE",
"164 55 LINE",
"157 52 OFFCURVE",
"148 50 OFFCURVE",
"141 50 CURVE SMOOTH",
"114 50 OFFCURVE",
"101 79 OFFCURVE",
"101 142 CURVE SMOOTH",
"101 211 OFFCURVE",
"117 239 OFFCURVE",
"147 239 CURVE SMOOTH",
"171 239 OFFCURVE",
"180 222 OFFCURVE",
"186 189 CURVE SMOOTH",
"207 72 LINE SMOOTH",
"217 17 OFFCURVE",
"246 -10 OFFCURVE",
"298 -10 CURVE SMOOTH",
"358 -10 OFFCURVE",
"400 25 OFFCURVE",
"400 105 CURVE SMOOTH",
"400 362 LINE SMOOTH",
"400 496 OFFCURVE",
"318 558 OFFCURVE",
"208 558 CURVE SMOOTH",
"157 558 OFFCURVE",
"97 545 OFFCURVE",
"52 522 CURVE",
"52 451 LINE",
"97 476 OFFCURVE",
"147 491 OFFCURVE",
"191 491 CURVE SMOOTH",
"266 491 OFFCURVE",
"314 447 OFFCURVE",
"314 356 CURVE SMOOTH",
"314 89 LINE SMOOTH",
"314 60 OFFCURVE",
"308 46 OFFCURVE",
"293 46 CURVE SMOOTH",
"281 46 OFFCURVE",
"273 56 OFFCURVE",
"268 83 CURVE SMOOTH",
"247 203 LINE SMOOTH",
"236 267 OFFCURVE",
"206 302 OFFCURVE",
"143 302 CURVE SMOOTH",
"54 302 OFFCURVE",
"24 232 OFFCURVE",
"24 142 CURVE SMOOTH",
"24 44 OFFCURVE",
"59 -10 OFFCURVE",
"123 -10 CURVE SMOOTH"
);
}
);
width = 446;
},
{
anchors = (
{
name = bottom;
position = "{501, 0}";
},
{
name = top;
position = "{501, 536}";
},
{
name = top2;
position = "{279, 536}";
}
);
layerId = "71F2606D-B934-4F95-8EC7-C80FA20C45E9";
paths = (
{
closed = 1;
nodes = (
"182 -10 OFFCURVE",
"210 -4 OFFCURVE",
"229 6 CURVE",
"204 111 LINE",
"195 108 OFFCURVE",
"186 106 OFFCURVE",
"182 106 CURVE SMOOTH",
"169 106 OFFCURVE",
"160 123 OFFCURVE",
"160 155 CURVE SMOOTH",
"160 190 OFFCURVE",
"169 207 OFFCURVE",
"183 207 CURVE SMOOTH",
"201 207 OFFCURVE",
"213 191 OFFCURVE",
"217 162 CURVE SMOOTH",
"227 97 LINE SMOOTH",
"238 27 OFFCURVE",
"284 -10 OFFCURVE",
"358 -10 CURVE SMOOTH",
"446 -10 OFFCURVE",
"509 42 OFFCURVE",
"509 135 CURVE SMOOTH",
"509 348 LINE SMOOTH",
"509 497 OFFCURVE",
"401 562 OFFCURVE",
"256 562 CURVE SMOOTH",
"193 562 OFFCURVE",
"123 546 OFFCURVE",
"58 519 CURVE",
"58 399 LINE",
"108 424 OFFCURVE",
"167 439 OFFCURVE",
"221 439 CURVE SMOOTH",
"293 439 OFFCURVE",
"354 406 OFFCURVE",
"354 325 CURVE SMOOTH",
"354 133 LINE SMOOTH",
"354 118 OFFCURVE",
"350 110 OFFCURVE",
"344 110 CURVE SMOOTH",
"338 110 OFFCURVE",
"334 117 OFFCURVE",
"332 131 CURVE SMOOTH",
"318 221 LINE SMOOTH",
"308 288 OFFCURVE",
"258 330 OFFCURVE",
"183 330 CURVE SMOOTH",
"90 330 OFFCURVE",
"33 263 OFFCURVE",
"33 152 CURVE SMOOTH",
"33 52 OFFCURVE",
"78 -10 OFFCURVE",
"156 -10 CURVE SMOOTH"
);
}
);
width = 557;
}
);
note = uni0EA5;
unicode = 0EA5;
},
{
glyphname = "woWi-lao";
lastChange = "2017-06-05 18:40:43 +0000";
layers = (
{
anchors = (
{
name = bottom;
position = "{448, 0}";
},
{
name = top;
position = "{448, 536}";
},
{
name = top2;
position = "{281, 536}";
}
);
layerId = "64BC062E-13E4-450B-B24E-D8A474022433";
paths = (
{
closed = 1;
nodes = (
"426 -10 OFFCURVE",
"488 90 OFFCURVE",
"488 279 CURVE SMOOTH",
"488 467 OFFCURVE",
"427 556 OFFCURVE",
"260 556 CURVE SMOOTH",
"198 556 OFFCURVE",
"134 544 OFFCURVE",
"88 523 CURVE",
"88 497 LINE",
"138 518 OFFCURVE",
"193 534 OFFCURVE",
"259 534 CURVE SMOOTH",
"404 534 OFFCURVE",
"460 458 OFFCURVE",
"460 277 CURVE SMOOTH",
"460 104 OFFCURVE",
"409 15 OFFCURVE",
"264 15 CURVE SMOOTH",
"153 15 OFFCURVE",
"93 67 OFFCURVE",
"93 146 CURVE SMOOTH",
"93 160 OFFCURVE",
"95 169 OFFCURVE",
"99 178 CURVE",
"73 185 LINE",
"67 172 OFFCURVE",
"65 162 OFFCURVE",
"65 147 CURVE SMOOTH",
"65 53 OFFCURVE",
"139 -10 OFFCURVE",
"266 -10 CURVE SMOOTH"
);
}
);
width = 553;
},
{
anchors = (
{
name = bottom;
position = "{487, 0}";
},
{
name = top;
position = "{487, 536}";
},
{
name = top2;
position = "{278, 536}";
}
);
layerId = "6449CA81-A7C3-4005-93E5-765657812F1B";
paths = (
{
closed = 1;
nodes = (
"407 -10 OFFCURVE",
"515 57 OFFCURVE",
"515 274 CURVE SMOOTH",
"515 497 OFFCURVE",
"400 558 OFFCURVE",
"251 558 CURVE SMOOTH",
"170 558 OFFCURVE",
"103 540 OFFCURVE",
"59 517 CURVE",
"59 439 LINE",
"115 468 OFFCURVE",
"175 485 OFFCURVE",
"244 485 CURVE SMOOTH",
"354 485 OFFCURVE",
"427 441 OFFCURVE",
"427 272 CURVE SMOOTH",
"427 116 OFFCURVE",
"365 63 OFFCURVE",
"261 63 CURVE SMOOTH",
"174 63 OFFCURVE",
"126 100 OFFCURVE",
"126 156 CURVE SMOOTH",
"126 170 OFFCURVE",
"129 181 OFFCURVE",
"133 190 CURVE",
"51 213 LINE",
"44 198 OFFCURVE",
"39 182 OFFCURVE",
"39 157 CURVE SMOOTH",
"39 50 OFFCURVE",
"134 -10 OFFCURVE",
"267 -10 CURVE SMOOTH"
);
}
);
width = 586;
},
{
anchors = (
{
name = bottom;
position = "{525, 0}";
},
{
name = top;
position = "{525, 536}";
},
{
name = top2;
position = "{292, 536}";
}
);
layerId = "E5D3352E-10FF-4C03-AD9F-F95B1FD01257";
paths = (
{
closed = 1;
nodes = (
"451 -10 OFFCURVE",
"552 88 OFFCURVE",
"552 281 CURVE SMOOTH",
"552 465 OFFCURVE",
"461 563 OFFCURVE",
"272 563 CURVE SMOOTH",
"198 563 OFFCURVE",
"123 548 OFFCURVE",
"54 521 CURVE",
"54 383 LINE",
"122 408 OFFCURVE",
"184 419 OFFCURVE",
"227 419 CURVE SMOOTH",
"318 419 OFFCURVE",
"360 371 OFFCURVE",
"360 271 CURVE SMOOTH",
"360 183 OFFCURVE",
"327 131 OFFCURVE",
"260 131 CURVE SMOOTH",
"213 131 OFFCURVE",
"183 156 OFFCURVE",
"183 194 CURVE SMOOTH",
"183 211 OFFCURVE",
"189 231 OFFCURVE",
"198 243 CURVE",
"63 292 LINE",
"39 257 OFFCURVE",
"25 215 OFFCURVE",
"25 172 CURVE SMOOTH",
"25 59 OFFCURVE",
"124 -10 OFFCURVE",
"273 -10 CURVE SMOOTH"
);
}
);
width = 580;
},
{
anchors = (
{
name = bottom;
position = "{319, 0}";
},
{
name = top;
position = "{319, 536}";
},
{
name = top2;
position = "{196, 536}";
}
);
layerId = "009F2F33-BFE3-455D-BDCF-6F386AA465CF";
paths = (
{
closed = 1;
nodes = (
"296 -10 OFFCURVE",
"345 89 OFFCURVE",
"345 278 CURVE SMOOTH",
"345 469 OFFCURVE",
"295 556 OFFCURVE",
"179 556 CURVE SMOOTH",
"136 556 OFFCURVE",
"90 544 OFFCURVE",
"58 523 CURVE",
"58 497 LINE",
"94 518 OFFCURVE",
"133 534 OFFCURVE",
"178 534 CURVE SMOOTH",
"276 534 OFFCURVE",
"318 459 OFFCURVE",
"318 277 CURVE SMOOTH",
"318 103 OFFCURVE",
"280 15 OFFCURVE",
"184 15 CURVE SMOOTH",
"110 15 OFFCURVE",
"70 67 OFFCURVE",
"70 147 CURVE SMOOTH",
"70 160 OFFCURVE",
"71 169 OFFCURVE",
"74 178 CURVE",
"48 185 LINE",
"44 172 OFFCURVE",
"42 163 OFFCURVE",
"42 146 CURVE SMOOTH",
"42 53 OFFCURVE",
"98 -10 OFFCURVE",
"186 -10 CURVE SMOOTH"
);
}
);
width = 391;
},
{
anchors = (
{
name = bottom;
position = "{347, 0}";
},
{
name = top;
position = "{347, 536}";
},
{
name = top2;
position = "{199, 536}";
}
);
layerId = "AA55D700-EA4F-438C-81A6-FEFC4FC5520F";
paths = (
{
closed = 1;
nodes = (
"305 -10 OFFCURVE",
"368 60 OFFCURVE",
"368 271 CURVE SMOOTH",
"368 495 OFFCURVE",
"297 558 OFFCURVE",
"180 558 CURVE SMOOTH",
"123 558 OFFCURVE",
"78 543 OFFCURVE",
"43 525 CURVE",
"43 457 LINE",
"85 477 OFFCURVE",
"122 491 OFFCURVE",
"165 491 CURVE SMOOTH",
"244 491 OFFCURVE",
"282 445 OFFCURVE",
"282 272 CURVE SMOOTH",
"282 114 OFFCURVE",
"250 57 OFFCURVE",
"184 57 CURVE SMOOTH",
"131 57 OFFCURVE",
"100 94 OFFCURVE",
"100 143 CURVE SMOOTH",
"100 156 OFFCURVE",
"102 173 OFFCURVE",
"111 189 CURVE",
"45 210 LINE",
"32 184 OFFCURVE",
"29 159 OFFCURVE",
"29 138 CURVE SMOOTH",
"29 50 OFFCURVE",
"82 -10 OFFCURVE",
"189 -10 CURVE SMOOTH"
);
}
);
width = 404;
},
{
anchors = (
{
name = bottom;
position = "{428, 0}";
},
{
name = top;
position = "{428, 536}";
},
{
name = top2;
position = "{240, 536}";
}
);
layerId = "71F2606D-B934-4F95-8EC7-C80FA20C45E9";
paths = (
{
closed = 1;
nodes = (
"369 -10 OFFCURVE",
"450 78 OFFCURVE",
"450 279 CURVE SMOOTH",
"450 475 OFFCURVE",
"379 562 OFFCURVE",
"224 562 CURVE SMOOTH",
"166 562 OFFCURVE",
"105 546 OFFCURVE",
"48 520 CURVE",
"48 399 LINE",
"103 425 OFFCURVE",
"153 438 OFFCURVE",
"185 438 CURVE SMOOTH",
"257 438 OFFCURVE",
"288 392 OFFCURVE",
"288 271 CURVE SMOOTH",
"288 163 OFFCURVE",
"264 111 OFFCURVE",
"213 111 CURVE SMOOTH",
"179 111 OFFCURVE",
"156 140 OFFCURVE",
"156 183 CURVE SMOOTH",
"156 199 OFFCURVE",
"161 217 OFFCURVE",
"169 228 CURVE",
"57 269 LINE",
"36 240 OFFCURVE",
"24 205 OFFCURVE",
"24 168 CURVE SMOOTH",
"24 56 OFFCURVE",
"103 -10 OFFCURVE",
"224 -10 CURVE SMOOTH"
);
}
);
width = 484;
}
);
note = uni0EA7;
unicode = 0EA7;
},
{
glyphname = "soSeua-lao";
lastChange = "2017-06-05 18:40:43 +0000";
layers = (
{
anchors = (
{
name = bottom;
position = "{517, 0}";
},
{
name = top;
position = "{517, 536}";
},
{
name = top2;
position = "{314, 536}";
}
);
layerId = "64BC062E-13E4-450B-B24E-D8A474022433";
paths = (
{
closed = 1;
nodes = (
"211 -10 OFFCURVE",
"232 -7 OFFCURVE",
"247 -1 CURVE",
"241 22 LINE",
"231 18 OFFCURVE",
"212 15 OFFCURVE",
"194 15 CURVE SMOOTH",
"131 15 OFFCURVE",
"93 55 OFFCURVE",
"93 141 CURVE SMOOTH",
"93 232 OFFCURVE",
"136 271 OFFCURVE",
"200 271 CURVE SMOOTH",
"256 271 OFFCURVE",
"285 242 OFFCURVE",
"302 193 CURVE SMOOTH",
"344 71 LINE SMOOTH",
"363 16 OFFCURVE",
"389 -10 OFFCURVE",
"445 -10 CURVE SMOOTH",
"505 -10 OFFCURVE",
"530 19 OFFCURVE",
"530 91 CURVE SMOOTH",
"530 351 LINE SMOOTH",
"530 481 OFFCURVE",
"445 556 OFFCURVE",
"280 556 CURVE SMOOTH",
"148 556 OFFCURVE",
"81 508 OFFCURVE",
"81 450 CURVE SMOOTH",
"81 387 OFFCURVE",
"159 350 OFFCURVE",
"274 350 CURVE SMOOTH",
"460 350 OFFCURVE",
"533 447 OFFCURVE",
"533 542 CURVE SMOOTH",
"533 556 LINE",
"502 556 LINE",
"502 538 LINE SMOOTH",
"502 444 OFFCURVE",
"431 375 OFFCURVE",
"276 375 CURVE SMOOTH",
"181 375 OFFCURVE",
"109 401 OFFCURVE",
"109 451 CURVE SMOOTH",
"109 500 OFFCURVE",
"178 531 OFFCURVE",
"283 531 CURVE SMOOTH",
"436 531 OFFCURVE",
"504 466 OFFCURVE",
"504 348 CURVE SMOOTH",
"504 84 LINE SMOOTH",
"504 37 OFFCURVE",
"491 15 OFFCURVE",
"444 15 CURVE SMOOTH",
"404 15 OFFCURVE",
"385 32 OFFCURVE",
"371 73 CURVE SMOOTH",
"328 197 LINE SMOOTH",
"308 255 OFFCURVE",
"277 296 OFFCURVE",
"203 296 CURVE SMOOTH",
"104 296 OFFCURVE",
"65 224 OFFCURVE",
"65 139 CURVE SMOOTH",
"65 49 OFFCURVE",
"109 -10 OFFCURVE",
"192 -10 CURVE SMOOTH"
);
}
);
width = 618;
},
{
anchors = (
{
name = bottom;
position = "{543, 0}";
},
{
name = top;
position = "{553, 536}";
},
{
name = top2;
position = "{316, 536}";
}
);
layerId = "6449CA81-A7C3-4005-93E5-765657812F1B";
paths = (
{
closed = 1;
nodes = (
"215 -10 OFFCURVE",
"234 -6 OFFCURVE",
"249 0 CURVE",
"235 60 LINE",
"224 57 OFFCURVE",
"215 55 OFFCURVE",
"203 55 CURVE SMOOTH",
"158 55 OFFCURVE",
"138 83 OFFCURVE",
"138 134 CURVE SMOOTH",
"138 194 OFFCURVE",
"165 218 OFFCURVE",
"210 218 CURVE SMOOTH",
"247 218 OFFCURVE",
"274 202 OFFCURVE",
"284 168 CURVE SMOOTH",
"313 73 LINE SMOOTH",
"330 18 OFFCURVE",
"364 -10 OFFCURVE",
"430 -10 CURVE SMOOTH",
"504 -10 OFFCURVE",
"553 26 OFFCURVE",
"553 107 CURVE SMOOTH",
"553 347 LINE SMOOTH",
"553 463 OFFCURVE",
"465 558 OFFCURVE",
"271 558 CURVE SMOOTH",
"131 558 OFFCURVE",
"68 508 OFFCURVE",
"68 445 CURVE SMOOTH",
"68 371 OFFCURVE",
"155 333 OFFCURVE",
"261 333 CURVE SMOOTH",
"441 333 OFFCURVE",
"562 444 OFFCURVE",
"562 558 CURVE SMOOTH",
"562 565 LINE",
"484 565 LINE",
"484 558 LINE SMOOTH",
"484 484 OFFCURVE",
"411 398 OFFCURVE",
"257 398 CURVE SMOOTH",
"199 398 OFFCURVE",
"142 410 OFFCURVE",
"142 444 CURVE SMOOTH",
"142 477 OFFCURVE",
"194 493 OFFCURVE",
"261 493 CURVE SMOOTH",
"369 493 OFFCURVE",
"465 451 OFFCURVE",
"465 347 CURVE SMOOTH",
"465 90 LINE SMOOTH",
"465 63 OFFCURVE",
"454 50 OFFCURVE",
"431 50 CURVE SMOOTH",
"412 50 OFFCURVE",
"397 59 OFFCURVE",
"389 84 CURVE SMOOTH",
"357 187 LINE SMOOTH",
"339 246 OFFCURVE",
"293 283 OFFCURVE",
"211 283 CURVE SMOOTH",
"97 283 OFFCURVE",
"60 210 OFFCURVE",
"60 133 CURVE SMOOTH",
"60 54 OFFCURVE",
"98 -10 OFFCURVE",
"192 -10 CURVE SMOOTH"
);
}
);
width = 635;
},
{
anchors = (
{
name = bottom;
position = "{600, 0}";
},
{
name = top;
position = "{610, 536}";
},
{
name = top2;
position = "{288, 536}";
}
);
layerId = "E5D3352E-10FF-4C03-AD9F-F95B1FD01257";
paths = (
{
closed = 1;
nodes = (
"206 -10 OFFCURVE",
"240 -3 OFFCURVE",
"263 9 CURVE",
"233 131 LINE",
"222 128 OFFCURVE",
"211 127 OFFCURVE",
"205 127 CURVE SMOOTH",
"186 127 OFFCURVE",
"174 139 OFFCURVE",
"174 158 CURVE SMOOTH",
"174 178 OFFCURVE",
"187 190 OFFCURVE",
"208 190 CURVE SMOOTH",
"232 190 OFFCURVE",
"246 173 OFFCURVE",
"253 151 CURVE SMOOTH",
"277 76 LINE SMOOTH",
"294 22 OFFCURVE",
"356 -10 OFFCURVE",
"437 -10 CURVE SMOOTH",
"547 -10 OFFCURVE",
"610 48 OFFCURVE",
"610 146 CURVE SMOOTH",
"610 339 LINE SMOOTH",
"610 480 OFFCURVE",
"497 563 OFFCURVE",
"271 563 CURVE SMOOTH",
"111 563 OFFCURVE",
"38 521 OFFCURVE",
"38 449 CURVE SMOOTH",
"38 375 OFFCURVE",
"114 330 OFFCURVE",
"260 330 CURVE SMOOTH",
"460 330 OFFCURVE",
"617 415 OFFCURVE",
"617 558 CURVE SMOOTH",
"617 570 LINE",
"453 570 LINE",
"453 560 LINE SMOOTH",
"453 484 OFFCURVE",
"384 420 OFFCURVE",
"263 420 CURVE SMOOTH",
"217 420 OFFCURVE",
"190 429 OFFCURVE",
"190 444 CURVE SMOOTH",
"190 459 OFFCURVE",
"216 468 OFFCURVE",
"268 468 CURVE SMOOTH",
"379 468 OFFCURVE",
"426 426 OFFCURVE",
"426 324 CURVE SMOOTH",
"426 151 LINE SMOOTH",
"426 140 OFFCURVE",
"421 134 OFFCURVE",
"412 134 CURVE SMOOTH",
"404 134 OFFCURVE",
"398 140 OFFCURVE",
"395 150 CURVE SMOOTH",
"378 214 LINE SMOOTH",
"361 280 OFFCURVE",
"295 313 OFFCURVE",
"208 313 CURVE SMOOTH",
"94 313 OFFCURVE",
"25 257 OFFCURVE",
"25 150 CURVE SMOOTH",
"25 55 OFFCURVE",
"80 -10 OFFCURVE",
"175 -10 CURVE SMOOTH"
);
}
);
width = 662;
},
{
anchors = (
{
name = bottom;
position = "{366, 0}";
},
{
name = top;
position = "{367, 536}";
},
{
name = top2;
position = "{220, 536}";
}
);
layerId = "009F2F33-BFE3-455D-BDCF-6F386AA465CF";
paths = (
{
closed = 1;
nodes = (
"148 -10 OFFCURVE",
"163 -7 OFFCURVE",
"173 -1 CURVE",
"168 22 LINE",
"161 18 OFFCURVE",
"149 15 OFFCURVE",
"137 15 CURVE SMOOTH",
"96 15 OFFCURVE",
"72 54 OFFCURVE",
"72 140 CURVE SMOOTH",
"72 233 OFFCURVE",
"100 271 OFFCURVE",
"142 271 CURVE SMOOTH",
"179 271 OFFCURVE",
"198 242 OFFCURVE",
"209 193 CURVE SMOOTH",
"236 71 LINE SMOOTH",
"248 16 OFFCURVE",
"269 -10 OFFCURVE",
"310 -10 CURVE SMOOTH",
"354 -10 OFFCURVE",
"375 19 OFFCURVE",
"375 91 CURVE SMOOTH",
"375 351 LINE SMOOTH",
"375 481 OFFCURVE",
"314 556 OFFCURVE",
"196 556 CURVE SMOOTH",
"101 556 OFFCURVE",
"55 508 OFFCURVE",
"55 450 CURVE SMOOTH",
"55 387 OFFCURVE",
"111 350 OFFCURVE",
"191 350 CURVE SMOOTH",
"320 350 OFFCURVE",
"377 448 OFFCURVE",
"377 542 CURVE SMOOTH",
"377 556 LINE",
"349 556 LINE",
"349 538 LINE SMOOTH",
"349 444 OFFCURVE",
"298 375 OFFCURVE",
"193 375 CURVE SMOOTH",
"128 375 OFFCURVE",
"81 401 OFFCURVE",
"81 451 CURVE SMOOTH",
"81 500 OFFCURVE",
"127 531 OFFCURVE",
"196 531 CURVE SMOOTH",
"296 531 OFFCURVE",
"348 466 OFFCURVE",
"348 348 CURVE SMOOTH",
"348 84 LINE SMOOTH",
"348 38 OFFCURVE",
"339 15 OFFCURVE",
"310 15 CURVE SMOOTH",
"283 15 OFFCURVE",
"271 34 OFFCURVE",
"262 73 CURVE SMOOTH",
"234 197 LINE SMOOTH",
"221 255 OFFCURVE",
"197 296 OFFCURVE",
"143 296 CURVE SMOOTH",
"73 296 OFFCURVE",
"45 227 OFFCURVE",
"45 140 CURVE SMOOTH",
"45 49 OFFCURVE",
"75 -10 OFFCURVE",
"135 -10 CURVE SMOOTH"
);
}
);
width = 435;
},
{
anchors = (
{
name = bottom;
position = "{395, 0}";
},
{
name = top;
position = "{400, 536}";
},
{
name = top2;
position = "{212, 536}";
}
);
layerId = "AA55D700-EA4F-438C-81A6-FEFC4FC5520F";
paths = (
{
closed = 1;
nodes = (
"143 -10 OFFCURVE",
"166 -6 OFFCURVE",
"178 0 CURVE",
"165 55 LINE",
"157 52 OFFCURVE",
"149 50 OFFCURVE",
"142 50 CURVE SMOOTH",
"116 50 OFFCURVE",
"102 79 OFFCURVE",
"102 136 CURVE SMOOTH",
"102 198 OFFCURVE",
"119 225 OFFCURVE",
"147 225 CURVE SMOOTH",
"170 225 OFFCURVE",
"185 207 OFFCURVE",
"192 171 CURVE SMOOTH",
"212 72 LINE SMOOTH",
"223 18 OFFCURVE",
"248 -10 OFFCURVE",
"304 -10 CURVE SMOOTH",
"366 -10 OFFCURVE",
"405 25 OFFCURVE",
"405 105 CURVE SMOOTH",
"405 348 LINE SMOOTH",
"405 465 OFFCURVE",
"333 558 OFFCURVE",
"191 558 CURVE SMOOTH",
"88 558 OFFCURVE",
"40 509 OFFCURVE",
"40 445 CURVE SMOOTH",
"40 373 OFFCURVE",
"100 335 OFFCURVE",
"181 335 CURVE SMOOTH",
"319 335 OFFCURVE",
"407 444 OFFCURVE",
"407 556 CURVE SMOOTH",
"407 564 LINE",
"332 564 LINE",
"332 556 LINE SMOOTH",
"332 479 OFFCURVE",
"282 395 OFFCURVE",
"183 395 CURVE SMOOTH",
"143 395 OFFCURVE",
"110 409 OFFCURVE",
"110 445 CURVE SMOOTH",
"110 480 OFFCURVE",
"140 498 OFFCURVE",
"190 498 CURVE SMOOTH",
"268 498 OFFCURVE",
"319 453 OFFCURVE",
"319 347 CURVE SMOOTH",
"319 89 LINE SMOOTH",
"319 60 OFFCURVE",
"312 46 OFFCURVE",
"298 46 CURVE SMOOTH",
"285 46 OFFCURVE",
"277 56 OFFCURVE",
"272 83 CURVE SMOOTH",
"252 188 LINE SMOOTH",
"241 247 OFFCURVE",
"208 285 OFFCURVE",
"146 285 CURVE SMOOTH",
"61 285 OFFCURVE",
"27 212 OFFCURVE",
"27 133 CURVE SMOOTH",
"27 53 OFFCURVE",
"61 -10 OFFCURVE",
"126 -10 CURVE SMOOTH"
);
}
);
width = 453;
},
{
anchors = (
{
name = bottom;
position = "{499, 0}";
},
{
name = top;
position = "{507, 536}";
},
{
name = top2;
position = "{243, 536}";
}
);
layerId = "71F2606D-B934-4F95-8EC7-C80FA20C45E9";
paths = (
{
closed = 1;
nodes = (
"179 -10 OFFCURVE",
"207 -4 OFFCURVE",
"226 6 CURVE",
"201 111 LINE",
"192 108 OFFCURVE",
"183 106 OFFCURVE",
"179 106 CURVE SMOOTH",
"166 106 OFFCURVE",
"157 123 OFFCURVE",
"157 151 CURVE SMOOTH",
"157 183 OFFCURVE",
"166 198 OFFCURVE",
"181 198 CURVE SMOOTH",
"199 198 OFFCURVE",
"209 181 OFFCURVE",
"215 156 CURVE SMOOTH",
"234 76 LINE SMOOTH",
"247 21 OFFCURVE",
"299 -10 OFFCURVE",
"365 -10 CURVE SMOOTH",
"456 -10 OFFCURVE",
"507 42 OFFCURVE",
"507 135 CURVE SMOOTH",
"507 341 LINE SMOOTH",
"507 475 OFFCURVE",
"415 562 OFFCURVE",
"232 562 CURVE SMOOTH",
"102 562 OFFCURVE",
"43 517 OFFCURVE",
"43 448 CURVE SMOOTH",
"43 374 OFFCURVE",
"103 331 OFFCURVE",
"223 331 CURVE SMOOTH",
"384 331 OFFCURVE",
"513 423 OFFCURVE",
"513 558 CURVE SMOOTH",
"513 569 LINE",
"375 569 LINE",
"375 559 LINE SMOOTH",
"375 484 OFFCURVE",
"320 414 OFFCURVE",
"226 414 CURVE SMOOTH",
"190 414 OFFCURVE",
"171 424 OFFCURVE",
"171 444 CURVE SMOOTH",
"171 464 OFFCURVE",
"190 475 OFFCURVE",
"226 475 CURVE SMOOTH",
"320 475 OFFCURVE",
"352 434 OFFCURVE",
"352 331 CURVE SMOOTH",
"352 133 LINE SMOOTH",
"352 118 OFFCURVE",
"349 110 OFFCURVE",
"343 110 CURVE SMOOTH",
"337 110 OFFCURVE",
"333 117 OFFCURVE",
"331 131 CURVE SMOOTH",
"318 207 LINE SMOOTH",
"307 271 OFFCURVE",
"251 304 OFFCURVE",
"181 304 CURVE SMOOTH",
"90 304 OFFCURVE",
"32 243 OFFCURVE",
"32 145 CURVE SMOOTH",
"32 55 OFFCURVE",
"77 -10 OFFCURVE",
"153 -10 CURVE SMOOTH"
);
}
);
width = 562;
}
);
note = uni0EAA;
unicode = 0EAA;
},
{
glyphname = "hoHaan-lao";
lastChange = "2017-06-05 18:40:43 +0000";
layers = (
{
anchors = (
{
name = bottom;
position = "{589, 0}";
},
{
name = top;
position = "{579, 536}";
},
{
name = top2;
position = "{353, 536}";
}
);
layerId = "64BC062E-13E4-450B-B24E-D8A474022433";
paths = (
{
closed = 1;
nodes = (
"310 -10 OFFCURVE",
"350 53 OFFCURVE",
"350 142 CURVE SMOOTH",
"350 340 LINE SMOOTH",
"350 449 OFFCURVE",
"390 531 OFFCURVE",
"477 531 CURVE SMOOTH",
"546 531 OFFCURVE",
"563 479 OFFCURVE",
"563 403 CURVE SMOOTH",
"563 0 LINE",
"589 0 LINE",
"589 404 LINE SMOOTH",
"589 490 OFFCURVE",
"567 556 OFFCURVE",
"478 556 CURVE SMOOTH",
"408 556 OFFCURVE",
"362 515 OFFCURVE",
"342 440 CURVE",
"341 440 LINE",
"333 487 OFFCURVE",
"317 521 OFFCURVE",
"295 556 CURVE",
"276 543 LINE",
"299 513 OFFCURVE",
"324 454 OFFCURVE",
"324 396 CURVE SMOOTH",
"324 143 LINE SMOOTH",
"324 57 OFFCURVE",
"290 15 OFFCURVE",
"217 15 CURVE SMOOTH",
"144 15 OFFCURVE",
"111 57 OFFCURVE",
"111 143 CURVE SMOOTH",
"111 548 LINE",
"85 548 LINE",
"85 142 LINE SMOOTH",
"85 53 OFFCURVE",
"124 -10 OFFCURVE",
"217 -10 CURVE SMOOTH"
);
}
);
width = 674;
},
{
anchors = (
{
name = bottom;
position = "{644, 0}";
},
{
name = top;
position = "{634, 536}";
},
{
name = top2;
position = "{390, 536}";
}
);
layerId = "6449CA81-A7C3-4005-93E5-765657812F1B";
paths = (
{
closed = 1;
nodes = (
"361 -10 OFFCURVE",
"404 58 OFFCURVE",
"404 158 CURVE SMOOTH",
"404 395 LINE SMOOTH",
"404 446 OFFCURVE",
"427 485 OFFCURVE",
"483 485 CURVE SMOOTH",
"532 485 OFFCURVE",
"556 455 OFFCURVE",
"556 402 CURVE SMOOTH",
"556 0 LINE",
"644 0 LINE",
"644 416 LINE SMOOTH",
"644 505 OFFCURVE",
"596 558 OFFCURVE",
"518 558 CURVE SMOOTH",
"465 558 OFFCURVE",
"421 533 OFFCURVE",
"393 502 CURVE",
"389 502 LINE",
"377 526 OFFCURVE",
"357 547 OFFCURVE",
"335 558 CURVE",
"273 513 LINE",
"308 487 OFFCURVE",
"318 461 OFFCURVE",
"318 425 CURVE SMOOTH",
"318 152 LINE SMOOTH",
"318 93 OFFCURVE",
"293 63 OFFCURVE",
"242 63 CURVE SMOOTH",
"191 63 OFFCURVE",
"166 93 OFFCURVE",
"166 152 CURVE SMOOTH",
"166 548 LINE",
"78 548 LINE",
"78 158 LINE SMOOTH",
"78 58 OFFCURVE",
"123 -10 OFFCURVE",
"242 -10 CURVE SMOOTH"
);
}
);
width = 726;
},
{
anchors = (
{
name = bottom;
position = "{679, 0}";
},
{
name = top;
position = "{669, 536}";
},
{
name = top2;
position = "{390, 536}";
}
);
layerId = "E5D3352E-10FF-4C03-AD9F-F95B1FD01257";
paths = (
{
closed = 1;
nodes = (
"370 -10 OFFCURVE",
"443 61 OFFCURVE",
"443 181 CURVE SMOOTH",
"443 390 LINE SMOOTH",
"443 408 OFFCURVE",
"453 419 OFFCURVE",
"470 419 CURVE SMOOTH",
"487 419 OFFCURVE",
"497 408 OFFCURVE",
"497 390 CURVE SMOOTH",
"497 0 LINE",
"679 0 LINE",
"679 419 LINE SMOOTH",
"679 516 OFFCURVE",
"642 563 OFFCURVE",
"566 563 CURVE SMOOTH",
"510 563 OFFCURVE",
"466 538 OFFCURVE",
"434 488 CURVE",
"432 488 LINE",
"421 522 OFFCURVE",
"398 551 OFFCURVE",
"372 565 CURVE",
"246 488 LINE",
"268 468 OFFCURVE",
"281 434 OFFCURVE",
"281 396 CURVE SMOOTH",
"281 163 LINE SMOOTH",
"281 145 OFFCURVE",
"271 134 OFFCURVE",
"254 134 CURVE SMOOTH",
"237 134 OFFCURVE",
"227 145 OFFCURVE",
"227 163 CURVE SMOOTH",
"227 553 LINE",
"45 553 LINE",
"45 181 LINE SMOOTH",
"45 61 OFFCURVE",
"121 -10 OFFCURVE",
"246 -10 CURVE SMOOTH"
);
}
);
width = 724;
},
{
anchors = (
{
name = bottom;
position = "{420, 0}";
},
{
name = top;
position = "{413, 536}";
},
{
name = top2;
position = "{253, 536}";
}
);
layerId = "009F2F33-BFE3-455D-BDCF-6F386AA465CF";
paths = (
{
closed = 1;
nodes = (
"225 -10 OFFCURVE",
"253 53 OFFCURVE",
"253 142 CURVE SMOOTH",
"253 340 LINE SMOOTH",
"253 450 OFFCURVE",
"279 531 OFFCURVE",
"335 531 CURVE SMOOTH",
"381 531 OFFCURVE",
"394 478 OFFCURVE",
"394 403 CURVE SMOOTH",
"394 0 LINE",
"420 0 LINE",
"420 404 LINE SMOOTH",
"420 491 OFFCURVE",
"397 556 OFFCURVE",
"337 556 CURVE SMOOTH",
"295 556 OFFCURVE",
"259 524 OFFCURVE",
"245 445 CURVE",
"244 445 LINE",
"238 492 OFFCURVE",
"230 521 OFFCURVE",
"213 556 CURVE",
"193 543 LINE",
"211 513 OFFCURVE",
"226 454 OFFCURVE",
"226 396 CURVE SMOOTH",
"226 143 LINE SMOOTH",
"226 57 OFFCURVE",
"204 15 OFFCURVE",
"156 15 CURVE SMOOTH",
"108 15 OFFCURVE",
"86 57 OFFCURVE",
"86 143 CURVE SMOOTH",
"86 548 LINE",
"59 548 LINE",
"59 142 LINE SMOOTH",
"59 53 OFFCURVE",
"87 -10 OFFCURVE",
"156 -10 CURVE SMOOTH"
);
}
);
width = 479;
},
{
anchors = (
{
name = bottom;
position = "{454, 0}";
},
{
name = top;
position = "{447, 536}";
},
{
name = top2;
position = "{268, 536}";
}
);
layerId = "AA55D700-EA4F-438C-81A6-FEFC4FC5520F";
paths = (
{
closed = 1;
nodes = (
"252 -10 OFFCURVE",
"289 50 OFFCURVE",
"289 149 CURVE SMOOTH",
"289 393 LINE SMOOTH",
"289 452 OFFCURVE",
"303 491 OFFCURVE",
"334 491 CURVE SMOOTH",
"361 491 OFFCURVE",
"373 460 OFFCURVE",
"373 407 CURVE SMOOTH",
"373 0 LINE",
"456 0 LINE",
"456 415 LINE SMOOTH",
"456 504 OFFCURVE",
"428 558 OFFCURVE",
"365 558 CURVE SMOOTH",
"323 558 OFFCURVE",
"294 534 OFFCURVE",
"278 494 CURVE",
"276 494 LINE",
"271 522 OFFCURVE",
"257 544 OFFCURVE",
"241 558 CURVE",
"183 517 LINE",
"202 494 OFFCURVE",
"212 460 OFFCURVE",
"212 421 CURVE SMOOTH",
"212 144 LINE SMOOTH",
"212 84 OFFCURVE",
"198 57 OFFCURVE",
"170 57 CURVE SMOOTH",
"142 57 OFFCURVE",
"128 84 OFFCURVE",
"128 144 CURVE SMOOTH",
"128 548 LINE",
"45 548 LINE",
"45 149 LINE SMOOTH",
"45 50 OFFCURVE",
"88 -10 OFFCURVE",
"170 -10 CURVE SMOOTH"
);
}
);
width = 502;
},
{
anchors = (
{
name = bottom;
position = "{561, 0}";
},
{
name = top;
position = "{553, 536}";
},
{
name = top2;
position = "{327, 536}";
}
);
layerId = "71F2606D-B934-4F95-8EC7-C80FA20C45E9";
paths = (
{
closed = 1;
nodes = (
"311 -10 OFFCURVE",
"372 60 OFFCURVE",
"372 174 CURVE SMOOTH",
"372 391 LINE SMOOTH",
"372 419 OFFCURVE",
"379 438 OFFCURVE",
"390 438 CURVE SMOOTH",
"401 438 OFFCURVE",
"408 422 OFFCURVE",
"408 393 CURVE SMOOTH",
"408 0 LINE",
"561 0 LINE",
"561 418 LINE SMOOTH",
"561 513 OFFCURVE",
"532 562 OFFCURVE",
"472 562 CURVE SMOOTH",
"426 562 OFFCURVE",
"391 537 OFFCURVE",
"365 492 CURVE",
"364 492 LINE",
"355 523 OFFCURVE",
"336 550 OFFCURVE",
"315 563 CURVE",
"209 495 LINE",
"226 473 OFFCURVE",
"236 442 OFFCURVE",
"236 404 CURVE SMOOTH",
"236 160 LINE SMOOTH",
"236 130 OFFCURVE",
"230 114 OFFCURVE",
"219 114 CURVE SMOOTH",
"208 114 OFFCURVE",
"201 130 OFFCURVE",
"201 160 CURVE SMOOTH",
"201 552 LINE",
"48 552 LINE",
"48 174 LINE SMOOTH",
"48 60 OFFCURVE",
"111 -10 OFFCURVE",
"212 -10 CURVE SMOOTH"
);
}
);
width = 609;
}
);
note = uni0EAB;
unicode = 0EAB;
},
{
glyphname = "oO-lao";
lastChange = "2020-10-20 00:41:38 +0000";
layers = (
{
anchors = (
{
name = bottom;
position = "{476, 0}";
},
{
name = top;
position = "{476, 536}";
},
{
name = top2;
position = "{290, 536}";
}
);
layerId = "64BC062E-13E4-450B-B24E-D8A474022433";
paths = (
{
closed = 1;
nodes = (
"444 -10 OFFCURVE",
"526 87 OFFCURVE",
"526 271 CURVE SMOOTH",
"526 457 OFFCURVE",
"442 556 OFFCURVE",
"274 556 CURVE SMOOTH",
"131 556 OFFCURVE",
"60 484 OFFCURVE",
"60 405 CURVE SMOOTH",
"60 324 OFFCURVE",
"135 260 OFFCURVE",
"271 260 CURVE SMOOTH",
"363 260 OFFCURVE",
"470 289 OFFCURVE",
"510 331 CURVE",
"496 355 LINE",
"461 312 OFFCURVE",
"356 285 OFFCURVE",
"273 285 CURVE SMOOTH",
"158 285 OFFCURVE",
"88 337 OFFCURVE",
"88 406 CURVE SMOOTH",
"88 475 OFFCURVE",
"158 531 OFFCURVE",
"279 531 CURVE SMOOTH",
"434 531 OFFCURVE",
"498 440 OFFCURVE",
"498 274 CURVE SMOOTH",
"498 105 OFFCURVE",
"432 15 OFFCURVE",
"287 15 CURVE SMOOTH",
"176 15 OFFCURVE",
"101 67 OFFCURVE",
"101 146 CURVE SMOOTH",
"101 159 OFFCURVE",
"103 169 OFFCURVE",
"107 178 CURVE",
"81 185 LINE",
"76 175 OFFCURVE",
"73 163 OFFCURVE",
"73 146 CURVE SMOOTH",
"73 46 OFFCURVE",
"171 -10 OFFCURVE",
"289 -10 CURVE SMOOTH"
);
}
);
width = 591;
},
{
anchors = (
{
name = bottom;
position = "{518, 0}";
},
{
name = top;
position = "{518, 536}";
},
{
name = top2;
position = "{312, 536}";
}
);
layerId = "6449CA81-A7C3-4005-93E5-765657812F1B";
paths = (
{
closed = 1;
nodes = (
"450 -10 OFFCURVE",
"562 62 OFFCURVE",
"562 269 CURVE SMOOTH",
"562 483 OFFCURVE",
"442 558 OFFCURVE",
"291 558 CURVE SMOOTH",
"144 558 OFFCURVE",
"68 487 OFFCURVE",
"68 395 CURVE SMOOTH",
"68 301 OFFCURVE",
"148 238 OFFCURVE",
"283 238 CURVE SMOOTH",
"361 238 OFFCURVE",
"443 259 OFFCURVE",
"506 304 CURVE",
"473 362 LINE",
"416 321 OFFCURVE",
"342 307 OFFCURVE",
"285 307 CURVE SMOOTH",
"200 307 OFFCURVE",
"148 339 OFFCURVE",
"148 393 CURVE SMOOTH",
"148 452 OFFCURVE",
"210 485 OFFCURVE",
"292 485 CURVE SMOOTH",
"414 485 OFFCURVE",
"474 411 OFFCURVE",
"474 269 CURVE SMOOTH",
"474 130 OFFCURVE",
"417 63 OFFCURVE",
"306 63 CURVE SMOOTH",
"224 63 OFFCURVE",
"149 100 OFFCURVE",
"149 159 CURVE SMOOTH",
"149 169 OFFCURVE",
"151 180 OFFCURVE",
"157 192 CURVE",
"85 213 LINE",
"76 200 OFFCURVE",
"68 185 OFFCURVE",
"68 157 CURVE SMOOTH",
"68 55 OFFCURVE",
"170 -10 OFFCURVE",
"306 -10 CURVE SMOOTH"
);
}
);
width = 620;
},
{
anchors = (
{
name = bottom;
position = "{545, 0}";
},
{
name = top;
position = "{545, 536}";
},
{
name = top2;
position = "{298, 536}";
}
);
layerId = "E5D3352E-10FF-4C03-AD9F-F95B1FD01257";
paths = (
{
closed = 1;
nodes = (
"472 -10 OFFCURVE",
"572 98 OFFCURVE",
"572 275 CURVE SMOOTH",
"572 459 OFFCURVE",
"464 563 OFFCURVE",
"272 563 CURVE SMOOTH",
"120 563 OFFCURVE",
"25 497 OFFCURVE",
"25 386 CURVE SMOOTH",
"25 283 OFFCURVE",
"106 223 OFFCURVE",
"242 223 CURVE SMOOTH",
"318 223 OFFCURVE",
"380 242 OFFCURVE",
"413 275 CURVE",
"373 376 LINE",
"352 358 OFFCURVE",
"316 347 OFFCURVE",
"274 347 CURVE SMOOTH",
"229 347 OFFCURVE",
"202 360 OFFCURVE",
"202 383 CURVE SMOOTH",
"202 407 OFFCURVE",
"230 421 OFFCURVE",
"272 421 CURVE SMOOTH",
"346 421 OFFCURVE",
"388 377 OFFCURVE",
"388 279 CURVE SMOOTH",
"388 190 OFFCURVE",
"354 129 OFFCURVE",
"275 129 CURVE SMOOTH",
"236 129 OFFCURVE",
"190 144 OFFCURVE",
"190 173 CURVE SMOOTH",
"190 177 OFFCURVE",
"191 185 OFFCURVE",
"194 192 CURVE",
"48 237 LINE",
"34 215 OFFCURVE",
"25 186 OFFCURVE",
"25 156 CURVE SMOOTH",
"25 54 OFFCURVE",
"128 -10 OFFCURVE",
"278 -10 CURVE SMOOTH"
);
}
);
width = 600;
},
{
anchors = (
{
name = bottom;
position = "{339, 0}";
},
{
name = top;
position = "{339, 536}";
},
{
name = top2;
position = "{206, 536}";
}
);
layerId = "009F2F33-BFE3-455D-BDCF-6F386AA465CF";
paths = (
{
closed = 1;
nodes = (
"315 -5 OFFCURVE",
"372 80 OFFCURVE",
"372 268 CURVE SMOOTH",
"372 457 OFFCURVE",
"314 556 OFFCURVE",
"195 556 CURVE SMOOTH",
"93 556 OFFCURVE",
"43 484 OFFCURVE",
"43 406 CURVE SMOOTH",
"43 324 OFFCURVE",
"97 260 OFFCURVE",
"191 260 CURVE SMOOTH",
"254 260 OFFCURVE",
"325 289 OFFCURVE",
"356 331 CURVE",
"344 358 LINE",
"316 315 OFFCURVE",
"247 285 OFFCURVE",
"192 285 CURVE SMOOTH",
"116 285 OFFCURVE",
"70 337 OFFCURVE",
"70 406 CURVE SMOOTH",
"70 475 OFFCURVE",
"117 531 OFFCURVE",
"198 531 CURVE SMOOTH",
"302 531 OFFCURVE",
"345 439 OFFCURVE",
"345 268 CURVE SMOOTH",
"345 118 OFFCURVE",
"312 21 OFFCURVE",
"211 15 CURVE SMOOTH",
"138 11 OFFCURVE",
"77 57 OFFCURVE",
"77 145 CURVE SMOOTH",
"77 160 OFFCURVE",
"79 169 OFFCURVE",
"82 178 CURVE",
"57 185 LINE",
"54 175 OFFCURVE",
"50 165 OFFCURVE",
"50 142 CURVE SMOOTH",
"50 43 OFFCURVE",
"122 -14 OFFCURVE",
"212 -10 CURVE SMOOTH"
);
}
);
width = 418;
},
{
anchors = (
{
name = bottom;
position = "{365, 0}";
},
{
name = top;
position = "{365, 536}";
},
{
name = top2;
position = "{211, 536}";
}
);
layerId = "AA55D700-EA4F-438C-81A6-FEFC4FC5520F";
paths = (
{
closed = 1;
nodes = (
"326 -10 OFFCURVE",
"392 94 OFFCURVE",
"392 271 CURVE SMOOTH",
"392 451 OFFCURVE",
"324 558 OFFCURVE",
"195 558 CURVE SMOOTH",
"99 558 OFFCURVE",
"33 498 OFFCURVE",
"33 395 CURVE SMOOTH",
"33 299 OFFCURVE",
"90 241 OFFCURVE",
"183 241 CURVE SMOOTH",
"244 241 OFFCURVE",
"305 274 OFFCURVE",
"335 315 CURVE",
"308 368 LINE",
"285 332 OFFCURVE",
"240 304 OFFCURVE",
"197 304 CURVE SMOOTH",
"142 304 OFFCURVE",
"112 338 OFFCURVE",
"112 395 CURVE SMOOTH",
"112 455 OFFCURVE",
"146 491 OFFCURVE",
"194 491 CURVE SMOOTH",
"268 491 OFFCURVE",
"306 408 OFFCURVE",
"306 273 CURVE SMOOTH",
"306 137 OFFCURVE",
"268 57 OFFCURVE",
"190 57 CURVE SMOOTH",
"141 57 OFFCURVE",
"104 89 OFFCURVE",
"104 142 CURVE SMOOTH",
"104 159 OFFCURVE",
"108 175 OFFCURVE",
"115 189 CURVE",
"49 210 LINE",
"39 191 OFFCURVE",
"33 165 OFFCURVE",
"33 138 CURVE SMOOTH",
"33 45 OFFCURVE",
"101 -10 OFFCURVE",
"196 -10 CURVE SMOOTH"
);
}
);
width = 424;
},
{
anchors = (
{
name = bottom;
position = "{454, 0}";
},
{
name = top;
position = "{454, 536}";
},
{
name = top2;
position = "{253, 536}";
}
);
layerId = "71F2606D-B934-4F95-8EC7-C80FA20C45E9";
paths = (
{
closed = 1;
nodes = (
"395 -10 OFFCURVE",
"474 88 OFFCURVE",
"474 273 CURVE SMOOTH",
"474 466 OFFCURVE",
"388 562 OFFCURVE",
"232 562 CURVE SMOOTH",
"110 562 OFFCURVE",
"32 494 OFFCURVE",
"32 389 CURVE SMOOTH",
"32 288 OFFCURVE",
"97 227 OFFCURVE",
"206 227 CURVE SMOOTH",
"266 227 OFFCURVE",
"330 258 OFFCURVE",
"354 294 CURVE",
"319 387 LINE",
"305 362 OFFCURVE",
"266 335 OFFCURVE",
"234 335 CURVE SMOOTH",
"201 335 OFFCURVE",
"181 354 OFFCURVE",
"181 386 CURVE SMOOTH",
"181 420 OFFCURVE",
"201 439 OFFCURVE",
"231 439 CURVE SMOOTH",
"287 439 OFFCURVE",
"319 387 OFFCURVE",
"319 275 CURVE SMOOTH",
"319 173 OFFCURVE",
"294 110 OFFCURVE",
"233 110 CURVE SMOOTH",
"205 110 OFFCURVE",
"171 131 OFFCURVE",
"171 169 CURVE SMOOTH",
"171 175 OFFCURVE",
"172 184 OFFCURVE",
"174 192 CURVE",
"51 230 LINE",
"39 211 OFFCURVE",
"32 186 OFFCURVE",
"32 156 CURVE SMOOTH",
"32 54 OFFCURVE",
"114 -10 OFFCURVE",
"236 -10 CURVE SMOOTH"
);
}
);
width = 510;
}
);
note = uni0EAD;
unicode = 0EAD;
},
{
glyphname = "hoHeuan-lao";
lastChange = "2017-06-05 18:40:43 +0000";
layers = (
{
anchors = (
{
name = bottom;
position = "{420, 0}";
},
{
name = top;
position = "{460, 536}";
},
{
name = top2;
position = "{281, 536}";
}
);
layerId = "64BC062E-13E4-450B-B24E-D8A474022433";
paths = (
{
closed = 1;
nodes = (
"414 -10 OFFCURVE",
"474 56 OFFCURVE",
"474 152 CURVE SMOOTH",
"474 279 OFFCURVE",
"369 303 OFFCURVE",
"253 329 CURVE SMOOTH",
"146 353 OFFCURVE",
"88 369 OFFCURVE",
"88 441 CURVE SMOOTH",
"88 509 OFFCURVE",
"140 531 OFFCURVE",
"196 531 CURVE SMOOTH",
"281 531 OFFCURVE",
"329 479 OFFCURVE",
"396 479 CURVE SMOOTH",
"439 479 OFFCURVE",
"474 501 OFFCURVE",
"474 539 CURVE SMOOTH",
"474 548 LINE",
"448 548 LINE",
"448 539 LINE SMOOTH",
"448 518 OFFCURVE",
"430 504 OFFCURVE",
"398 504 CURVE SMOOTH",
"337 504 OFFCURVE",
"285 556 OFFCURVE",
"194 556 CURVE SMOOTH",
"117 556 OFFCURVE",
"60 518 OFFCURVE",
"60 441 CURVE SMOOTH",
"60 347 OFFCURVE",
"145 327 OFFCURVE",
"242 305 CURVE SMOOTH",
"372 275 OFFCURVE",
"446 257 OFFCURVE",
"446 153 CURVE SMOOTH",
"446 44 OFFCURVE",
"365 15 OFFCURVE",
"269 15 CURVE SMOOTH",
"187 15 OFFCURVE",
"88 36 OFFCURVE",
"88 137 CURVE SMOOTH",
"88 157 OFFCURVE",
"92 172 OFFCURVE",
"97 183 CURVE",
"72 193 LINE",
"64 178 OFFCURVE",
"60 158 OFFCURVE",
"60 137 CURVE SMOOTH",
"60 58 OFFCURVE",
"117 -10 OFFCURVE",
"267 -10 CURVE SMOOTH"
);
}
);
width = 539;
},
{
anchors = (
{
name = bottom;
position = "{522, 0}";
},
{
name = top;
position = "{523, 536}";
},
{
name = top2;
position = "{317, 536}";
}
);
layerId = "6449CA81-A7C3-4005-93E5-765657812F1B";
paths = (
{
closed = 1;
nodes = (
"468 -10 OFFCURVE",
"542 67 OFFCURVE",
"542 157 CURVE SMOOTH",
"542 271 OFFCURVE",
"423 304 OFFCURVE",
"306 337 CURVE SMOOTH",
"213 363 OFFCURVE",
"153 380 OFFCURVE",
"153 437 CURVE SMOOTH",
"153 468 OFFCURVE",
"172 485 OFFCURVE",
"208 485 CURVE SMOOTH",
"282 485 OFFCURVE",
"354 416 OFFCURVE",
"440 416 CURVE SMOOTH",
"492 416 OFFCURVE",
"542 442 OFFCURVE",
"542 523 CURVE SMOOTH",
"542 548 LINE",
"455 548 LINE",
"455 524 LINE SMOOTH",
"455 501 OFFCURVE",
"447 489 OFFCURVE",
"424 489 CURVE SMOOTH",
"368 489 OFFCURVE",
"309 558 OFFCURVE",
"206 558 CURVE SMOOTH",
"133 558 OFFCURVE",
"68 524 OFFCURVE",
"68 437 CURVE SMOOTH",
"68 330 OFFCURVE",
"165 300 OFFCURVE",
"283 266 CURVE SMOOTH",
"404 231 OFFCURVE",
"457 217 OFFCURVE",
"457 156 CURVE SMOOTH",
"457 94 OFFCURVE",
"403 63 OFFCURVE",
"300 63 CURVE SMOOTH",
"202 63 OFFCURVE",
"153 91 OFFCURVE",
"153 152 CURVE SMOOTH",
"153 171 OFFCURVE",
"158 185 OFFCURVE",
"170 198 CURVE",
"100 232 LINE",
"83 216 OFFCURVE",
"68 192 OFFCURVE",
"68 151 CURVE SMOOTH",
"68 58 OFFCURVE",
"146 -10 OFFCURVE",
"302 -10 CURVE SMOOTH"
);
}
);
width = 615;
},
{
anchors = (
{
name = bottom;
position = "{525, 0}";
},
{
name = top;
position = "{525, 536}";
},
{
name = top2;
position = "{291, 536}";
}
);
layerId = "E5D3352E-10FF-4C03-AD9F-F95B1FD01257";
paths = (
{
closed = 1;
nodes = (
"474 -10 OFFCURVE",
"555 60 OFFCURVE",
"555 169 CURVE SMOOTH",
"555 258 OFFCURVE",
"502 302 OFFCURVE",
"341 348 CURVE SMOOTH",
"235 378 OFFCURVE",
"214 385 OFFCURVE",
"214 403 CURVE SMOOTH",
"214 413 OFFCURVE",
"220 419 OFFCURVE",
"238 419 CURVE SMOOTH",
"286 419 OFFCURVE",
"350 377 OFFCURVE",
"429 377 CURVE SMOOTH",
"511 377 OFFCURVE",
"555 422 OFFCURVE",
"555 522 CURVE SMOOTH",
"555 553 LINE",
"386 553 LINE",
"386 540 LINE SMOOTH",
"386 528 OFFCURVE",
"380 521 OFFCURVE",
"366 521 CURVE SMOOTH",
"329 521 OFFCURVE",
"269 563 OFFCURVE",
"185 563 CURVE SMOOTH",
"87 563 OFFCURVE",
"25 506 OFFCURVE",
"25 413 CURVE SMOOTH",
"25 324 OFFCURVE",
"81 286 OFFCURVE",
"207 245 CURVE SMOOTH",
"307 213 OFFCURVE",
"367 203 OFFCURVE",
"367 164 CURVE SMOOTH",
"367 140 OFFCURVE",
"342 125 OFFCURVE",
"286 125 CURVE SMOOTH",
"226 125 OFFCURVE",
"202 142 OFFCURVE",
"202 167 CURVE SMOOTH",
"202 179 OFFCURVE",
"207 190 OFFCURVE",
"215 197 CURVE",
"81 265 LINE",
"52 246 OFFCURVE",
"25 205 OFFCURVE",
"25 153 CURVE SMOOTH",
"25 61 OFFCURVE",
"109 -10 OFFCURVE",
"292 -10 CURVE SMOOTH"
);
}
);
width = 580;
},
{
anchors = (
{
name = bottom;
position = "{308, 0}";
},
{
name = top;
position = "{331, 536}";
},
{
name = top2;
position = "{202, 536}";
}
);
layerId = "009F2F33-BFE3-455D-BDCF-6F386AA465CF";
paths = (
{
closed = 1;
nodes = (
"297 -10 OFFCURVE",
"341 56 OFFCURVE",
"341 152 CURVE SMOOTH",
"341 279 OFFCURVE",
"265 303 OFFCURVE",
"185 329 CURVE SMOOTH",
"112 353 OFFCURVE",
"71 368 OFFCURVE",
"71 443 CURVE SMOOTH",
"71 508 OFFCURVE",
"102 531 OFFCURVE",
"140 531 CURVE SMOOTH",
"196 531 OFFCURVE",
"234 479 OFFCURVE",
"283 479 CURVE SMOOTH",
"315 479 OFFCURVE",
"341 501 OFFCURVE",
"341 539 CURVE SMOOTH",
"341 548 LINE",
"314 548 LINE",
"314 539 LINE SMOOTH",
"314 518 OFFCURVE",
"303 504 OFFCURVE",
"282 504 CURVE SMOOTH",
"241 504 OFFCURVE",
"202 556 OFFCURVE",
"138 556 CURVE SMOOTH",
"84 556 OFFCURVE",
"43 519 OFFCURVE",
"43 441 CURVE SMOOTH",
"43 347 OFFCURVE",
"104 327 OFFCURVE",
"175 305 CURVE SMOOTH",
"267 276 OFFCURVE",
"314 255 OFFCURVE",
"314 153 CURVE SMOOTH",
"314 44 OFFCURVE",
"261 15 OFFCURVE",
"192 15 CURVE SMOOTH",
"133 15 OFFCURVE",
"71 36 OFFCURVE",
"71 139 CURVE SMOOTH",
"71 157 OFFCURVE",
"73 172 OFFCURVE",
"78 183 CURVE",
"54 193 LINE",
"47 178 OFFCURVE",
"43 159 OFFCURVE",
"43 135 CURVE SMOOTH",
"43 58 OFFCURVE",
"86 -10 OFFCURVE",
"192 -10 CURVE SMOOTH"
);
}
);
width = 388;
},
{
anchors = (
{
name = bottom;
position = "{353, 0}";
},
{
name = top;
position = "{358, 536}";
},
{
name = top2;
position = "{209, 536}";
}
);
layerId = "AA55D700-EA4F-438C-81A6-FEFC4FC5520F";
paths = (
{
closed = 1;
nodes = (
"310 -10 OFFCURVE",
"375 52 OFFCURVE",
"375 160 CURVE SMOOTH",
"375 275 OFFCURVE",
"301 307 OFFCURVE",
"219 337 CURVE SMOOTH",
"159 359 OFFCURVE",
"117 374 OFFCURVE",
"117 432 CURVE SMOOTH",
"117 476 OFFCURVE",
"141 491 OFFCURVE",
"165 491 CURVE SMOOTH",
"216 491 OFFCURVE",
"238 424 OFFCURVE",
"308 424 CURVE SMOOTH",
"350 424 OFFCURVE",
"384 449 OFFCURVE",
"384 525 CURVE SMOOTH",
"384 548 LINE",
"305 548 LINE",
"305 526 LINE SMOOTH",
"305 505 OFFCURVE",
"299 491 OFFCURVE",
"283 491 CURVE SMOOTH",
"247 491 OFFCURVE",
"228 558 OFFCURVE",
"143 558 CURVE SMOOTH",
"81 558 OFFCURVE",
"33 523 OFFCURVE",
"33 432 CURVE SMOOTH",
"33 329 OFFCURVE",
"96 303 OFFCURVE",
"169 273 CURVE SMOOTH",
"252 239 OFFCURVE",
"290 223 OFFCURVE",
"290 152 CURVE SMOOTH",
"290 89 OFFCURVE",
"260 57 OFFCURVE",
"200 57 CURVE SMOOTH",
"142 57 OFFCURVE",
"114 87 OFFCURVE",
"114 148 CURVE SMOOTH",
"114 167 OFFCURVE",
"117 183 OFFCURVE",
"123 196 CURVE",
"60 227 LINE",
"46 211 OFFCURVE",
"33 186 OFFCURVE",
"33 143 CURVE SMOOTH",
"33 47 OFFCURVE",
"95 -10 OFFCURVE",
"200 -10 CURVE SMOOTH"
);
}
);
width = 410;
},
{
anchors = (
{
name = bottom;
position = "{436, 0}";
},
{
name = top;
position = "{436, 536}";
},
{
name = top2;
position = "{246, 536}";
}
);
layerId = "71F2606D-B934-4F95-8EC7-C80FA20C45E9";
paths = (
{
closed = 1;
nodes = (
"395 -10 OFFCURVE",
"461 62 OFFCURVE",
"461 166 CURVE SMOOTH",
"461 260 OFFCURVE",
"425 302 OFFCURVE",
"291 345 CURVE SMOOTH",
"208 372 OFFCURVE",
"192 384 OFFCURVE",
"192 413 CURVE SMOOTH",
"192 429 OFFCURVE",
"195 438 OFFCURVE",
"207 438 CURVE SMOOTH",
"245 438 OFFCURVE",
"295 388 OFFCURVE",
"357 388 CURVE SMOOTH",
"426 388 OFFCURVE",
"461 427 OFFCURVE",
"461 522 CURVE SMOOTH",
"461 552 LINE",
"319 552 LINE",
"319 535 LINE SMOOTH",
"319 520 OFFCURVE",
"314 512 OFFCURVE",
"304 512 CURVE SMOOTH",
"276 512 OFFCURVE",
"227 562 OFFCURVE",
"162 562 CURVE SMOOTH",
"81 562 OFFCURVE",
"32 511 OFFCURVE",
"32 420 CURVE SMOOTH",
"32 326 OFFCURVE",
"73 290 OFFCURVE",
"174 251 CURVE SMOOTH",
"253 220 OFFCURVE",
"302 207 OFFCURVE",
"302 162 CURVE SMOOTH",
"302 127 OFFCURVE",
"284 107 OFFCURVE",
"243 107 CURVE SMOOTH",
"198 107 OFFCURVE",
"181 127 OFFCURVE",
"181 163 CURVE SMOOTH",
"181 177 OFFCURVE",
"185 189 OFFCURVE",
"191 197 CURVE",
"79 255 LINE",
"55 237 OFFCURVE",
"32 201 OFFCURVE",
"32 152 CURVE SMOOTH",
"32 60 OFFCURVE",
"100 -10 OFFCURVE",
"248 -10 CURVE SMOOTH"
);
}
);
width = 487;
}
);
note = uni0EAE;
unicode = 0EAE;
},
{
glyphname = "khmuGo-lao";
lastChange = "2017-06-05 18:40:43 +0000";
layers = (
{
anchors = (
{
name = bottom;
position = "{545, 1}";
},
{
name = top;
position = "{537, 536}";
},
{
name = top2;
position = "{338, 536}";
}
);
layerId = "64BC062E-13E4-450B-B24E-D8A474022433";
paths = (
{
closed = 1;
nodes = (
"159 -10 OFFCURVE",
"187 19 OFFCURVE",
"187 89 CURVE SMOOTH",
"187 359 LINE SMOOTH",
"187 425 OFFCURVE",
"259 531 OFFCURVE",
"389 531 CURVE SMOOTH",
"500 531 OFFCURVE",
"520 454 OFFCURVE",
"520 366 CURVE SMOOTH",
"520 0 LINE",
"546 0 LINE",
"546 365 LINE SMOOTH",
"546 492 OFFCURVE",
"499 556 OFFCURVE",
"388 556 CURVE SMOOTH",
"274 556 OFFCURVE",
"214 489 OFFCURVE",
"183 427 CURVE",
"182 427 LINE",
"172 480 OFFCURVE",
"158 519 OFFCURVE",
"133 556 CURVE",
"113 543 LINE",
"139 505 OFFCURVE",
"161 449 OFFCURVE",
"161 391 CURVE SMOOTH",
"161 85 LINE SMOOTH",
"161 30 OFFCURVE",
"143 15 OFFCURVE",
"108 15 CURVE SMOOTH",
"93 15 OFFCURVE",
"83 18 OFFCURVE",
"70 22 CURVE",
"65 -2 LINE",
"78 -7 OFFCURVE",
"94 -10 OFFCURVE",
"110 -10 CURVE SMOOTH"
);
},
{
closed = 1;
nodes = (
"613 239 LINE",
"613 263 LINE",
"389 263 LINE SMOOTH",
"358 263 OFFCURVE",
"347 275 OFFCURVE",
"347 295 CURVE SMOOTH",
"347 307 OFFCURVE",
"351 321 OFFCURVE",
"355 329 CURVE",
"331 333 LINE",
"326 323 OFFCURVE",
"322 305 OFFCURVE",
"322 292 CURVE SMOOTH",
"322 262 OFFCURVE",
"341 239 OFFCURVE",
"386 239 CURVE SMOOTH"
);
}
);
width = 633;
},
{
anchors = (
{
name = bottom;
position = "{532, 0}";
},
{
name = top;
position = "{522, 536}";
},
{
name = top2;
position = "{338, 536}";
}
);
layerId = "6449CA81-A7C3-4005-93E5-765657812F1B";
paths = (
{
closed = 1;
nodes = (
"157 -6 OFFCURVE",
"195 37 OFFCURVE",
"195 110 CURVE SMOOTH",
"195 357 LINE SMOOTH",
"195 459 OFFCURVE",
"265 485 OFFCURVE",
"326 485 CURVE SMOOTH",
"411 485 OFFCURVE",
"444 434 OFFCURVE",
"444 347 CURVE SMOOTH",
"444 0 LINE",
"532 0 LINE",
"532 353 LINE SMOOTH",
"532 489 OFFCURVE",
"464 558 OFFCURVE",
"343 558 CURVE SMOOTH",
"278 558 OFFCURVE",
"218 538 OFFCURVE",
"172 477 CURVE",
"169 477 LINE",
"157 508 OFFCURVE",
"134 542 OFFCURVE",
"116 558 CURVE",
"52 509 LINE",
"80 482 OFFCURVE",
"107 439 OFFCURVE",
"107 366 CURVE SMOOTH",
"107 106 LINE SMOOTH",
"107 75 OFFCURVE",
"90 64 OFFCURVE",
"67 64 CURVE SMOOTH",
"57 64 OFFCURVE",
"45 66 OFFCURVE",
"33 70 CURVE",
"20 8 LINE",
"44 -1 OFFCURVE",
"70 -6 OFFCURVE",
"92 -6 CURVE SMOOTH"
);
},
{
closed = 1;
nodes = (
"608 210 LINE",
"608 278 LINE",
"383 278 LINE SMOOTH",
"358 278 OFFCURVE",
"348 292 OFFCURVE",
"348 311 CURVE SMOOTH",
"348 320 OFFCURVE",
"350 335 OFFCURVE",
"353 341 CURVE",
"285 354 LINE",
"276 339 OFFCURVE",
"270 313 OFFCURVE",
"270 293 CURVE SMOOTH",
"270 250 OFFCURVE",
"301 210 OFFCURVE",
"377 210 CURVE SMOOTH"
);
}
);
width = 614;
},
{
anchors = (
{
name = bottom;
position = "{601, 0}";
},
{
name = top;
position = "{591, 536}";
},
{
name = top2;
position = "{358, 536}";
}
);
layerId = "E5D3352E-10FF-4C03-AD9F-F95B1FD01257";
paths = (
{
closed = 1;
nodes = (
"249 -10 OFFCURVE",
"305 43 OFFCURVE",
"305 139 CURVE SMOOTH",
"305 351 LINE SMOOTH",
"305 399 OFFCURVE",
"327 419 OFFCURVE",
"360 419 CURVE SMOOTH",
"395 419 OFFCURVE",
"409 395 OFFCURVE",
"409 349 CURVE SMOOTH",
"409 0 LINE",
"601 0 LINE",
"601 371 LINE SMOOTH",
"601 479 OFFCURVE",
"547 563 OFFCURVE",
"415 563 CURVE SMOOTH",
"336 563 OFFCURVE",
"279 533 OFFCURVE",
"241 488 CURVE",
"238 488 LINE",
"230 511 OFFCURVE",
"192 548 OFFCURVE",
"163 563 CURVE",
"44 459 LINE",
"97 414 OFFCURVE",
"113 379 OFFCURVE",
"113 309 CURVE SMOOTH",
"113 160 LINE SMOOTH",
"113 142 OFFCURVE",
"106 134 OFFCURVE",
"87 134 CURVE SMOOTH",
"74 134 OFFCURVE",
"62 138 OFFCURVE",
"52 142 CURVE",
"25 20 LINE",
"63 0 OFFCURVE",
"120 -10 OFFCURVE",
"159 -10 CURVE SMOOTH"
);
},
{
closed = 1;
nodes = (
"658 160 LINE",
"658 267 LINE",
"428 267 LINE SMOOTH",
"407 267 OFFCURVE",
"394 279 OFFCURVE",
"394 300 CURVE SMOOTH",
"394 310 OFFCURVE",
"397 319 OFFCURVE",
"402 330 CURVE",
"320 339 LINE",
"307 314 OFFCURVE",
"300 295 OFFCURVE",
"300 266 CURVE SMOOTH",
"300 196 OFFCURVE",
"341 160 OFFCURVE",
"410 160 CURVE SMOOTH"
);
}
);
width = 656;
},
{
anchors = (
{
name = bottom;
position = "{379, 1}";
},
{
name = top;
position = "{374, 536}";
},
{
name = top2;
position = "{236, 536}";
}
);
layerId = "009F2F33-BFE3-455D-BDCF-6F386AA465CF";
paths = (
{
closed = 1;
nodes = (
"111 -10 OFFCURVE",
"132 19 OFFCURVE",
"132 89 CURVE SMOOTH",
"132 378 LINE SMOOTH",
"132 444 OFFCURVE",
"178 531 OFFCURVE",
"259 531 CURVE SMOOTH",
"334 531 OFFCURVE",
"353 455 OFFCURVE",
"353 366 CURVE SMOOTH",
"353 0 LINE",
"380 0 LINE",
"380 365 LINE SMOOTH",
"380 494 OFFCURVE",
"340 556 OFFCURVE",
"259 556 CURVE SMOOTH",
"191 556 OFFCURVE",
"151 511 OFFCURVE",
"126 446 CURVE",
"125 446 LINE",
"120 499 OFFCURVE",
"109 527 OFFCURVE",
"91 556 CURVE",
"70 543 LINE",
"89 505 OFFCURVE",
"105 468 OFFCURVE",
"105 410 CURVE SMOOTH",
"105 85 LINE SMOOTH",
"105 30 OFFCURVE",
"92 15 OFFCURVE",
"70 15 CURVE SMOOTH",
"60 15 OFFCURVE",
"53 18 OFFCURVE",
"44 22 CURVE",
"39 -2 LINE",
"50 -7 OFFCURVE",
"62 -10 OFFCURVE",
"74 -10 CURVE SMOOTH"
);
},
{
closed = 1;
nodes = (
"428 239 LINE",
"428 263 LINE",
"274 263 LINE SMOOTH",
"253 263 OFFCURVE",
"245 275 OFFCURVE",
"245 295 CURVE SMOOTH",
"245 307 OFFCURVE",
"248 321 OFFCURVE",
"251 329 CURVE",
"228 333 LINE",
"224 323 OFFCURVE",
"221 305 OFFCURVE",
"221 292 CURVE SMOOTH",
"221 262 OFFCURVE",
"236 239 OFFCURVE",
"271 239 CURVE SMOOTH"
);
}
);
width = 440;
},
{
anchors = (
{
name = bottom;
position = "{401, 0}";
},
{
name = top;
position = "{394, 536}";
},
{
name = top2;
position = "{243, 536}";
}
);
layerId = "AA55D700-EA4F-438C-81A6-FEFC4FC5520F";
paths = (
{
closed = 1;
nodes = (
"139 -7 OFFCURVE",
"169 36 OFFCURVE",
"169 107 CURVE SMOOTH",
"169 357 LINE SMOOTH",
"169 454 OFFCURVE",
"209 491 OFFCURVE",
"251 491 CURVE SMOOTH",
"300 491 OFFCURVE",
"315 440 OFFCURVE",
"315 354 CURVE SMOOTH",
"315 0 LINE",
"401 0 LINE",
"401 360 LINE SMOOTH",
"401 494 OFFCURVE",
"361 558 OFFCURVE",
"272 558 CURVE SMOOTH",
"217 558 OFFCURVE",
"175 534 OFFCURVE",
"146 479 CURVE",
"144 479 LINE",
"136 513 OFFCURVE",
"119 539 OFFCURVE",
"104 558 CURVE",
"41 513 LINE",
"68 485 OFFCURVE",
"83 440 OFFCURVE",
"83 369 CURVE SMOOTH",
"83 103 LINE SMOOTH",
"83 68 OFFCURVE",
"74 58 OFFCURVE",
"57 58 CURVE SMOOTH",
"49 58 OFFCURVE",
"41 60 OFFCURVE",
"33 64 CURVE",
"21 7 LINE",
"41 -2 OFFCURVE",
"68 -7 OFFCURVE",
"86 -7 CURVE SMOOTH"
);
},
{
closed = 1;
nodes = (
"447 214 LINE",
"447 276 LINE",
"292 276 LINE SMOOTH",
"275 276 OFFCURVE",
"267 290 OFFCURVE",
"267 311 CURVE SMOOTH",
"267 318 OFFCURVE",
"268 333 OFFCURVE",
"271 340 CURVE",
"222 351 LINE",
"215 337 OFFCURVE",
"211 312 OFFCURVE",
"211 294 CURVE SMOOTH",
"211 252 OFFCURVE",
"237 214 OFFCURVE",
"284 214 CURVE SMOOTH"
);
}
);
width = 451;
},
{
anchors = (
{
name = bottom;
position = "{515, 0}";
},
{
name = top;
position = "{508, 536}";
},
{
name = top2;
position = "{303, 536}";
}
);
layerId = "71F2606D-B934-4F95-8EC7-C80FA20C45E9";
paths = (
{
closed = 1;
nodes = (
"221 -9 OFFCURVE",
"267 41 OFFCURVE",
"267 131 CURVE SMOOTH",
"267 353 LINE SMOOTH",
"267 416 OFFCURVE",
"288 438 OFFCURVE",
"312 438 CURVE SMOOTH",
"336 438 OFFCURVE",
"353 406 OFFCURVE",
"353 348 CURVE SMOOTH",
"353 0 LINE",
"515 0 LINE",
"515 366 LINE SMOOTH",
"515 482 OFFCURVE",
"473 562 OFFCURVE",
"359 562 CURVE SMOOTH",
"295 562 OFFCURVE",
"243 534 OFFCURVE",
"213 485 CURVE",
"211 485 LINE",
"203 513 OFFCURVE",
"187 541 OFFCURVE",
"166 562 CURVE",
"49 473 LINE",
"94 434 OFFCURVE",
"105 396 OFFCURVE",
"105 325 CURVE SMOOTH",
"105 144 LINE SMOOTH",
"105 123 OFFCURVE",
"101 114 OFFCURVE",
"86 114 CURVE SMOOTH",
"75 114 OFFCURVE",
"66 117 OFFCURVE",
"58 121 CURVE",
"35 17 LINE",
"67 0 OFFCURVE",
"115 -9 OFFCURVE",
"147 -9 CURVE SMOOTH"
);
},
{
closed = 1;
nodes = (
"553 180 LINE",
"553 276 LINE",
"365 276 LINE SMOOTH",
"349 276 OFFCURVE",
"338 288 OFFCURVE",
"338 311 CURVE SMOOTH",
"338 320 OFFCURVE",
"341 329 OFFCURVE",
"345 338 CURVE",
"278 346 LINE",
"267 324 OFFCURVE",
"261 306 OFFCURVE",
"261 280 CURVE SMOOTH",
"261 218 OFFCURVE",
"295 180 OFFCURVE",
"350 180 CURVE SMOOTH"
);
}
);
width = 557;
}
);
unicode = 0EDE;
},
{
glyphname = "khmuNyo-lao";
lastChange = "2017-06-05 18:40:43 +0000";
layers = (
{
anchors = (
{
name = bottom;
position = "{466, 0}";
},
{
name = top;
position = "{476, 536}";
},
{
name = top2;
position = "{309, 536}";
}
);
layerId = "64BC062E-13E4-450B-B24E-D8A474022433";
paths = (
{
closed = 1;
nodes = (
"390 -10 OFFCURVE",
"476 45 OFFCURVE",
"476 175 CURVE SMOOTH",
"476 548 LINE",
"450 548 LINE",
"450 169 LINE SMOOTH",
"450 52 OFFCURVE",
"363 15 OFFCURVE",
"272 15 CURVE SMOOTH",
"179 15 OFFCURVE",
"95 53 OFFCURVE",
"95 153 CURVE SMOOTH",
"95 235 OFFCURVE",
"152 279 OFFCURVE",
"218 279 CURVE SMOOTH",
"245 279 LINE",
"245 301 LINE",
"218 301 LINE SMOOTH",
"172 301 OFFCURVE",
"92 331 OFFCURVE",
"92 423 CURVE SMOOTH",
"92 495 OFFCURVE",
"140 531 OFFCURVE",
"210 531 CURVE SMOOTH",
"235 531 OFFCURVE",
"265 526 OFFCURVE",
"279 521 CURVE",
"284 544 LINE",
"264 551 OFFCURVE",
"233 556 OFFCURVE",
"206 556 CURVE SMOOTH",
"123 556 OFFCURVE",
"65 508 OFFCURVE",
"65 422 CURVE SMOOTH",
"65 338 OFFCURVE",
"120 305 OFFCURVE",
"156 291 CURVE",
"156 287 LINE",
"122 273 OFFCURVE",
"68 243 OFFCURVE",
"68 155 CURVE SMOOTH",
"68 50 OFFCURVE",
"145 -10 OFFCURVE",
"270 -10 CURVE SMOOTH"
);
},
{
closed = 1;
nodes = (
"550 239 LINE",
"550 263 LINE",
"376 263 LINE SMOOTH",
"345 263 OFFCURVE",
"334 275 OFFCURVE",
"334 295 CURVE SMOOTH",
"334 307 OFFCURVE",
"338 321 OFFCURVE",
"342 329 CURVE",
"318 333 LINE",
"313 323 OFFCURVE",
"309 305 OFFCURVE",
"309 292 CURVE SMOOTH",
"309 262 OFFCURVE",
"328 239 OFFCURVE",
"373 239 CURVE SMOOTH"
);
}
);
width = 570;
},
{
anchors = (
{
name = bottom;
position = "{522, 0}";
},
{
name = top;
position = "{532, 536}";
},
{
name = top2;
position = "{347, 536}";
}
);
layerId = "6449CA81-A7C3-4005-93E5-765657812F1B";
paths = (
{
closed = 1;
nodes = (
"452 -10 OFFCURVE",
"532 50 OFFCURVE",
"532 189 CURVE SMOOTH",
"532 548 LINE",
"444 548 LINE",
"444 179 LINE SMOOTH",
"444 97 OFFCURVE",
"401 63 OFFCURVE",
"303 63 CURVE SMOOTH",
"199 63 OFFCURVE",
"156 102 OFFCURVE",
"156 169 CURVE SMOOTH",
"156 233 OFFCURVE",
"196 263 OFFCURVE",
"245 263 CURVE SMOOTH",
"264 263 LINE",
"264 328 LINE",
"245 328 LINE SMOOTH",
"216 328 OFFCURVE",
"156 345 OFFCURVE",
"156 412 CURVE SMOOTH",
"156 458 OFFCURVE",
"185 485 OFFCURVE",
"240 485 CURVE SMOOTH",
"266 485 OFFCURVE",
"291 479 OFFCURVE",
"306 474 CURVE",
"321 542 LINE",
"301 551 OFFCURVE",
"265 558 OFFCURVE",
"228 558 CURVE SMOOTH",
"113 558 OFFCURVE",
"68 490 OFFCURVE",
"68 420 CURVE SMOOTH",
"68 344 OFFCURVE",
"121 308 OFFCURVE",
"162 296 CURVE",
"162 292 LINE",
"116 285 OFFCURVE",
"68 248 OFFCURVE",
"68 163 CURVE SMOOTH",
"68 54 OFFCURVE",
"147 -10 OFFCURVE",
"302 -10 CURVE SMOOTH"
);
},
{
closed = 1;
nodes = (
"608 240 LINE",
"608 308 LINE",
"413 308 LINE SMOOTH",
"388 308 OFFCURVE",
"378 322 OFFCURVE",
"378 341 CURVE SMOOTH",
"378 350 OFFCURVE",
"380 365 OFFCURVE",
"383 371 CURVE",
"315 384 LINE",
"306 369 OFFCURVE",
"300 343 OFFCURVE",
"300 323 CURVE SMOOTH",
"300 280 OFFCURVE",
"331 240 OFFCURVE",
"407 240 CURVE SMOOTH"
);
}
);
width = 614;
},
{
anchors = (
{
name = bottom;
position = "{563, 0}";
},
{
name = top;
position = "{573, 536}";
},
{
name = top2;
position = "{323, 536}";
}
);
layerId = "E5D3352E-10FF-4C03-AD9F-F95B1FD01257";
paths = (
{
closed = 1;
nodes = (
"478 -10 OFFCURVE",
"573 53 OFFCURVE",
"573 206 CURVE SMOOTH",
"573 553 LINE",
"381 553 LINE",
"381 195 LINE SMOOTH",
"381 159 OFFCURVE",
"350 134 OFFCURVE",
"294 134 CURVE SMOOTH",
"258 134 OFFCURVE",
"213 148 OFFCURVE",
"213 182 CURVE SMOOTH",
"213 204 OFFCURVE",
"227 225 OFFCURVE",
"261 225 CURVE SMOOTH",
"313 225 LINE",
"313 336 LINE",
"261 336 LINE SMOOTH",
"231 336 OFFCURVE",
"213 351 OFFCURVE",
"213 380 CURVE SMOOTH",
"213 405 OFFCURVE",
"226 419 OFFCURVE",
"253 419 CURVE SMOOTH",
"265 419 OFFCURVE",
"283 416 OFFCURVE",
"296 412 CURVE",
"327 544 LINE",
"292 556 OFFCURVE",
"249 563 OFFCURVE",
"208 563 CURVE SMOOTH",
"76 563 OFFCURVE",
"25 489 OFFCURVE",
"25 412 CURVE SMOOTH",
"25 359 OFFCURVE",
"49 307 OFFCURVE",
"112 280 CURVE",
"112 278 LINE",
"58 258 OFFCURVE",
"25 216 OFFCURVE",
"25 156 CURVE SMOOTH",
"25 57 OFFCURVE",
"126 -10 OFFCURVE",
"300 -10 CURVE SMOOTH"
);
},
{
closed = 1;
nodes = (
"622 205 LINE",
"622 312 LINE",
"389 312 LINE SMOOTH",
"368 312 OFFCURVE",
"355 323 OFFCURVE",
"355 347 CURVE SMOOTH",
"355 358 OFFCURVE",
"358 373 OFFCURVE",
"363 384 CURVE",
"281 384 LINE",
"268 359 OFFCURVE",
"261 340 OFFCURVE",
"261 311 CURVE SMOOTH",
"261 243 OFFCURVE",
"302 205 OFFCURVE",
"371 205 CURVE SMOOTH"
);
}
);
width = 620;
},
{
anchors = (
{
name = bottom;
position = "{334, 0}";
},
{
name = top;
position = "{341, 536}";
},
{
name = top2;
position = "{222, 536}";
}
);
layerId = "009F2F33-BFE3-455D-BDCF-6F386AA465CF";
paths = (
{
closed = 1;
nodes = (
"282 -10 OFFCURVE",
"341 45 OFFCURVE",
"341 175 CURVE SMOOTH",
"341 548 LINE",
"314 548 LINE",
"314 169 LINE SMOOTH",
"314 52 OFFCURVE",
"259 15 OFFCURVE",
"194 15 CURVE SMOOTH",
"128 15 OFFCURVE",
"75 54 OFFCURVE",
"75 152 CURVE SMOOTH",
"75 235 OFFCURVE",
"113 279 OFFCURVE",
"156 279 CURVE SMOOTH",
"174 279 LINE",
"174 301 LINE",
"156 301 LINE SMOOTH",
"127 301 OFFCURVE",
"73 330 OFFCURVE",
"73 424 CURVE SMOOTH",
"73 495 OFFCURVE",
"104 531 OFFCURVE",
"151 531 CURVE SMOOTH",
"169 531 OFFCURVE",
"189 526 OFFCURVE",
"199 521 CURVE",
"204 544 LINE",
"190 551 OFFCURVE",
"168 556 OFFCURVE",
"147 556 CURVE SMOOTH",
"85 556 OFFCURVE",
"46 508 OFFCURVE",
"46 422 CURVE SMOOTH",
"46 338 OFFCURVE",
"84 305 OFFCURVE",
"110 291 CURVE",
"110 287 LINE",
"85 273 OFFCURVE",
"48 243 OFFCURVE",
"48 155 CURVE SMOOTH",
"48 50 OFFCURVE",
"102 -10 OFFCURVE",
"194 -10 CURVE SMOOTH"
);
},
{
closed = 1;
nodes = (
"393 239 LINE",
"393 263 LINE",
"268 263 LINE SMOOTH",
"248 263 OFFCURVE",
"240 275 OFFCURVE",
"240 295 CURVE SMOOTH",
"240 307 OFFCURVE",
"243 321 OFFCURVE",
"245 329 CURVE",
"222 333 LINE",
"218 323 OFFCURVE",
"215 305 OFFCURVE",
"215 292 CURVE SMOOTH",
"215 262 OFFCURVE",
"230 239 OFFCURVE",
"266 239 CURVE SMOOTH"
);
}
);
width = 405;
},
{
anchors = (
{
name = bottom;
position = "{365, 0}";
},
{
name = top;
position = "{381, 536}";
},
{
name = top2;
position = "{231, 536}";
}
);
layerId = "AA55D700-EA4F-438C-81A6-FEFC4FC5520F";
paths = (
{
closed = 1;
nodes = (
"319 -10 OFFCURVE",
"381 50 OFFCURVE",
"381 187 CURVE SMOOTH",
"381 548 LINE",
"295 548 LINE",
"295 178 LINE SMOOTH",
"295 91 OFFCURVE",
"262 57 OFFCURVE",
"210 57 CURVE SMOOTH",
"155 57 OFFCURVE",
"119 94 OFFCURVE",
"119 171 CURVE SMOOTH",
"119 231 OFFCURVE",
"141 265 OFFCURVE",
"173 265 CURVE SMOOTH",
"197 265 LINE",
"197 325 LINE",
"173 325 LINE SMOOTH",
"150 325 OFFCURVE",
"119 343 OFFCURVE",
"119 412 CURVE SMOOTH",
"119 463 OFFCURVE",
"136 491 OFFCURVE",
"168 491 CURVE SMOOTH",
"182 491 OFFCURVE",
"198 485 OFFCURVE",
"208 480 CURVE",
"222 542 LINE",
"203 551 OFFCURVE",
"177 558 OFFCURVE",
"150 558 CURVE SMOOTH",
"69 558 OFFCURVE",
"34 494 OFFCURVE",
"34 416 CURVE SMOOTH",
"34 349 OFFCURVE",
"60 308 OFFCURVE",
"97 295 CURVE",
"97 291 LINE",
"65 285 OFFCURVE",
"34 246 OFFCURVE",
"34 166 CURVE SMOOTH",
"34 53 OFFCURVE",
"96 -10 OFFCURVE",
"209 -10 CURVE SMOOTH"
);
},
{
closed = 1;
nodes = (
"427 240 LINE",
"427 302 LINE",
"283 302 LINE SMOOTH",
"266 302 OFFCURVE",
"258 316 OFFCURVE",
"258 335 CURVE SMOOTH",
"258 345 OFFCURVE",
"260 360 OFFCURVE",
"263 366 CURVE",
"216 378 LINE",
"209 363 OFFCURVE",
"205 338 OFFCURVE",
"205 320 CURVE SMOOTH",
"205 278 OFFCURVE",
"228 240 OFFCURVE",
"275 240 CURVE SMOOTH"
);
}
);
width = 431;
},
{
anchors = (
{
name = bottom;
position = "{453, 0}";
},
{
name = top;
position = "{461, 536}";
},
{
name = top2;
position = "{272, 536}";
}
);
layerId = "71F2606D-B934-4F95-8EC7-C80FA20C45E9";
paths = (
{
closed = 1;
nodes = (
"384 -10 OFFCURVE",
"461 52 OFFCURVE",
"461 201 CURVE SMOOTH",
"461 552 LINE",
"299 552 LINE",
"299 190 LINE SMOOTH",
"299 141 OFFCURVE",
"276 114 OFFCURVE",
"242 114 CURVE SMOOTH",
"219 114 OFFCURVE",
"190 135 OFFCURVE",
"190 178 CURVE SMOOTH",
"190 212 OFFCURVE",
"200 236 OFFCURVE",
"226 236 CURVE SMOOTH",
"270 236 LINE",
"270 334 LINE",
"226 334 LINE SMOOTH",
"201 334 OFFCURVE",
"190 349 OFFCURVE",
"190 389 CURVE SMOOTH",
"190 420 OFFCURVE",
"200 438 OFFCURVE",
"219 438 CURVE SMOOTH",
"227 438 OFFCURVE",
"241 434 OFFCURVE",
"251 430 CURVE",
"278 543 LINE",
"248 555 OFFCURVE",
"213 562 OFFCURVE",
"180 562 CURVE SMOOTH",
"73 562 OFFCURVE",
"32 489 OFFCURVE",
"32 414 CURVE SMOOTH",
"32 355 OFFCURVE",
"49 307 OFFCURVE",
"101 285 CURVE",
"101 282 LINE",
"57 266 OFFCURVE",
"32 225 OFFCURVE",
"32 158 CURVE SMOOTH",
"32 56 OFFCURVE",
"107 -10 OFFCURVE",
"247 -10 CURVE SMOOTH"
);
},
{
closed = 1;
nodes = (
"505 215 LINE",
"505 311 LINE",
"321 311 LINE SMOOTH",
"305 311 OFFCURVE",
"294 323 OFFCURVE",
"294 345 CURVE SMOOTH",
"294 356 OFFCURVE",
"297 371 OFFCURVE",
"301 380 CURVE",
"234 384 LINE",
"223 362 OFFCURVE",
"218 341 OFFCURVE",
"218 314 CURVE SMOOTH",
"218 254 OFFCURVE",
"251 215 OFFCURVE",
"306 215 CURVE SMOOTH"
);
}
);
width = 512;
}
);
unicode = 0EDF;
},
